<svg xmlns="http://www.w3.org/2000/svg" xmlns:xlink="http://www.w3.org/1999/xlink" width="785" height="436" viewBox="0 0 785 436">
  <defs>
    <clipPath id="clip-path">
      <rect id="Rectangle_7606" data-name="Rectangle 7606" width="785" height="436" transform="translate(247 339)" fill="#fff" stroke="#707070" stroke-width="1"/>
    </clipPath>
    <clipPath id="clip-path-2">
      <rect id="Rectangle_8760" data-name="Rectangle 8760" width="16.019" height="13.616" rx="6.808" fill="#263238"/>
    </clipPath>
    <clipPath id="clip-path-3">
      <rect id="Rectangle_8761" data-name="Rectangle 8761" width="45" height="37" transform="translate(400.783 244.749)" fill="#fff" stroke="#707070" stroke-width="1"/>
    </clipPath>
    <clipPath id="clip-path-4">
      <rect id="Rectangle_8763" data-name="Rectangle 8763" width="30" height="25" rx="4" transform="translate(-0.456 -0.042)" fill="#fff"/>
    </clipPath>
    <clipPath id="clip-path-5">
      <path id="Path_17434" data-name="Path 17434" d="M318.626,256.556s11.991,25.591,11.991,26.942-10.64,7.138-12.666,8.354a49.228,49.228,0,0,1-4.853,2.421l1.216,11.856s18.318-4.177,26-8.354,7.408-8.895,5.629-15.9-13.612-34.069-13.612-34.069Z" fill="#fff" stroke="#263238" stroke-linecap="round" stroke-linejoin="round" stroke-width="1.126"/>
    </clipPath>
    <clipPath id="clip-path-6">
      <path id="Path_17438" data-name="Path 17438" d="M232.113,250.9s-8.748,32.054-9.007,37.717,17.372,16.832,18.014,17.508-1-19.478-1-19.478l5.978-29.273Z" fill="#fff" stroke="#263238" stroke-linecap="round" stroke-linejoin="round" stroke-width="1.126"/>
    </clipPath>
    <clipPath id="clip-path-7">
      <path id="Path_17457" data-name="Path 17457" d="M260.136,197.965s3.5,12.385,10.133,19.669,9.007,9.007,12.531,8.478,7.273-5.112,12.52-14.637,5.629-16.832,6.069-17.508-1.126-14.141-8.624-19.939-15.9-8.343-23.171-2.015S257.7,188.665,260.136,197.965Z" fill="#fff" stroke="#263238" stroke-linecap="round" stroke-linejoin="round" stroke-width="1.126"/>
    </clipPath>
  </defs>
  <g id="Mask_Group_142" data-name="Mask Group 142" transform="translate(-247 -339)" clip-path="url(#clip-path)">
    <g id="Blog_post-bro" data-name="Blog post-bro" transform="translate(355.217 269.251)">
      <g id="freepik--background-simple--inject-1--inject-260">
        <path id="Path_17418" data-name="Path 17418" d="M478.018,247.436c1.723-46.634-15.031-93.831-51.96-116.293-18.228-11.09-39.541-17.586-60.865-16.629-22.878,1.025-44.416,10.336-65.988,18.014s-44.934,13.815-67.17,8.365c-16.089-3.941-30.241-13.68-46.161-18.116-62.723-17.463-117.34,53.7-86.648,110.281,7.532,13.871,19.14,24.995,28.9,37.413s17.947,27.415,16.629,43.144c-1.126,13.027-8.512,24.623-11.585,37.323-5.877,24.33,5.787,51.093,25.952,65.921s47.366,18.284,71.685,12.182,45.711-21.032,62.566-39.519c9.007-9.908,17.834-21.482,30.793-24.848,12.441-3.22,25.265,2.027,37.886,4.436A87.245,87.245,0,0,0,429.346,353.8C459.8,331.27,476.464,289.578,478.018,247.436Z" fill="#e6f0fd"/>
      </g>
      <g id="freepik--Shadow--inject-1--inject-260">
        <ellipse id="Ellipse_961" data-name="Ellipse 961" cx="152.231" cy="30.444" rx="152.231" ry="30.444" transform="translate(125.176 444.861)" fill="#428ef3" opacity="0.58"/>
      </g>
      <g id="freepik--graphics-2--inject-1--inject-260">
        <rect id="Rectangle_8751" data-name="Rectangle 8751" width="123.341" height="134.577" rx="6.789" transform="translate(322.465 70.312)" fill="#fff" stroke="#263238" stroke-linecap="round" stroke-linejoin="round" stroke-width="1.126"/>
        <path id="Path_17420" data-name="Path 17420" d="M329.255,70.312H439.006a6.755,6.755,0,0,1,6.755,6.755v7.048h-123.3V77.1a6.755,6.755,0,0,1,6.789-6.789Z" fill="#263238" stroke="#263238" stroke-linecap="round" stroke-linejoin="round" stroke-width="1.126"/>
        <line id="Line_296" data-name="Line 296" x2="49.629" transform="translate(329.187 142.166)" fill="none" stroke="#263238" stroke-linecap="round" stroke-linejoin="round" stroke-width="1.126"/>
        <line id="Line_297" data-name="Line 297" x2="49.629" transform="translate(329.187 148.572)" fill="none" stroke="#263238" stroke-linecap="round" stroke-linejoin="round" stroke-width="1.126"/>
        <line id="Line_298" data-name="Line 298" x2="49.629" transform="translate(329.187 154.978)" fill="none" stroke="#263238" stroke-linecap="round" stroke-linejoin="round" stroke-width="1.126"/>
        <line id="Line_299" data-name="Line 299" x2="49.629" transform="translate(329.187 161.385)" fill="none" stroke="#263238" stroke-linecap="round" stroke-linejoin="round" stroke-width="1.126"/>
        <line id="Line_300" data-name="Line 300" x2="49.629" transform="translate(329.187 167.791)" fill="none" stroke="#263238" stroke-linecap="round" stroke-linejoin="round" stroke-width="1.126"/>
        <line id="Line_301" data-name="Line 301" x2="49.629" transform="translate(329.187 174.209)" fill="none" stroke="#263238" stroke-linecap="round" stroke-linejoin="round" stroke-width="1.126"/>
        <line id="Line_302" data-name="Line 302" x2="49.629" transform="translate(329.187 180.615)" fill="none" stroke="#263238" stroke-linecap="round" stroke-linejoin="round" stroke-width="1.126"/>
        <line id="Line_303" data-name="Line 303" x2="49.629" transform="translate(329.187 187.021)" fill="none" stroke="#263238" stroke-linecap="round" stroke-linejoin="round" stroke-width="1.126"/>
        <line id="Line_304" data-name="Line 304" x2="49.629" transform="translate(329.187 193.427)" fill="none" stroke="#263238" stroke-linecap="round" stroke-linejoin="round" stroke-width="1.126"/>
        <line id="Line_305" data-name="Line 305" x2="49.629" transform="translate(387.542 142.166)" fill="none" stroke="#263238" stroke-linecap="round" stroke-linejoin="round" stroke-width="1.126"/>
        <line id="Line_306" data-name="Line 306" x2="49.629" transform="translate(387.542 148.572)" fill="none" stroke="#263238" stroke-linecap="round" stroke-linejoin="round" stroke-width="1.126"/>
        <line id="Line_307" data-name="Line 307" x2="49.629" transform="translate(387.542 154.978)" fill="none" stroke="#263238" stroke-linecap="round" stroke-linejoin="round" stroke-width="1.126"/>
        <line id="Line_308" data-name="Line 308" x2="49.629" transform="translate(387.542 161.385)" fill="none" stroke="#263238" stroke-linecap="round" stroke-linejoin="round" stroke-width="1.126"/>
        <line id="Line_309" data-name="Line 309" x2="49.629" transform="translate(387.542 167.791)" fill="none" stroke="#263238" stroke-linecap="round" stroke-linejoin="round" stroke-width="1.126"/>
        <line id="Line_310" data-name="Line 310" x2="49.629" transform="translate(387.542 174.209)" fill="none" stroke="#263238" stroke-linecap="round" stroke-linejoin="round" stroke-width="1.126"/>
        <line id="Line_311" data-name="Line 311" x2="49.629" transform="translate(387.542 180.615)" fill="none" stroke="#263238" stroke-linecap="round" stroke-linejoin="round" stroke-width="1.126"/>
        <line id="Line_312" data-name="Line 312" x2="49.629" transform="translate(387.542 187.021)" fill="none" stroke="#263238" stroke-linecap="round" stroke-linejoin="round" stroke-width="1.126"/>
        <line id="Line_313" data-name="Line 313" x2="49.629" transform="translate(387.542 193.427)" fill="none" stroke="#263238" stroke-linecap="round" stroke-linejoin="round" stroke-width="1.126"/>
        <path id="Path_17421" data-name="Path 17421" d="M362.378,101.6a7.973,7.973,0,0,0,.383-2.353c0-2.916-2.961-3.085-5.866-3.085h-.732v-.687h12.678v.687c-3.3,0-4.5,2.105-5.528,5.224l-6.755,20.165c-.507,1.5-.934,2.612-2.522,2.612H353.9L347.956,104.9l-5.528,16.7c-.518,1.5-.946,2.612-2.533,2.612h-.124l-8.647-28.046h-3.04v-.687h11.124v.687h-3.164l6.418,22.09h.259l4.841-14.67-2.252-7.363h-3.04v-.743H353.4v.687h-3.164l6.418,22.09h.248Z" fill="#428ef3"/>
        <rect id="Rectangle_8752" data-name="Rectangle 8752" width="51.07" height="46.161" transform="translate(386.45 89.091)" fill="#428ef3" stroke="#263238" stroke-linecap="round" stroke-linejoin="round" stroke-width="2.252"/>
        <path id="Path_17422" data-name="Path 17422" d="M437.52,108.389a31.527,31.527,0,0,0-5.089.709c-7.757,1.689-9.784,12.824-18.555,12.824-7.769,0-8.433-10.459-19.568-11.811a12.3,12.3,0,0,0-7.881,1.4v23.745H437.52Z" fill="#263238" stroke="#263238" stroke-linecap="round" stroke-linejoin="round" stroke-width="1.126"/>
        <path id="Path_17423" data-name="Path 17423" d="M403.417,99.652a5.742,5.742,0,1,1-5.731-5.731,5.742,5.742,0,0,1,5.731,5.731Z" fill="#fff" stroke="#263238" stroke-linecap="round" stroke-linejoin="round" stroke-width="1.126"/>
        <rect id="Rectangle_8753" data-name="Rectangle 8753" width="113.681" height="4.38" transform="translate(326.17 74.354)" fill="#fff" stroke="#263238" stroke-linecap="round" stroke-linejoin="round" stroke-width="1.126"/>
        <g id="Group_13609" data-name="Group 13609" transform="translate(-7.145 53.966) rotate(-17)">
          <rect id="Rectangle_8758" data-name="Rectangle 8758" width="30.435" height="25.63" rx="9" transform="translate(129.783 177.749)" fill="#fff"/>
          <g id="Mask_Group_143" data-name="Mask Group 143" transform="translate(136.991 184.156)" clip-path="url(#clip-path-2)">
            <g id="coding" transform="translate(0 0.262)">
              <g id="Group_13603" data-name="Group 13603" transform="translate(11.306 1.874)">
                <g id="Group_13602" data-name="Group 13602">
                  <path id="Path_17516" data-name="Path 17516" d="M27.024,11.145,23.256,7.152a.611.611,0,1,0-.889.839l3.373,3.573-3.373,3.574a.611.611,0,0,0,.889.839l3.769-3.993A.611.611,0,0,0,27.024,11.145Z" transform="translate(-22.2 -6.96)" fill="#263238"/>
                </g>
              </g>
              <g id="Group_13605" data-name="Group 13605" transform="translate(0 1.874)">
                <g id="Group_13604" data-name="Group 13604">
                  <path id="Path_17517" data-name="Path 17517" d="M4.825,15.137,1.452,11.564,4.825,7.991a.611.611,0,0,0-.889-.839L.167,11.145a.611.611,0,0,0,0,.839l3.769,3.993a.611.611,0,0,0,.889-.839Z" transform="translate(0 -6.96)" fill="#263238"/>
                </g>
              </g>
              <g id="Group_13607" data-name="Group 13607" transform="translate(6.641)">
                <g id="Group_13606" data-name="Group 13606">
                  <path id="Path_17518" data-name="Path 17518" d="M15.536,3.287a.612.612,0,0,0-.7.512L13.047,15.533a.611.611,0,0,0,.512.7.63.63,0,0,0,.093.007.611.611,0,0,0,.6-.519L16.048,3.983A.611.611,0,0,0,15.536,3.287Z" transform="translate(-13.04 -3.28)" fill="#263238"/>
                </g>
              </g>
            </g>
          </g>
        </g>
        <g id="Group_13611" data-name="Group 13611" transform="translate(7 1)">
          <g id="Rectangle_8757" data-name="Rectangle 8757" transform="translate(400.499 230.429) rotate(17)" fill="#fff" stroke="#263238" stroke-width="1">
            <rect width="51" height="52" rx="4" stroke="none"/>
            <rect x="0.5" y="0.5" width="50" height="51" rx="3.5" fill="none"/>
          </g>
          <g id="Mask_Group_144" data-name="Mask Group 144" transform="translate(89.316 -112.275) rotate(17)" clip-path="url(#clip-path-3)">
            <g id="Page-1" transform="translate(412.183 244.749)">
              <g id="_009---Mobile-UI-Idea" data-name="009---Mobile-UI-Idea">
                <path id="Shape" d="M21.583,2.467V31.45a1.85,1.85,0,0,1-1.85,1.85H2.467a1.85,1.85,0,0,1-1.85-1.85V2.467A1.85,1.85,0,0,1,2.467.617H4.933L6.7,2.5a1.843,1.843,0,0,0,1.35.586h6.1A1.843,1.843,0,0,0,15.5,2.5L17.267.617h2.467A1.85,1.85,0,0,1,21.583,2.467Z" fill="#428ef3"/>
                <path id="Shape-2" data-name="Shape" d="M19.733.617h-1.85a1.85,1.85,0,0,1,1.85,1.85V31.45a1.85,1.85,0,0,1-1.85,1.85h1.85a1.85,1.85,0,0,0,1.85-1.85V2.467A1.85,1.85,0,0,0,19.733.617Z" fill="#00838f"/>
                <path id="Shape-3" data-name="Shape" d="M21.583,31.45v3.083a1.85,1.85,0,0,1-1.85,1.85H2.467a1.85,1.85,0,0,1-1.85-1.85V31.45a1.85,1.85,0,0,0,1.85,1.85H19.733A1.85,1.85,0,0,0,21.583,31.45Z" fill="#263238"/>
                <path id="Shape-4" data-name="Shape" d="M19.733,33.3v1.233a1.85,1.85,0,0,1-1.85,1.85h1.85a1.85,1.85,0,0,0,1.85-1.85V31.45A1.85,1.85,0,0,1,19.733,33.3Z" fill="#37474f"/>
                <path id="Shape-5" data-name="Shape" d="M17.267.617,15.5,2.5a1.843,1.843,0,0,1-1.351.586h-6.1A1.843,1.843,0,0,1,6.7,2.5L4.933.617Z" fill="#263238"/>
                <path id="Shape-6" data-name="Shape" d="M15.417.617,13.653,2.5a1.843,1.843,0,0,1-1.351.586h1.85A1.843,1.843,0,0,0,15.5,2.5L17.267.617Z" fill="#37474f"/>
                <path id="Shape-7" data-name="Shape" d="M15.781,20.332a4.88,4.88,0,0,0-1.6,3.54v.086a.705.705,0,0,1-.709.709H8.726a.705.705,0,0,1-.709-.709,5.026,5.026,0,0,0-1.6-3.632,6.783,6.783,0,1,1,9.361.006Z" fill="#428ef3"/>
                <path id="Shape-8" data-name="Shape" d="M17.8,14.338a6.8,6.8,0,0,0-5.92-5.661,6.912,6.912,0,0,0-1.692.025,6.78,6.78,0,0,1,3.739,11.63,4.88,4.88,0,0,0-1.6,3.54v.086a.705.705,0,0,1-.709.709h1.85a.705.705,0,0,0,.709-.709v-.086a4.88,4.88,0,0,1,1.6-3.54A6.81,6.81,0,0,0,17.8,14.337Z" fill="#1b63c2"/>
                <path id="Shape-9" data-name="Shape" d="M13.567,24.667v2.467a1.237,1.237,0,0,1-1.233,1.233H9.867a1.237,1.237,0,0,1-1.233-1.233V24.667Z" fill="#7f8e94"/>
                <path id="Shape-10" data-name="Shape" d="M11.717,24.667v2.467a1.237,1.237,0,0,1-1.233,1.233h1.85a1.237,1.237,0,0,0,1.233-1.233V24.667Z" fill="#545c60"/>
                <circle id="Oval" cx="1.542" cy="1.542" r="1.542" transform="translate(8.017 16.033)" fill="#a0c6f9"/>
                <circle id="Oval-2" data-name="Oval" cx="1.542" cy="1.542" r="1.542" transform="translate(11.1 16.033)" fill="#a0c6f9"/>
                <g id="Group_13608" data-name="Group 13608">
                  <path id="Shape-11" data-name="Shape" d="M4.933,8.633A.617.617,0,0,1,4.5,8.453L3.264,7.219a.617.617,0,0,1,.872-.872L5.369,7.581a.617.617,0,0,1-.436,1.053Z" fill="#f5f5f5"/>
                  <path id="Shape-12" data-name="Shape" d="M17.267,8.633a.617.617,0,0,1-.436-1.053l1.233-1.233a.617.617,0,0,1,.872.872L17.7,8.453a.617.617,0,0,1-.436.181Z" fill="#f5f5f5"/>
                  <path id="Shape-13" data-name="Shape" d="M3.7,24.05A.617.617,0,0,1,3.264,23L4.5,21.764a.617.617,0,0,1,.872.872L4.136,23.869a.617.617,0,0,1-.436.181Z" fill="#f5f5f5"/>
                  <path id="Shape-14" data-name="Shape" d="M18.5,24.05a.617.617,0,0,1-.436-.181l-1.233-1.233a.617.617,0,0,1,.872-.872L18.936,23A.617.617,0,0,1,18.5,24.05Z" fill="#f5f5f5"/>
                  <path id="Shape-15" data-name="Shape" d="M11.1,6.783a.617.617,0,0,1-.617-.617V4.933a.617.617,0,0,1,1.233,0V6.167A.617.617,0,0,1,11.1,6.783Z" fill="#f5f5f5"/>
                </g>
                <path id="Shape-16" data-name="Shape" d="M2.467,37H19.733A2.467,2.467,0,0,0,22.2,34.533V2.467A2.467,2.467,0,0,0,19.733,0H2.467A2.467,2.467,0,0,0,0,2.467V34.533A2.467,2.467,0,0,0,2.467,37Zm17.267-1.233H2.467a1.233,1.233,0,0,1-1.233-1.233v-.96a2.441,2.441,0,0,0,1.233.343H19.733a2.441,2.441,0,0,0,1.233-.343v.96A1.233,1.233,0,0,1,19.733,35.767ZM15.843,1.233l-.791.844a1.233,1.233,0,0,1-.9.39H8.048a1.237,1.237,0,0,1-.9-.39l-.791-.844ZM1.233,2.467A1.233,1.233,0,0,1,2.467,1.233h2.2L6.248,2.921a2.477,2.477,0,0,0,1.8.779h6.105a2.473,2.473,0,0,0,1.8-.779l1.582-1.687h2.2a1.233,1.233,0,0,1,1.233,1.233V31.45a1.233,1.233,0,0,1-1.233,1.233H2.467A1.233,1.233,0,0,1,1.233,31.45Z"/>
                <path id="Shape-17" data-name="Shape" d="M7.4,23.957a1.323,1.323,0,0,0,.617,1.116V25.9a.617.617,0,0,0,0,1.233,1.85,1.85,0,0,0,1.85,1.85h2.467a1.85,1.85,0,0,0,1.85-1.85.617.617,0,0,0,0-1.233v-.826a1.323,1.323,0,0,0,.617-1.116v-.086a4.283,4.283,0,0,1,1.4-3.1A7.406,7.406,0,1,0,3.7,15.417a7.333,7.333,0,0,0,2.292,5.354A4.389,4.389,0,0,1,7.4,23.957Zm5.55,3.176a.617.617,0,0,1-.617.617H9.867a.617.617,0,0,1-.617-.617.617.617,0,1,0,0-1.233v-.617h3.7V25.9a.617.617,0,0,0,0,1.233ZM12.642,16.65a.925.925,0,1,1-.925.925A.925.925,0,0,1,12.642,16.65ZM6.988,10.819a6.1,6.1,0,0,1,4.1-1.569,6.62,6.62,0,0,1,.722.039,6.207,6.207,0,0,1,5.377,5.142,6.136,6.136,0,0,1-1.836,5.451,5.5,5.5,0,0,0-1.788,3.989v.086a.093.093,0,0,1-.092.093H11.717V19.517a2.136,2.136,0,0,0,.925.216A2.158,2.158,0,1,0,11.1,16.069a2.164,2.164,0,1,0-.617,3.448V24.05H8.726a.093.093,0,0,1-.092-.094,5.612,5.612,0,0,0-1.788-4.077,6.113,6.113,0,0,1-1.912-4.462,6.178,6.178,0,0,1,2.055-4.6Zm3.5,6.756a.925.925,0,1,1-.925-.925A.925.925,0,0,1,10.483,17.575Z" fill="#263238"/>
                <path id="Shape-18" data-name="Shape" d="M12.333,30.217H9.867a.617.617,0,1,0,0,1.233h2.467a.617.617,0,0,0,0-1.233Z"/>
              </g>
            </g>
          </g>
        </g>
        <g id="Group_13612" data-name="Group 13612" transform="translate(7 -4)">
          <g id="Rectangle_8762" data-name="Rectangle 8762" transform="translate(253.783 95.749)" fill="#fff" stroke="#263238" stroke-width="1">
            <rect width="40" height="34" rx="4" stroke="none"/>
            <rect x="0.5" y="0.5" width="39" height="33" rx="3.5" fill="none"/>
          </g>
          <g id="Mask_Group_145" data-name="Mask Group 145" transform="translate(259.24 100.79)" clip-path="url(#clip-path-4)">
            <g id="Page-1-2" data-name="Page-1" transform="translate(2.321 0.006)">
              <g id="_006---Web-Idea" data-name="006---Web-Idea">
                <path id="Shape-19" data-name="Shape" d="M24.495,1.36V3.838H.533V1.36A.829.829,0,0,1,1.36.533H23.668A.829.829,0,0,1,24.495,1.36Z" transform="translate(-0.12 -0.12)" fill="#428ef3"/>
                <path id="Shape-20" data-name="Shape" d="M30.039.533H28.8a.829.829,0,0,1,.826.826V3.838h1.239V1.36A.829.829,0,0,0,30.039.533Z" transform="translate(-6.491 -0.12)" fill="#37474f"/>
                <path id="Shape-21" data-name="Shape" d="M24.495,4.8V20.5a.829.829,0,0,1-.826.826H1.36A.829.829,0,0,1,.533,20.5V4.8Z" transform="translate(-0.12 -1.082)" fill="#f5f5f5"/>
                <path id="Shape-22" data-name="Shape" d="M29.626,4.8V20.5a.829.829,0,0,1-.826.826h1.239a.829.829,0,0,0,.826-.826V4.8Z" transform="translate(-6.491 -1.082)" fill="#cfd8dc"/>
                <path id="Shape-23" data-name="Shape" d="M20.393,14.2c0,4.532-4.131,4.755-4.131,7.023H12.131C12.131,18.952,8,18.728,8,14.2A6.065,6.065,0,0,1,14.2,8a6.065,6.065,0,0,1,6.2,6.2Z" transform="translate(-1.803 -1.803)" fill="#b7d4fb"/>
                <path id="Shape-24" data-name="Shape" d="M15.82,8c-.211,0-.417.012-.62.03A6.051,6.051,0,0,1,20.777,14.2c0,4.532-4.131,4.755-4.131,7.023h1.239c0-2.268,4.131-2.491,4.131-7.023A6.065,6.065,0,0,0,15.82,8Z" transform="translate(-3.426 -1.803)" fill="#428ef3"/>
                <rect id="Rectangle-path" width="4.957" height="2.066" rx="0.533" transform="translate(9.915 19.417)" fill="#02a9f4"/>
                <path id="Shape-25" data-name="Shape" d="M18.306,25.067H17.067a.413.413,0,0,1,.413.413v1.239a.413.413,0,0,1-.413.413h1.239a.413.413,0,0,0,.413-.413V25.48A.413.413,0,0,0,18.306,25.067Z" transform="translate(-3.847 -5.65)" fill="#0377bc"/>
                <path id="Shape-26" data-name="Shape" d="M17.465,27.733v1.653a1.239,1.239,0,0,1-1.239,1.239H14.573a1.239,1.239,0,0,1-1.239-1.239V27.733Z" transform="translate(-3.005 -6.251)" fill="#7f8e94"/>
                <path id="Shape-27" data-name="Shape" d="M16.706,27.733v1.653a1.239,1.239,0,0,1-1.239,1.239h1.239a1.239,1.239,0,0,0,1.239-1.239V27.733Z" transform="translate(-3.486 -6.251)" fill="#545c60"/>
                <circle id="Oval-3" data-name="Oval" cx="0.826" cy="0.826" r="0.826" transform="translate(9.915 13.22)" fill="#a0c6f9"/>
                <circle id="Oval-4" data-name="Oval" cx="0.826" cy="0.826" r="0.826" transform="translate(13.22 13.22)" fill="#a0c6f9"/>
                <circle id="Oval-5" data-name="Oval" cx="0.413" cy="0.413" r="0.413" transform="translate(1.652 1.652)" fill="#f44335"/>
                <circle id="Oval-6" data-name="Oval" cx="0.413" cy="0.413" r="0.413" transform="translate(3.305 1.652)" fill="#ffdc00"/>
                <circle id="Oval-7" data-name="Oval" cx="0.413" cy="0.413" r="0.413" transform="translate(4.957 1.652)" fill="#60a917"/>
                <path id="Shape-28" data-name="Shape" d="M14.813,10.488a.413.413,0,0,1-.063-.821A5.835,5.835,0,0,1,15.64,9.6a.413.413,0,1,1,0,.826,4.926,4.926,0,0,0-.763.057.47.47,0,0,1-.063,0Z" transform="translate(-3.246 -2.164)" fill="#f5f5f5"/>
                <path id="Shape-29" data-name="Shape" d="M10.013,15.16a.413.413,0,0,1-.413-.413,4.966,4.966,0,0,1,2.262-4.235.413.413,0,1,1,.434.7,4.135,4.135,0,0,0-1.869,3.533.413.413,0,0,1-.413.413Z" transform="translate(-2.164 -2.353)" fill="#f5f5f5"/>
                <g id="Group_13610" data-name="Group 13610">
                  <path id="Shape-30" data-name="Shape" d="M23.548,0H1.239A1.239,1.239,0,0,0,0,1.239V19.417a1.239,1.239,0,0,0,1.239,1.239H9.5v.413a.823.823,0,0,0,.413.711v1.354a1.652,1.652,0,0,0,1.652,1.653H13.22a1.652,1.652,0,0,0,1.652-1.653V21.781a.823.823,0,0,0,.413-.711v-.413h8.262a1.239,1.239,0,0,0,1.239-1.239V1.239A1.239,1.239,0,0,0,23.548,0ZM1.239.826H23.548a.413.413,0,0,1,.413.413V3.3H.826V1.239A.413.413,0,0,1,1.239.826Zm9.089,19h4.131v1.239H10.328ZM14.085,19h-.452V15.21a1.225,1.225,0,0,0,.413.076,1.239,1.239,0,1,0-1.239-1.239V19h-.826V14.046a1.239,1.239,0,1,0-1.239,1.239,1.225,1.225,0,0,0,.413-.076V19H10.7a3.961,3.961,0,0,0-1.65-2.121A5.3,5.3,0,0,1,6.61,12.394,5.657,5.657,0,0,1,12.394,6.61a5.657,5.657,0,0,1,5.784,5.784,5.3,5.3,0,0,1-2.443,4.489A3.961,3.961,0,0,0,14.085,19Zm-.452-4.958a.413.413,0,1,1,.413.413A.413.413,0,0,1,13.633,14.046Zm-2.479,0a.413.413,0,1,1-.413-.413A.413.413,0,0,1,11.154,14.046Zm2.892,9.089a.826.826,0,0,1-.826.826H11.567a.826.826,0,0,1-.826-.826V21.9h3.3Zm9.5-3.3H15.286a.826.826,0,0,0-.381-.694c.133-.6.683-1.058,1.358-1.618A6.065,6.065,0,0,0,19,12.394a6.465,6.465,0,0,0-6.61-6.61,6.465,6.465,0,0,0-6.61,6.61,6.059,6.059,0,0,0,2.741,5.123c.675.56,1.225,1.019,1.358,1.618a.826.826,0,0,0-.381.7H1.239a.413.413,0,0,1-.413-.413V4.131H23.961V19.417a.413.413,0,0,1-.413.413Z" fill="#263238"/>
                  <path id="Shape-31" data-name="Shape" d="M28.146,2.96h.826a.413.413,0,1,0,0-.826h-.826a.413.413,0,0,0,0,.826Z" transform="translate(-6.251 -0.481)" fill="#fff"/>
                  <path id="Shape-32" data-name="Shape" d="M18.546,2.96H24.33a.413.413,0,1,0,0-.826H18.546a.413.413,0,1,0,0,.826Z" transform="translate(-4.087 -0.481)" fill="#fff"/>
                  <path id="Shape-33" data-name="Shape" d="M6.537,10.009l-1.074-.62a.413.413,0,0,0-.413.716l1.074.62a.413.413,0,1,0,.413-.716Z" transform="translate(-1.092 -2.104)" fill="#263238"/>
                  <path id="Shape-34" data-name="Shape" d="M5.266,15.88a.413.413,0,0,0-.413-.413H3.613a.413.413,0,0,0,0,.826H4.852A.413.413,0,0,0,5.266,15.88Z" transform="translate(-0.721 -3.486)" fill="#263238"/>
                  <path id="Shape-35" data-name="Shape" d="M6.123,20.855l-1.074.62a.413.413,0,1,0,.413.716l1.074-.62a.413.413,0,1,0-.413-.716Z" transform="translate(-1.091 -4.688)" fill="#263238"/>
                  <path id="Shape-36" data-name="Shape" d="M26.4,21.475l-1.074-.62a.413.413,0,1,0-.413.716l1.074.62a.413.413,0,0,0,.413-.716Z" transform="translate(-5.567 -4.688)" fill="#263238"/>
                  <path id="Shape-37" data-name="Shape" d="M27.786,15.467H26.546a.413.413,0,0,0,0,.826h1.239a.413.413,0,1,0,0-.826Z" transform="translate(-5.89 -3.486)" fill="#263238"/>
                  <path id="Shape-38" data-name="Shape" d="M25.118,10.78a.41.41,0,0,0,.207-.055L26.4,10.1a.413.413,0,0,0-.413-.716l-1.074.62a.413.413,0,0,0,.207.771Z" transform="translate(-5.568 -2.104)" fill="#263238"/>
                </g>
              </g>
            </g>
          </g>
        </g>
      </g>
      <g id="freepik--graphics-1--inject-1--inject-260">
        <path id="Path_17428" data-name="Path 17428" d="M162.128,86.277h81.064a7.273,7.273,0,0,1,7.273,7.273v56.193H154.888V93.55a7.273,7.273,0,0,1,7.24-7.273Z" transform="translate(-6)" fill="#428ef3" stroke="#263238" stroke-linecap="round" stroke-linejoin="round" stroke-width="1.126"/>
        <rect id="Rectangle_8754" data-name="Rectangle 8754" width="95.532" height="9.03" transform="translate(148.888 140.68)" fill="#263238" stroke="#263238" stroke-linecap="round" stroke-linejoin="round" stroke-width="1.126"/>
        <rect id="Rectangle_8755" data-name="Rectangle 8755" width="86.783" height="2.86" transform="translate(153.268 143.765)" fill="#fff" stroke="#263238" stroke-linecap="round" stroke-linejoin="round" stroke-width="1.126"/>
        <circle id="Ellipse_963" data-name="Ellipse 963" cx="13.195" cy="13.195" r="13.195" transform="translate(183.464 101.882)" fill="#263238" stroke="#263238" stroke-linecap="round" stroke-linejoin="round" stroke-width="1.126"/>
        <path id="Path_17429" data-name="Path 17429" d="M196.7,106.869l14.242,8.219L196.7,123.307Z" transform="translate(-6)" fill="#fff" stroke="#263238" stroke-linecap="round" stroke-linejoin="round" stroke-width="1.126"/>
        <circle id="Ellipse_964" data-name="Ellipse 964" cx="20.908" cy="20.908" r="20.908" transform="translate(163.809 239.246) rotate(-9.27)" fill="#263238" stroke="#263238" stroke-linecap="round" stroke-linejoin="round" stroke-width="1.126"/>
        <circle id="Ellipse_965" data-name="Ellipse 965" cx="17.643" cy="17.643" r="17.643" transform="matrix(0.66, -0.751, 0.751, 0.66, 162.918, 258.151)" fill="#fff" stroke="#263238" stroke-linecap="round" stroke-linejoin="round" stroke-width="1.126"/>
        <path id="Path_17431" data-name="Path 17431" d="M187.821,243.755v12.756h8.624" fill="none" stroke="#263238" stroke-linecap="round" stroke-linejoin="round" stroke-width="2.252"/>
      </g>
      <g id="freepik--Character--inject-1--inject-260">
        <path id="Path_17432" data-name="Path 17432" d="M318.626,256.556s11.991,25.591,11.991,26.942-10.64,7.138-12.666,8.354a49.228,49.228,0,0,1-4.853,2.421l1.216,11.856s18.318-4.177,26-8.354,7.408-8.895,5.629-15.9-13.612-34.069-13.612-34.069Z" fill="#fff"/>
        <g id="Group_13599" data-name="Group 13599" clip-path="url(#clip-path-5)">
          <path id="Path_17433" data-name="Path 17433" d="M340.277,297.775c7.679-4.177,7.408-8.895,5.629-15.9s-13.612-34.069-13.612-34.069l-1.914,1.216-.608,1.126s11.045,27.111,11.709,36.141c.45,6.069-11.766,13.634-19.838,17.958C327.633,302.661,335.785,300.218,340.277,297.775Z" fill="#428ef3" opacity="0.5"/>
        </g>
        <path id="Path_17435" data-name="Path 17435" d="M318.626,256.556s11.991,25.591,11.991,26.942-10.64,7.138-12.666,8.354a49.228,49.228,0,0,1-4.853,2.421l1.216,11.856s18.318-4.177,26-8.354,7.408-8.895,5.629-15.9-13.612-34.069-13.612-34.069Z" fill="none" stroke="#263238" stroke-linecap="round" stroke-linejoin="round" stroke-width="1.126"/>
        <path id="Path_17436" data-name="Path 17436" d="M232.113,250.9s-8.748,32.054-9.007,37.717,17.372,16.832,18.014,17.508-1-19.478-1-19.478l5.978-29.273Z" fill="#fff"/>
        <g id="Group_13600" data-name="Group 13600" clip-path="url(#clip-path-6)">
          <path id="Path_17437" data-name="Path 17437" d="M236.121,253.527l-.191-.867-3.817-1.756s-8.748,32.054-9.007,37.717,17.372,16.832,18.014,17.508c.259.27.158-2.747-.056-6.474-5.247-4.447-12.779-10.707-13.657-13.342" fill="#428ef3" opacity="0.5"/>
        </g>
        <path id="Path_17439" data-name="Path 17439" d="M232.113,250.9s-8.748,32.054-9.007,37.717,17.372,16.832,18.014,17.508-1-19.478-1-19.478l5.978-29.273Z" fill="none" stroke="#263238" stroke-linecap="round" stroke-linejoin="round" stroke-width="1.126"/>
        <path id="Path_17440" data-name="Path 17440" d="M273.2,218.7s-3.378,2.432-9.964,2.7-6.9-4.5-15.087-4.5c-9.919,0-22.36,31.378-22.36,31.378s6.192,6.069,12.261,8.624a43.48,43.48,0,0,0,10.5,3.1l.946,20.615h66.81l.8-20.615,20.885-13.544s-10.246-18.318-15.222-25.186-13.342-4.312-15.9-2.567-10.133,2.162-12.925,1.756a111.633,111.633,0,0,1-10.786-2.961S278.86,213.919,273.2,218.7Z" fill="#428ef3" stroke="#263238" stroke-linecap="round" stroke-linejoin="round" stroke-width="1.126"/>
        <line id="Line_318" data-name="Line 318" x1="0.27" y2="34.216" transform="translate(248.956 225.977)" fill="none" stroke="#263238" stroke-linecap="round" stroke-linejoin="round" stroke-width="0.563"/>
        <path id="Path_17441" data-name="Path 17441" d="M251.647,229.084s.946,16.7,4.5,26" fill="none" stroke="#263238" stroke-linecap="round" stroke-linejoin="round" stroke-width="0.563"/>
        <path id="Path_17442" data-name="Path 17442" d="M256.77,256.421a45.928,45.928,0,0,0,2.826,6.6" fill="none" stroke="#263238" stroke-linecap="round" stroke-linejoin="round" stroke-width="0.563"/>
        <path id="Path_17443" data-name="Path 17443" d="M253.8,227.193a106.862,106.862,0,0,0,5.393,17.778" fill="none" stroke="#263238" stroke-linecap="round" stroke-linejoin="round" stroke-width="0.563"/>
        <path id="Path_17444" data-name="Path 17444" d="M311.871,230.154s-3.231,13.207-6.069,19.14" fill="none" stroke="#263238" stroke-linecap="round" stroke-linejoin="round" stroke-width="0.563"/>
        <line id="Line_319" data-name="Line 319" x1="0.135" y1="26.672" transform="translate(316.971 233.385)" fill="none" stroke="#263238" stroke-linecap="round" stroke-linejoin="round" stroke-width="0.563"/>
        <path id="Path_17445" data-name="Path 17445" d="M315.631,233.926s-2.432,16.888-8.354,25.727" fill="none" stroke="#263238" stroke-linecap="round" stroke-linejoin="round" stroke-width="0.563"/>
        <path id="Path_17446" data-name="Path 17446" d="M312.67,256.286s-2.7,5.123-4.582,7.814" fill="none" stroke="#263238" stroke-linecap="round" stroke-linejoin="round" stroke-width="0.563"/>
        <path id="Path_17447" data-name="Path 17447" d="M269.425,220.73s1.891,11.585,4.582,17.508,7.408,7.138,11.45,5.393,7-10.381,6.755-21.392" fill="none" stroke="#263238" stroke-linecap="round" stroke-linejoin="round" stroke-width="0.563"/>
        <path id="Path_17448" data-name="Path 17448" d="M259.866,196.479s-2.567-4.436-4.582-2.15,1.621,7.543,3.637,9.289,3.5.676,3.378-1.2S259.866,196.479,259.866,196.479Z" fill="#428ef3" stroke="#263238" stroke-linecap="round" stroke-linejoin="round" stroke-width="1.126"/>
        <path id="Path_17449" data-name="Path 17449" d="M259.866,196.479s-2.567-4.436-4.582-2.15,1.621,7.543,3.637,9.289,3.5.676,3.378-1.2S259.866,196.479,259.866,196.479Z" fill="#fff" opacity="0.5"/>
        <path id="Path_17450" data-name="Path 17450" d="M259.866,196.479s-2.567-4.436-4.582-2.15,1.621,7.543,3.637,9.289,3.5.676,3.378-1.2S259.866,196.479,259.866,196.479Z" fill="none" stroke="#263238" stroke-linecap="round" stroke-linejoin="round" stroke-width="1.126"/>
        <path id="Path_17451" data-name="Path 17451" d="M300.612,196.479s2.556-4.436,4.582-2.15-1.621,7.543-3.637,9.289-3.513.676-3.378-1.2S300.612,196.479,300.612,196.479Z" fill="#428ef3" stroke="#263238" stroke-linecap="round" stroke-linejoin="round" stroke-width="1.126"/>
        <path id="Path_17452" data-name="Path 17452" d="M300.612,196.479s2.556-4.436,4.582-2.15-1.621,7.543-3.637,9.289-3.513.676-3.378-1.2S300.612,196.479,300.612,196.479Z" fill="#fff" opacity="0.5"/>
        <path id="Path_17453" data-name="Path 17453" d="M300.612,196.479s2.556-4.436,4.582-2.15-1.621,7.543-3.637,9.289-3.513.676-3.378-1.2S300.612,196.479,300.612,196.479Z" fill="none" stroke="#263238" stroke-linecap="round" stroke-linejoin="round" stroke-width="1.126"/>
        <path id="Path_17454" data-name="Path 17454" d="M271.981,217.769a145.071,145.071,0,0,0,4.853,16.967c2.432,6.057,7,6.057,8.895,2.15s3.1-18.465,3.1-18.465S276.158,220.19,271.981,217.769Z" fill="#fff" stroke="#263238" stroke-linecap="round" stroke-linejoin="round" stroke-width="1.126"/>
        <path id="Path_17455" data-name="Path 17455" d="M260.136,197.965s3.5,12.385,10.133,19.669,9.007,9.007,12.531,8.478,7.273-5.112,12.52-14.637,5.629-16.832,6.069-17.508-1.126-14.141-8.624-19.939-15.9-8.343-23.171-2.015S257.7,188.665,260.136,197.965Z" fill="#fff"/>
        <g id="Group_13601" data-name="Group 13601" clip-path="url(#clip-path-7)">
          <path id="Path_17456" data-name="Path 17456" d="M292.731,173.983c-7.543-5.787-15.9-8.343-23.171-2.015s-11.856,16.7-9.424,26a57.792,57.792,0,0,0,1.982,5.629,4.256,4.256,0,0,1,.169-1.227c1.61-5.1,6.361-14.974,22.349-10.448,12.7,3.58,11.146,14.749,9.964,20.705l.687-1.238c5.258-9.559,5.629-16.832,6.069-17.508S300.274,179.782,292.731,173.983Z" fill="#428ef3" opacity="0.5"/>
        </g>
        <path id="Path_17458" data-name="Path 17458" d="M260.136,197.965s3.5,12.385,10.133,19.669,9.007,9.007,12.531,8.478,7.273-5.112,12.52-14.637,5.629-16.832,6.069-17.508-1.126-14.141-8.624-19.939-15.9-8.343-23.171-2.015S257.7,188.665,260.136,197.965Z" fill="none" stroke="#263238" stroke-linecap="round" stroke-linejoin="round" stroke-width="1.126"/>
        <path id="Path_17459" data-name="Path 17459" d="M282.767,204.427a54.911,54.911,0,0,0-.676,7.949c.135,2.691.946,3.5-.27,3.772s-2.556-1.621-2.556-1.621" fill="none" stroke="#263238" stroke-linecap="round" stroke-linejoin="round" stroke-width="1.126"/>
        <path id="Path_17460" data-name="Path 17460" d="M269.29,206.589a4.774,4.774,0,0,0,5.393.135" fill="none" stroke="#263238" stroke-linecap="round" stroke-linejoin="round" stroke-width="1.126"/>
        <path id="Path_17461" data-name="Path 17461" d="M286.4,206.589a4.763,4.763,0,0,0,5.382.135" fill="none" stroke="#263238" stroke-linecap="round" stroke-linejoin="round" stroke-width="1.126"/>
        <path id="Path_17462" data-name="Path 17462" d="M277.892,202.052s-2.567-6.339-11.045-3.378" fill="none" stroke="#263238" stroke-linecap="round" stroke-linejoin="round" stroke-width="1.126"/>
        <path id="Path_17463" data-name="Path 17463" d="M284.951,201.275s2.15-6.2,9.829-2.567" fill="none" stroke="#263238" stroke-linecap="round" stroke-linejoin="round" stroke-width="1.126"/>
        <path id="Path_17464" data-name="Path 17464" d="M279.524,207.051c0,3.468-3.974,6.271-8.883,6.271s-8.895-2.8-8.895-6.271,3.715-4.909,8.624-4.909S279.524,203.594,279.524,207.051Z" fill="none" stroke="#263238" stroke-linecap="round" stroke-linejoin="round" stroke-width="1.126"/>
        <path id="Path_17465" data-name="Path 17465" d="M300,207.051c0,3.468-3.986,6.271-8.895,6.271s-8.883-2.8-8.883-6.271,3.7-4.909,8.613-4.909S300,203.594,300,207.051Z" fill="none" stroke="#263238" stroke-linecap="round" stroke-linejoin="round" stroke-width="1.126"/>
        <path id="Path_17466" data-name="Path 17466" d="M186.481,315.057l-.552,136.491a1.621,1.621,0,0,0,1.621,1.621h0a1.61,1.61,0,0,0,1.61-1.565l3.9-136.356Z" fill="#fff" stroke="#263238" stroke-linecap="round" stroke-linejoin="round" stroke-width="1.126"/>
        <path id="Path_17467" data-name="Path 17467" d="M177.293,346.965l-.529,141.107a1.61,1.61,0,0,0,1.621,1.621h0a1.621,1.621,0,0,0,1.621-1.554l3.884-140.995Z" fill="#fff" stroke="#263238" stroke-linecap="round" stroke-linejoin="round" stroke-width="1.126"/>
        <path id="Path_17468" data-name="Path 17468" d="M375.179,315.057l.552,136.491a1.61,1.61,0,0,1-1.61,1.621h0A1.621,1.621,0,0,1,372.5,451.6l-3.884-136.356Z" fill="#fff" stroke="#263238" stroke-linecap="round" stroke-linejoin="round" stroke-width="1.126"/>
        <path id="Path_17469" data-name="Path 17469" d="M384.378,346.965l.552,141.107a1.61,1.61,0,0,1-1.621,1.621h0a1.61,1.61,0,0,1-1.61-1.554l-3.9-140.995Z" fill="#fff" stroke="#263238" stroke-linecap="round" stroke-linejoin="round" stroke-width="1.126"/>
        <path id="Path_17470" data-name="Path 17470" d="M241.266,352.831l-.327,125.244a1.216,1.216,0,0,0,1.025,1.34h0A1.2,1.2,0,0,0,243,478.131l2.443-125.154Z" fill="#fff" stroke="#263238" stroke-linecap="round" stroke-linejoin="round" stroke-width="1.126"/>
        <path id="Path_17471" data-name="Path 17471" d="M320.54,348.8l.3,109.3a1.036,1.036,0,0,1-.878,1.126h0a1.025,1.025,0,0,1-.867-1.126L317.016,348.89Z" fill="#fff" stroke="#263238" stroke-linecap="round" stroke-linejoin="round" stroke-width="1.126"/>
        <path id="Path_17472" data-name="Path 17472" d="M240.039,348.8l.3,109.3a1.036,1.036,0,0,1-.878,1.126h0a1.025,1.025,0,0,1-.867-1.126L236.515,348.89Z" fill="#fff" stroke="#263238" stroke-linecap="round" stroke-linejoin="round" stroke-width="1.126"/>
        <path id="Path_17473" data-name="Path 17473" d="M318.277,352.831l.349,125.244a1.216,1.216,0,0,1-1.025,1.34h0a1.216,1.216,0,0,1-1.036-1.284l-2.443-125.154Z" fill="#fff" stroke="#263238" stroke-linecap="round" stroke-linejoin="round" stroke-width="1.126"/>
        <ellipse id="Ellipse_966" data-name="Ellipse 966" cx="50.102" cy="11.45" rx="50.102" ry="11.45" transform="translate(229.118 338.701)" fill="#fff" stroke="#263238" stroke-linecap="round" stroke-linejoin="round" stroke-width="1.126"/>
        <path id="Path_17474" data-name="Path 17474" d="M254.822,447.349s-2.623,3.76-.743,5.629,3.749,1.126,3.558,3.006-3.186,8.253-5.81,15.008,2.815,13.511,7.881,11.642,4.5-20.649,5.247-24.026,1.317-3.941,1.126-7.127-.372-6.564-2.815-6.947S255.948,446.043,254.822,447.349Z" fill="#fff" stroke="#263238" stroke-linecap="round" stroke-linejoin="round" stroke-width="1.126"/>
        <path id="Path_17475" data-name="Path 17475" d="M262.872,477.455c-3.378-1.284-8.557-1.025-11.473-.732.98,4.245,4.729,7.228,8.309,5.911C261.206,482.082,262.185,480.078,262.872,477.455Z" fill="#428ef3" stroke="#263238" stroke-linecap="round" stroke-linejoin="round" stroke-width="1.126"/>
        <path id="Path_17476" data-name="Path 17476" d="M249.013,439.1s5.438,9.2,6.935,11.63,6.575,1.689,7.138-1.689-2.072-12.756-2.072-12.756L249.756,439.1Z" fill="#fff" stroke="#263238" stroke-linecap="round" stroke-linejoin="round" stroke-width="1.126"/>
        <path id="Path_17477" data-name="Path 17477" d="M236.065,424.46s-1.509,2.443-.754,4.132,2.815,6.564,4.132,9.007,7.318,3.941,14.254,2.815,10.887-4.323,11.079-7.138-1.126-6.564-2.072-11.067-3.378-4.312-6.755-4.312S238.88,421.836,236.065,424.46Z" fill="#428ef3" stroke="#263238" stroke-linecap="round" stroke-linejoin="round" stroke-width="1.126"/>
        <path id="Path_17478" data-name="Path 17478" d="M256.331,369.291c.1-4.616,2.77-6.89,2.972-10.054a39.79,39.79,0,0,0-1.025-12.464l-5.134-7.014c-14.772.191-25.355.439-25.524.5-.563.18-.946,3.378-1.317,6,0,0-6.271.8-5.145,18.251.158,2.432,6.485,30.568,6.947,33.777,2.815,19.6,9.086,29.419,9.086,29.419s.563,2.443,7.881,1.88,14.637-5.438,14.637-5.438S255.948,385.988,256.331,369.291Z" fill="#263238" stroke="#263238" stroke-linecap="round" stroke-linejoin="round" stroke-width="1.126"/>
        <path id="Path_17479" data-name="Path 17479" d="M225.29,343.4s-7.757,1.126-12.509,6.553-.721,9.007,8.512,8.039,19.883-10.414,20.334-10.921S232,340.142,225.29,343.4Z" fill="#fff" stroke="#263238" stroke-linecap="round" stroke-linejoin="round" stroke-width="1.126"/>
        <path id="Path_17480" data-name="Path 17480" d="M239.06,346.773a73.26,73.26,0,0,1,14.637,2.252c6.384,1.88,17.643,5.629,20.266,5.629s1.88-9.761,1.88-11.63-33.777-3.006-37.909-3.006S239.06,346.773,239.06,346.773Z" fill="#fff" stroke="#263238" stroke-linecap="round" stroke-linejoin="round" stroke-width="1.126"/>
        <path id="Path_17481" data-name="Path 17481" d="M275.842,343.024s-3.006,1.5-4.132,7.127-2.623,8.636-.372,10.133,12.013,2.623,13.511,1.126,5.629-9.007,6.384-13.882S275.842,343.024,275.842,343.024Z" fill="#428ef3" stroke="#263238" stroke-linecap="round" stroke-linejoin="round" stroke-width="1.126"/>
        <path id="Path_17482" data-name="Path 17482" d="M288.6,344.893a23.52,23.52,0,0,0-4.121,6.755,62.782,62.782,0,0,0-1.88,7.881,73.237,73.237,0,0,1,10.5,3.76c6.012,2.623,16.145,4.5,25.9,6.755s12.385,4.5,15.762,4.5,7.51-2.635,12.768-9.007.743-19.894-4.5-24.026-33.405-7.5-37.154-6.373S288.6,344.893,288.6,344.893Z" fill="#263238" stroke="#263238" stroke-linecap="round" stroke-linejoin="round" stroke-width="1.126"/>
        <path id="Path_17483" data-name="Path 17483" d="M218.186,358.088a22.619,22.619,0,0,0-4.391-9.221c-.349.327-.687.664-1.013,1.036C208.6,354.655,211.216,358.032,218.186,358.088Z" fill="#428ef3" stroke="#263238" stroke-linecap="round" stroke-linejoin="round" stroke-width="1.126"/>
        <path id="Path_17484" data-name="Path 17484" d="M255.757,361.061s-3.873,41.444-11.777,47.9" fill="none" stroke="#fff" stroke-linecap="round" stroke-linejoin="round" stroke-width="0.563"/>
        <path id="Path_17485" data-name="Path 17485" d="M253.021,400.4s-3.074,13.511-11.135,18.881" fill="none" stroke="#fff" stroke-linecap="round" stroke-linejoin="round" stroke-width="0.563"/>
        <path id="Path_17486" data-name="Path 17486" d="M302.864,353.529s-12.013.754-4.132,6,22.146,8.636,22.146,8.636" fill="none" stroke="#fff" stroke-linecap="round" stroke-linejoin="round" stroke-width="0.563"/>
        <path id="Path_17487" data-name="Path 17487" d="M390.075,339.331l-4.053-3.648-9.367-20.266a5.393,5.393,0,0,0-4.909-3.051H189.8a5.393,5.393,0,0,0-4.92,3.051L173.207,340.66l-1.925-.709v5.776l.09-.068a3.209,3.209,0,0,0,3.231,2.736H386.934a3.164,3.164,0,0,0,3.231-2.984Z" fill="#263238" stroke="#263238" stroke-linecap="round" stroke-linejoin="round" stroke-width="1.126"/>
        <path id="Path_17488" data-name="Path 17488" d="M386.934,343.114H174.6a3.107,3.107,0,0,1-2.972-4.346l13.252-28.631a5.371,5.371,0,0,1,4.92-3.051H371.745a5.37,5.37,0,0,1,4.909,3.051l13.252,28.631a3.107,3.107,0,0,1-2.972,4.346Z" fill="#fff" stroke="#263238" stroke-linecap="round" stroke-linejoin="round" stroke-width="1.126"/>
        <path id="Path_17489" data-name="Path 17489" d="M185.355,323.884s-4.808,3.3-1.8,4.5,37.56.3,41.77-.9,9.007-12.317,9.007-14.119-6.057-3.1-8.287-3.2-31.682,1.689-31.682,1.689Z" fill="#428ef3" opacity="0.5"/>
        <ellipse id="Ellipse_967" data-name="Ellipse 967" cx="12.317" cy="5.112" rx="12.317" ry="5.112" transform="translate(344.916 319.369)" fill="#428ef3" opacity="0.5"/>
        <ellipse id="Ellipse_968" data-name="Ellipse 968" cx="44.169" cy="8.264" rx="44.169" ry="8.264" transform="translate(234.646 319.38)" fill="#428ef3" opacity="0.5"/>
        <path id="Path_17490" data-name="Path 17490" d="M348.226,304.372s-.811-3.231-3.5-2.15-2.421,8.219-1.892,12.261,4.177,2.15,4.177,2.15v-2.421s-1.34,1.07-2.015-.405-.54-8.895.135-8.759,2.015,2.421,2.015,2.421S347.55,307.21,348.226,304.372Z" fill="#428ef3" stroke="#263238" stroke-linecap="round" stroke-linejoin="round" stroke-width="1.126"/>
        <path id="Path_17491" data-name="Path 17491" d="M346.289,304.913v17.7c0,2.083,4.785,3.772,10.7,3.772s10.685-1.689,10.685-3.772v-17.7Z" fill="#428ef3" stroke="#263238" stroke-linecap="round" stroke-linejoin="round" stroke-width="1.126"/>
        <path id="Path_17492" data-name="Path 17492" d="M367.67,304.913c0,1.8-4.785,3.254-10.685,3.254s-10.7-1.452-10.7-3.254,4.785-3.254,10.7-3.254S367.67,303.123,367.67,304.913Z" fill="#fff" stroke="#263238" stroke-linecap="round" stroke-linejoin="round" stroke-width="1.126"/>
        <path id="Path_17493" data-name="Path 17493" d="M366.274,304.913c0,1.565-4.166,2.826-9.289,2.826s-9.3-1.261-9.3-2.826,4.166-2.826,9.3-2.826S366.274,303.348,366.274,304.913Z" fill="#fff" stroke="#263238" stroke-linecap="round" stroke-linejoin="round" stroke-width="1.126"/>
        <path id="Path_17494" data-name="Path 17494" d="M349.813,306.714a25.58,25.58,0,0,0,14.333,0,25.58,25.58,0,0,0-14.333,0Z" fill="#263238" stroke="#263238" stroke-linecap="round" stroke-linejoin="round" stroke-width="1.126"/>
        <path id="Path_17495" data-name="Path 17495" d="M184.026,313l.135,6.057,40.813.405v-7Z" fill="#fff" stroke="#263238" stroke-linecap="round" stroke-linejoin="round" stroke-width="1.126"/>
        <path id="Path_17496" data-name="Path 17496" d="M224.975,319.459l5.933-12.79V302.9l-6.2,10.775Z" fill="#fff" stroke="#263238" stroke-linecap="round" stroke-linejoin="round" stroke-width="1.126"/>
        <path id="Path_17497" data-name="Path 17497" d="M184.026,318.514l.135,6.069,40.813.405v-7Z" fill="#fff" stroke="#263238" stroke-linecap="round" stroke-linejoin="round" stroke-width="1.126"/>
        <path id="Path_17498" data-name="Path 17498" d="M224.975,324.987l5.933-12.8v-3.772l-6.2,10.775Z" fill="#fff" stroke="#263238" stroke-linecap="round" stroke-linejoin="round" stroke-width="1.126"/>
        <path id="Path_17499" data-name="Path 17499" d="M199.789,297.64s.946-1.88-.405-2.691-2.826,1.126-3.637,1.745-17.778,11.856-18.318,13.612,0,5.629,3.637,6.057,6.868-2.015,8.489-2.421,2.252-.54,2.252-.54l11.18-15.087Z" fill="#fff" stroke="#263238" stroke-linecap="round" stroke-linejoin="round" stroke-width="1.126"/>
        <path id="Path_17500" data-name="Path 17500" d="M181.065,316.374c3.637.405,6.868-2.015,8.489-2.421s2.252-.54,2.252-.54l.405-.552-10.5-2.139a3.524,3.524,0,0,0-4.312-.405C176.888,312.051,177.429,315.958,181.065,316.374Z" fill="#fff" stroke="#263238" stroke-linecap="round" stroke-linejoin="round" stroke-width="1.126"/>
        <path id="Path_17501" data-name="Path 17501" d="M181.741,310.745h31.525c9.84,0,12.8-.54,12.8-.54l6.057-12.531s-19.14,1.216-25.051.811a44.568,44.568,0,0,1-7.273-.811Z" fill="#fff" stroke="#263238" stroke-linecap="round" stroke-linejoin="round" stroke-width="1.126"/>
        <path id="Path_17502" data-name="Path 17502" d="M181.741,310.745l.54,2.421s25.591.135,32.324.135,11.856.27,11.856.27l-.405-3.378Z" fill="#fff" stroke="#263238" stroke-linecap="round" stroke-linejoin="round" stroke-width="1.126"/>
        <path id="Path_17503" data-name="Path 17503" d="M226.461,313.537l5.652-12.936V297.64l-6.057,12.531Z" fill="#fff" stroke="#263238" stroke-linecap="round" stroke-linejoin="round" stroke-width="1.126"/>
        <path id="Path_17504" data-name="Path 17504" d="M317.388,328.669h-77.18a1.295,1.295,0,0,1-1.306-1.295h0a1.295,1.295,0,0,1,1.306-1.295h77.18a1.284,1.284,0,0,1,1.295,1.295h0a1.284,1.284,0,0,1-1.295,1.295Z" fill="#fff" stroke="#263238" stroke-linecap="round" stroke-linejoin="round" stroke-width="1.126"/>
        <path id="Path_17505" data-name="Path 17505" d="M318.041,326.057h-78.5A1.126,1.126,0,0,1,238.418,325l-4.267-51.284a1.126,1.126,0,0,1,1.126-1.261h87.042a1.126,1.126,0,0,1,1.126,1.261L319.178,325A1.126,1.126,0,0,1,318.041,326.057Z" fill="#fff" stroke="#263238" stroke-linecap="round" stroke-linejoin="round" stroke-width="1.126"/>
        <path id="Path_17506" data-name="Path 17506" d="M286.2,300.139c0,3.062-3.321,5.539-7.408,5.539s-7.42-2.477-7.42-5.539,3.321-5.528,7.42-5.528S286.2,297.088,286.2,300.139Z" fill="#fff" stroke="#263238" stroke-linecap="round" stroke-linejoin="round" stroke-width="1.126"/>
        <path id="Path_17507" data-name="Path 17507" d="M362.907,260.08a6.688,6.688,0,0,0,2.4-3.749,6.924,6.924,0,0,0-.079-3.378" fill="none" stroke="#263238" stroke-linecap="round" stroke-linejoin="round" stroke-width="1.126"/>
        <path id="Path_17508" data-name="Path 17508" d="M353.923,300.229s7.487-4.5,5.044-9.649-10.707-8.557-10.707-16.573c0-6.913,7.352-9.469,12.148-12.238" fill="none" stroke="#263238" stroke-linecap="round" stroke-linejoin="round" stroke-width="1.126"/>
        <path id="Path_17509" data-name="Path 17509" d="M360.836,300.083s4.177-2.781,4.177-7.194c0-2.961-3.164-4.9-7.341-9.66" fill="none" stroke="#263238" stroke-linecap="round" stroke-linejoin="round" stroke-width="1.126"/>
        <path id="Path_17510" data-name="Path 17510" d="M355.364,280.346s-2.736-2.15-.721-6.192" fill="none" stroke="#263238" stroke-linecap="round" stroke-linejoin="round" stroke-width="1.126"/>
        <path id="Path_17511" data-name="Path 17511" d="M291.976,162.409c1.34-.281,4.211-1.385,6.147-5.877a.563.563,0,0,0-.293-.743.574.574,0,0,0-.743.293c-1.779,4.121-4.323,5.033-5.382,5.235a12.925,12.925,0,0,0,2.961-8.14c0-7.814-7.239-14.141-16.168-14.141s-16.168,6.327-16.168,14.141a12.925,12.925,0,0,0,2.7,7.881c-1.7-.09-4.571.63-8.208,4.875a.574.574,0,0,0,0,.8.586.586,0,0,0,.372.135.552.552,0,0,0,.428-.2c4.65-5.416,7.724-4.5,8.343-4.256a16.553,16.553,0,0,0-2.939,2.06c-5.19,4.672-8.354,13.511-7.949,20.874a27.145,27.145,0,0,0,5.123,13.511,31.412,31.412,0,0,0,9.153-10.246,86.034,86.034,0,0,0,4.5-9.2c0,3.3.428,7.285,2.162,10.133a14.366,14.366,0,0,0,12.632,7.386,11.9,11.9,0,0,0,2.646-.259.563.563,0,0,0,.36-.281c4.346.923,8.669.844,9.334-.079,1.07-1.475,2.59-6.08,3.1-11.709C305.014,175.053,299,166.766,291.976,162.409ZM277.07,188.856c-2.184-3.569-2.117-9.39-1.858-12.734l.146-.383a22.923,22.923,0,0,0,9.153,17.643,16.494,16.494,0,0,0,4.988,2.331C286.741,195.9,281.067,195.375,277.07,188.856Z" fill="#263238"/>
        <path id="Path_17512" data-name="Path 17512" d="M277.261,171.135s-.923,6.823,7.746,13.511S301.9,188.7,301.9,188.7" fill="none" stroke="#fff" stroke-linecap="round" stroke-linejoin="round" stroke-width="0.563"/>
        <path id="Path_17513" data-name="Path 17513" d="M278.533,168.883s9.131,13.3,21.741,9.829" fill="none" stroke="#fff" stroke-linecap="round" stroke-linejoin="round" stroke-width="0.563"/>
        <path id="Path_17514" data-name="Path 17514" d="M274.018,164.458a8.816,8.816,0,0,0-9.131.7c-4.853,3.231-7.285,10.865-7.285,10.865" fill="none" stroke="#fff" stroke-linecap="round" stroke-linejoin="round" stroke-width="0.563"/>
        <path id="Path_17515" data-name="Path 17515" d="M274.255,168.163s-3.929-1.047-6.361,1.385a15.672,15.672,0,0,0-3.006,3.7" fill="none" stroke="#fff" stroke-linecap="round" stroke-linejoin="round" stroke-width="0.563"/>
      </g>
    </g>
  </g>
</svg>
