<svg xmlns="http://www.w3.org/2000/svg" xmlns:xlink="http://www.w3.org/1999/xlink" width="785" height="436" viewBox="0 0 785 436">
  <defs>
    <clipPath id="clip-path">
      <rect id="Rectangle_7606" data-name="Rectangle 7606" width="785" height="436" transform="translate(247 339)" fill="#fff" stroke="#707070" stroke-width="1"/>
    </clipPath>
  </defs>
  <g id="works" transform="translate(-247 -339)" clip-path="url(#clip-path)">
    <g id="Devices-cuate" transform="translate(218.975 277.256)">
      <g id="freepik--background-complete--inject-244">
        <path id="Path_15418" data-name="Path 15418" d="M137.8,293.694a406.675,406.675,0,0,0-.583-42.961,548.273,548.273,0,0,0-13.457-87.525c-3.757-16.2-8.377-32.128-13.2-48.03-.135-.482-.908-.348-.774.157,14.892,56.07,27.1,113.934,26.263,172.225-.236,16.316-2.119,32.341-3.667,48.545,0,.437.673.606.774.157C136.228,322.391,137.226,307.858,137.8,293.694Z" fill="#ebebeb"/>
        <path id="Path_15419" data-name="Path 15419" d="M109.785,115.336S87.222,172.595,92.28,186.051s15.464,16.328,15.464,16.328-13.8,19.658-4.16,38.195,31.074,17.606,32.521,38.565C136.082,279.139,137.282,191.513,109.785,115.336Z" fill="#ebebeb"/>
        <path id="Path_15420" data-name="Path 15420" d="M133.626,242.951a.415.415,0,0,0,0-.3c-3.162-38.935-10.093-77.747-21.879-115.179,0-.112-.213-.078-.179,0Q118.3,152.6,123.41,177.988a24.94,24.94,0,0,0-10.765-6,.056.056,0,0,0,0,.112c4.172,1.805,8.164,3.891,11.113,7.435.662,3.364,1.312,6.639,1.918,9.958-5.035-5.607-12.033-8.433-19.064-11.091-.09,0-.146.123,0,.157,7.278,2.972,14.578,6.784,19.479,13.064q2.579,14.264,4.486,28.607a27.317,27.317,0,0,0-13.457-7.7c-.157,0-.247.191-.078.235a28.416,28.416,0,0,1,13.636,8.736.269.269,0,0,0,.09.067q.673,5.046,1.267,10.093a34.618,34.618,0,0,0-9.42-5.686.078.078,0,0,0,0,.146,32.419,32.419,0,0,1,9.442,6.246.173.173,0,0,1,.123.056c.37,3.207.751,6.414,1.121,9.622a45.809,45.809,0,0,0-19.131-13.659.123.123,0,0,0-.09.224,50.026,50.026,0,0,1,18.862,14.511.415.415,0,0,0,.471.157q.74,7.39,1.29,14.8c0,.067.112.079.112,0Q134.243,250.532,133.626,242.951Z" fill="#fff"/>
        <path id="Path_15421" data-name="Path 15421" d="M115.5,166.326c-3.914-2.68-8.881-3.835-13.558-4.216a.084.084,0,1,0,0,.168c4.856.718,8.971,2.478,13.4,4.373C115.5,166.741,115.672,166.449,115.5,166.326Z" fill="#fff"/>
        <path id="Path_15422" data-name="Path 15422" d="M118.24,226.96a28.483,28.483,0,0,0-10.171-3.488.1.1,0,1,0,0,.191,38.61,38.61,0,0,1,10.093,3.532.135.135,0,0,0,.078-.235Z" fill="#fff"/>
        <path id="Path_15423" data-name="Path 15423" d="M197.108,186.982a153.454,153.454,0,0,0-26.117,22.832,93.793,93.793,0,0,0-18.312,31.052,232.129,232.129,0,0,0-13.625,74.248,180.232,180.232,0,0,0,4.026,41.772.394.394,0,1,0,.774-.146,234.125,234.125,0,0,1,.415-73.014c3.88-23.684,9.958-49.454,25.018-68.708,8.2-10.485,18.425-18.727,28.528-27.25C198.331,187.341,197.658,186.6,197.108,186.982Z" fill="#ebebeb"/>
        <path id="Path_15424" data-name="Path 15424" d="M142.418,298.079a140.6,140.6,0,0,1,19.064-24.323c11.292-11.281,20.791-19.3,22.26-26.768s-11.3-12.952-11.3-12.952,15.621,2.8,19.894-3.757,6.336-44.508,6.336-44.508-28.416,20.275-41.649,48.714S142.418,298.079,142.418,298.079Z" fill="#ebebeb"/>
        <path id="Path_15425" data-name="Path 15425" d="M188.743,195.494c-11.954,11.741-23.987,24.256-31.029,39.686a151.087,151.087,0,0,0-6.269,16.361h0c-.359,1.121-.729,2.243-1.121,3.364a.482.482,0,0,0-.056.179,322.715,322.715,0,0,0-8.063,35.077c0,.067.09.112.112,0,1.222-5.921,2.568-11.909,4.082-17.864a.448.448,0,0,0,.168,0,24.582,24.582,0,0,1,7.457-1.9c.168,0,.157-.314,0-.3a27.911,27.911,0,0,0-7.379,1.346c1.379-5.383,2.871-10.743,4.553-16.025a79.082,79.082,0,0,1,16.821-2.243v-.1a64.123,64.123,0,0,0-16.507,1.48c.292-.908.594-1.805.9-2.714a86.343,86.343,0,0,1,11.214-1.9c.067,0,.067-.123,0-.123a54.726,54.726,0,0,0-10.978,1.334c1.536-4.575,3.207-9.083,5.069-13.457a80.737,80.737,0,0,1,5.36-10.418,69.237,69.237,0,0,1,9.095-1.615c.09,0,.079-.146,0-.157a24.726,24.726,0,0,0-8.5.841c1.491-2.411,3.061-4.777,4.743-7.065h0c6.37-1.413,12.829-2.725,19.355-1.5a.1.1,0,1,0,0-.191c-6.2-1.637-12.335-.7-18.537.527.673-.9,1.368-1.783,2.063-2.658a42.39,42.39,0,0,1,11.9-1.873.067.067,0,1,0,0-.135,31.085,31.085,0,0,0-11.091.987c5.259-6.538,11.079-12.683,16.821-18.772C189.236,195.381,189.023,195.224,188.743,195.494Z" fill="#fff"/>
        <path id="Path_15426" data-name="Path 15426" d="M188.4,221.375a26.5,26.5,0,0,0-5.607-.2c-.224,0-.213.4,0,.4,1.873,0,3.734-.079,5.607,0a.112.112,0,0,0,0-.2Z" fill="#fff"/>
        <path id="Path_15427" data-name="Path 15427" d="M167.974,258.2a25.557,25.557,0,0,0-8.758,1.761c-.067,0,0,.135,0,.123,2.893-.7,5.82-.976,8.736-1.458a.213.213,0,1,0,.022-.426Z" fill="#fff"/>
        <path id="Path_15428" data-name="Path 15428" d="M161.852,245.474a19.812,19.812,0,0,0-3.723.336c-.123,0-.112.224,0,.224a18.75,18.75,0,0,0,3.723-.168C162.076,245.822,162.065,245.485,161.852,245.474Z" fill="#fff"/>
        <path id="Path_15429" data-name="Path 15429" d="M59.075,227.274A129.1,129.1,0,0,1,85.484,239.71a78.722,78.722,0,0,1,21.991,20.9,195.259,195.259,0,0,1,28.214,56.945,152.028,152.028,0,0,1,6.392,34.763.336.336,0,0,1-.662,0,197.186,197.186,0,0,0-17.2-59c-8.612-18.268-19.5-37.713-36.132-49.813-9.061-6.594-19.243-10.9-29.392-15.464C58.167,227.835,58.548,227.083,59.075,227.274Z" fill="#ebebeb"/>
        <path id="Path_15430" data-name="Path 15430" d="M129.062,304.527a118.78,118.78,0,0,0-21.026-15.3c-11.741-6.515-21.307-10.81-24.2-16.507s6.145-13.1,6.145-13.1-11.988,5.876-16.956,1.559-15.419-34.562-15.419-34.562,27.676,9.846,44.968,29.807S129.062,304.527,129.062,304.527Z" fill="#ebebeb"/>
        <path id="Path_15431" data-name="Path 15431" d="M127.615,298.292c-13.849-25.994-32.3-49.5-57.629-65.041h0A126.907,126.907,0,0,1,88.5,247.829a29.3,29.3,0,0,0-14.881,3.14.09.09,0,0,0,.067.157,40.853,40.853,0,0,1,15.318-2.59.258.258,0,0,0,.168-.067c.908.852,1.794,1.716,2.669,2.59a47.21,47.21,0,0,0-7.951,1.054.056.056,0,1,0,0,.112,41.312,41.312,0,0,1,8.4-.7,176.49,176.49,0,0,1,13.12,14.791,13.288,13.288,0,0,0-5.607.4.112.112,0,0,0,0,.213,29.156,29.156,0,0,1,5.932-.078c.763.964,1.525,1.918,2.243,2.893a54.017,54.017,0,0,0-16.821,1.637c-.078,0-.056.146,0,.135a67.508,67.508,0,0,1,17.258-1.121c.706.931,1.379,1.9,2.063,2.848a35.886,35.886,0,0,0-10,1.121.1.1,0,1,0,0,.191,38.127,38.127,0,0,1,10.351-.8c2.983,4.093,5.831,8.287,8.579,12.537a9.262,9.262,0,0,0-4.4.269.056.056,0,1,0,0,.112,19.289,19.289,0,0,1,4.755.224q3.7,5.764,7.132,11.618C127.268,298.875,127.84,298.629,127.615,298.292Z" fill="#fff"/>
        <path id="Path_15432" data-name="Path 15432" d="M106.084,276.728a21.766,21.766,0,0,0-8.052.987c-.067,0,0,.135,0,.123a61.9,61.9,0,0,1,8.007-.819C106.23,276.986,106.264,276.75,106.084,276.728Z" fill="#fff"/>
        <path id="Path_15433" data-name="Path 15433" d="M81.929,245.059a13.648,13.648,0,0,0-3.7.224.112.112,0,0,0,0,.213c1.222-.123,2.422-.079,3.645-.123a.159.159,0,0,0,.056-.314Z" fill="#fff"/>
        <path id="Path_15434" data-name="Path 15434" d="M164.767,390.46h-62.5l8.915-65.265,2.276-16.731h40.112l2.276,16.731Z" fill="#dbdbdb"/>
        <path id="Path_15435" data-name="Path 15435" d="M155.852,325.195H111.187l2.276-16.731h40.112Z" fill="#c7c7c7"/>
        <rect id="Rectangle_7631" data-name="Rectangle 7631" width="51.584" height="14.174" transform="translate(107.722 302.654)" fill="#dbdbdb"/>
        <g id="freepik--aiZGp2--inject-244">
          <path id="Path_15436" data-name="Path 15436" d="M640.218,92.684a76.388,76.388,0,0,0-5.17,23.628H614.134v-.572l.168-1.6a58.681,58.681,0,0,1,1.346-8.265A63.641,63.641,0,0,1,620.3,92.986a.471.471,0,0,1,.5-.3h19.378Z" fill="#ebebeb"/>
          <path id="Path_15437" data-name="Path 15437" d="M639.59,145.445H620.369a.448.448,0,0,1-.471-.3,58.721,58.721,0,0,1-4.766-14.578,55.921,55.921,0,0,1-.942-7.356.4.4,0,0,0-.056-.247v-.583h20.578c.37,0,.359,0,.381.381.135,1.671.247,3.364.4,5.035a65.011,65.011,0,0,0,1.29,7.917,72.18,72.18,0,0,0,2.725,9.409A1.147,1.147,0,0,0,639.59,145.445Z" fill="#ebebeb"/>
          <path id="Path_15438" data-name="Path 15438" d="M720.42,151.546c0,.112-.112.2-.157.28a58.314,58.314,0,0,1-5.45,7.065,53.39,53.39,0,0,1-7.984,7.356,57.1,57.1,0,0,1-9.095,5.607,56.505,56.505,0,0,1-9.61,3.745,60.556,60.556,0,0,1-8.007,1.7l-.785.135h-.46l-.426-.258.516-.359a61.475,61.475,0,0,0,15.184-14.713,69.264,69.264,0,0,0,6.2-10.272.437.437,0,0,1,.471-.3h19.658Z" fill="#ebebeb"/>
          <path id="Path_15439" data-name="Path 15439" d="M701.2,116.289h-27V92.74h21.071a.381.381,0,0,1,.415.28,64.8,64.8,0,0,1,4.295,13.827,67.4,67.4,0,0,1,1.043,7.48C701.088,114.932,701.144,115.594,701.2,116.289Z" fill="#ebebeb"/>
          <path id="Path_15440" data-name="Path 15440" d="M701.031,122.591a11.673,11.673,0,0,1-.078,1.66c-.112,1.312-.213,2.635-.392,3.936-.258,1.805-.527,3.622-.9,5.416a63.626,63.626,0,0,1-3.5,11.506.449.449,0,0,1-.493.348H674.039V122.591Z" fill="#ebebeb"/>
          <path id="Path_15441" data-name="Path 15441" d="M668.107,92.841v23.628H641.743a15.328,15.328,0,0,1,.123-1.772c.135-1.323.236-2.647.449-3.959.325-2,.662-4,1.121-5.988a61.591,61.591,0,0,1,3.779-11.674.426.426,0,0,1,.448-.292h20.443Z" fill="#ebebeb"/>
          <path id="Path_15442" data-name="Path 15442" d="M668.141,122.905v22.54H647.047a.426.426,0,0,1-.471-.314,60.545,60.545,0,0,1-3.589-11.9c-.392-2.1-.7-4.216-.953-6.336-.179-1.379-.224-2.781-.314-4.183a.808.808,0,0,1,0-.146h26.05C668.074,122.558,668.141,122.636,668.141,122.905Z" fill="#ebebeb"/>
          <path id="Path_15443" data-name="Path 15443" d="M729.829,116.457H707.7a76.906,76.906,0,0,0-5.158-23.774h20.623a.448.448,0,0,1,.482.292,57.932,57.932,0,0,1,5.1,14.791,64.425,64.425,0,0,1,1.121,8.287Z" fill="#ebebeb"/>
          <path id="Path_15444" data-name="Path 15444" d="M729.84,122.412a11.659,11.659,0,0,1-.067,1.548,59.12,59.12,0,0,1-.729,5.955,58,58,0,0,1-4.071,13.289c-.292.684-.628,1.357-.931,2.041a.3.3,0,0,1-.325.213h-20.6c.247-.706.493-1.391.729-2.086a70.893,70.893,0,0,0,2.736-10.777,68.887,68.887,0,0,0,.953-8.018c0-.639.078-1.278.1-1.906,0-.168,0-.258.236-.235a1.211,1.211,0,0,0,.2,0Z" fill="#ebebeb"/>
          <path id="Path_15445" data-name="Path 15445" d="M719.815,86.662v.1H700.179a.448.448,0,0,1-.471-.28,66.337,66.337,0,0,0-9.6-14.231,54.948,54.948,0,0,0-7.368-6.8c-1.323-1.009-2.691-1.962-4.037-2.938l-.224-.168.269-.191a1.742,1.742,0,0,0-.135-.415,57.079,57.079,0,0,1,19.568,5.876,56.339,56.339,0,0,1,21.632,19.041Z" fill="#ebebeb"/>
          <path id="Path_15446" data-name="Path 15446" d="M664.362,177.181a1.973,1.973,0,0,1-.561.09,52.108,52.108,0,0,1-6.3-1.222,57.046,57.046,0,0,1-11.214-4.16,57.8,57.8,0,0,1-11.45-7.513,54.626,54.626,0,0,1-6.874-6.885,57.565,57.565,0,0,1-4.295-5.943.765.765,0,0,1-.09-.191h18.335a.437.437,0,0,1,.449.292,69.941,69.941,0,0,0,6.627,10.788,68.833,68.833,0,0,0,7.76,8.6,59.109,59.109,0,0,0,7.469,6Z" fill="#ebebeb"/>
          <path id="Path_15447" data-name="Path 15447" d="M664.126,62.316c-.83.606-1.794,1.29-2.736,2.007a67.994,67.994,0,0,0-8.736,8.13,61.164,61.164,0,0,0-9.162,13.064c-.157.3-.292.617-.471.9a.4.4,0,0,1-.28.179H624.16c9.812-13.849,22.989-22.181,39.765-24.671,0,.078-.078.157-.123.224Z" fill="#ebebeb"/>
          <path id="Path_15448" data-name="Path 15448" d="M693.137,151.557a63.343,63.343,0,0,1-8.971,12.066,56.066,56.066,0,0,1-10.182,8.635v-20.7Z" fill="#ebebeb"/>
          <path id="Path_15449" data-name="Path 15449" d="M668.107,151.568v20.3a58.582,58.582,0,0,1-18.324-20.3Z" fill="#ebebeb"/>
          <path id="Path_15450" data-name="Path 15450" d="M692.542,86.583H674.2v-19.3a56.315,56.315,0,0,1,10.294,8.624,65.266,65.266,0,0,1,8.052,10.676Z" fill="#ebebeb"/>
          <path id="Path_15451" data-name="Path 15451" d="M668.107,67.833V86.74H650.5a55.734,55.734,0,0,1,17.606-18.907Z" fill="#ebebeb"/>
        </g>
        <path id="Path_15452" data-name="Path 15452" d="M318.746,164.846H164.633V64.48H318.746Zm-152.992-1.121H317.625V65.6H165.754Z" fill="#ebebeb"/>
        <path id="Path_15453" data-name="Path 15453" d="M318.746,78.79H164.633V64.48H318.746ZM165.754,77.668H317.625V65.6H165.754Z" fill="#ebebeb"/>
        <path id="Path_15454" data-name="Path 15454" d="M177.574,71.77a3.364,3.364,0,1,1-3.364-3.364A3.364,3.364,0,0,1,177.574,71.77Z" fill="#c7c7c7"/>
        <path id="Path_15455" data-name="Path 15455" d="M191.109,71.77a3.364,3.364,0,1,1-3.308-3.364,3.308,3.308,0,0,1,3.308,3.364Z" fill="#ebebeb"/>
        <path id="Path_15456" data-name="Path 15456" d="M204.655,71.77a3.364,3.364,0,1,1-3.364-3.364A3.364,3.364,0,0,1,204.655,71.77Z" fill="#428ef3"/>
      </g>
      <g id="freepik--Shadow--inject-244">
        <ellipse id="Ellipse_840" data-name="Ellipse 840" cx="368.682" cy="46.336" rx="368.682" ry="46.336" transform="translate(51.842 405.072)" fill="#ebebeb" opacity="0.4"/>
      </g>
      <g id="freepik--Floor--inject-244">
        <path id="Path_15457" data-name="Path 15457" d="M56.877,390.46l90.912-.269,90.912-.1,181.824-.191,181.824.191,90.912.1,90.912.269-90.912.28-90.912.09-181.824.191L238.7,390.83l-90.912-.1Z" fill="#263238"/>
      </g>
      <g id="freepik--Computer--inject-244">
        <rect id="Rectangle_7632" data-name="Rectangle 7632" width="435.316" height="291.194" transform="translate(202.446 114.876)" fill="#dbdbdb"/>
        <rect id="Rectangle_7633" data-name="Rectangle 7633" width="428.991" height="284.084" transform="translate(205.609 118.431)" fill="#263238"/>
        <rect id="Rectangle_7634" data-name="Rectangle 7634" width="548.712" height="19.983" transform="translate(145.748 427.904)" fill="#c7c7c7"/>
        <path id="Path_15458" data-name="Path 15458" d="M145.748,427.9l56.7-21.834H637.762l56.7,21.834Z" fill="#dbdbdb"/>
        <path id="Path_15459" data-name="Path 15459" d="M207.515,420.166l36.591-14.1H596.113l36.591,14.1Z" fill="#263238"/>
        <rect id="Rectangle_7635" data-name="Rectangle 7635" width="380.502" height="240.921" transform="translate(229.853 140.018)" fill="#fff"/>
        <rect id="Rectangle_7636" data-name="Rectangle 7636" width="380.827" height="9.274" transform="translate(229.539 140.018)" fill="#455a64"/>
        <path id="Path_15460" data-name="Path 15460" d="M236.907,144.66a2.3,2.3,0,1,1-2.243-2.3,2.3,2.3,0,0,1,2.243,2.3Z" fill="#c7c7c7"/>
        <path id="Path_15461" data-name="Path 15461" d="M246.293,144.66a2.3,2.3,0,1,1-2.243-2.3,2.3,2.3,0,0,1,2.243,2.3Z" fill="#fff"/>
        <path id="Path_15462" data-name="Path 15462" d="M255.679,144.66a2.3,2.3,0,1,1-2.3-2.3A2.3,2.3,0,0,1,255.679,144.66Z" fill="#428ef3"/>
        <rect id="Rectangle_7637" data-name="Rectangle 7637" width="147.969" height="103.629" transform="translate(396.101 272.399) rotate(180)" fill="#ebebeb"/>
        <path id="Path_15463" data-name="Path 15463" d="M265.424,198.23a12.257,12.257,0,1,0,12.257-12.257A12.257,12.257,0,0,0,265.424,198.23Z" fill="#dbdbdb"/>
        <path id="Path_15464" data-name="Path 15464" d="M313.812,250.072h82.3L354.956,194.3Z" fill="#c7c7c7"/>
        <path id="Path_15465" data-name="Path 15465" d="M281.583,250.128h67.934l-33.967-36.322Z" fill="#dbdbdb"/>
        <rect id="Rectangle_7638" data-name="Rectangle 7638" width="147.969" height="22.327" transform="translate(248.132 250.072)" fill="#dbdbdb"/>
        <rect id="Rectangle_7639" data-name="Rectangle 7639" width="82.681" height="74.809" transform="translate(499.83 361.091) rotate(180)" fill="#ebebeb"/>
        <path id="Path_15466" data-name="Path 15466" d="M427.836,302.632a8.859,8.859,0,1,0,6.953-6.953,8.859,8.859,0,0,0-6.953,6.953Z" fill="#dbdbdb"/>
        <path id="Path_15467" data-name="Path 15467" d="M440.43,344.965h59.412l-29.706-40.258Z" fill="#c7c7c7"/>
        <path id="Path_15468" data-name="Path 15468" d="M417.16,345h49.05L441.685,318.78Z" fill="#dbdbdb"/>
        <rect id="Rectangle_7640" data-name="Rectangle 7640" width="82.681" height="16.115" transform="translate(417.16 344.965)" fill="#dbdbdb"/>
        <rect id="Rectangle_7641" data-name="Rectangle 7641" width="132.628" height="6.695" transform="translate(417.16 168.782)" fill="#a6a6a6"/>
        <rect id="Rectangle_7642" data-name="Rectangle 7642" width="161.47" height="6.695" transform="translate(417.16 182.631)" fill="#dbdbdb"/>
        <rect id="Rectangle_7643" data-name="Rectangle 7643" width="161.47" height="6.695" transform="translate(417.16 196.48)" fill="#dbdbdb"/>
        <rect id="Rectangle_7644" data-name="Rectangle 7644" width="161.47" height="6.695" transform="translate(417.16 210.341)" fill="#dbdbdb"/>
        <rect id="Rectangle_7645" data-name="Rectangle 7645" width="161.47" height="6.695" transform="translate(417.16 224.19)" fill="#dbdbdb"/>
        <rect id="Rectangle_7646" data-name="Rectangle 7646" width="107.195" height="6.695" transform="translate(417.16 238.039)" fill="#dbdbdb"/>
        <rect id="Rectangle_7647" data-name="Rectangle 7647" width="58.66" height="6.594" transform="translate(507.209 286.271)" fill="#a6a6a6"/>
        <rect id="Rectangle_7648" data-name="Rectangle 7648" width="71.411" height="6.594" transform="translate(507.209 299.918)" fill="#dbdbdb"/>
        <rect id="Rectangle_7649" data-name="Rectangle 7649" width="71.411" height="6.594" transform="translate(507.209 313.566)" fill="#dbdbdb"/>
        <rect id="Rectangle_7650" data-name="Rectangle 7650" width="71.411" height="6.594" transform="translate(507.209 327.202)" fill="#dbdbdb"/>
        <rect id="Rectangle_7651" data-name="Rectangle 7651" width="71.411" height="6.594" transform="translate(507.209 340.849)" fill="#dbdbdb"/>
        <rect id="Rectangle_7652" data-name="Rectangle 7652" width="48.467" height="6.594" transform="translate(507.209 354.497)" fill="#dbdbdb"/>
        <rect id="Rectangle_7653" data-name="Rectangle 7653" width="161.47" height="19.669" transform="translate(417.16 252.73)" fill="#428ef3"/>
        <rect id="Rectangle_7654" data-name="Rectangle 7654" width="147.969" height="19.669" transform="translate(248.132 286.271)" fill="#a6a6a6"/>
        <rect id="Rectangle_7655" data-name="Rectangle 7655" width="147.969" height="6.65" transform="translate(248.132 313.106)" fill="#dbdbdb"/>
        <rect id="Rectangle_7656" data-name="Rectangle 7656" width="147.969" height="6.65" transform="translate(248.132 326.877)" fill="#dbdbdb"/>
        <rect id="Rectangle_7657" data-name="Rectangle 7657" width="147.969" height="6.65" transform="translate(248.132 340.659)" fill="#dbdbdb"/>
        <rect id="Rectangle_7658" data-name="Rectangle 7658" width="101.386" height="6.65" transform="translate(248.132 354.429)" fill="#dbdbdb"/>
        <rect id="Rectangle_7659" data-name="Rectangle 7659" width="10.171" height="231.647" transform="translate(600.184 149.281)" fill="#dbdbdb"/>
        <path id="Path_15469" data-name="Path 15469" d="M605.264,270.515h0a2.624,2.624,0,0,1-2.624-2.624V154.2a2.624,2.624,0,0,1,2.624-2.624h0a2.624,2.624,0,0,1,2.624,2.624V267.891A2.624,2.624,0,0,1,605.264,270.515Z" fill="#a6a6a6"/>
      </g>
      <g id="freepik--Tablet--inject-244">
        <path id="Path_15470" data-name="Path 15470" d="M375.736,270.257V434.632a13.378,13.378,0,0,1-13.457,13.255H103.909a13.378,13.378,0,0,1-13.457-13.255V270.257a13.367,13.367,0,0,1,13.457-13.244h258.3a13.367,13.367,0,0,1,13.524,13.244Z" fill="#455a64"/>
        <rect id="Rectangle_7660" data-name="Rectangle 7660" width="245.575" height="174.579" transform="translate(110.57 265.031)" fill="#fff"/>
        <rect id="Rectangle_7661" data-name="Rectangle 7661" width="108.944" height="76.289" transform="translate(234.126 353.487) rotate(180)" fill="#ebebeb"/>
        <path id="Path_15471" data-name="Path 15471" d="M137.932,298.9a8.971,8.971,0,1,0,2.608-6.38A8.971,8.971,0,0,0,137.932,298.9Z" fill="#dbdbdb"/>
        <path id="Path_15472" data-name="Path 15472" d="M173.537,337.059h60.589L203.826,296Z" fill="#c7c7c7"/>
        <path id="Path_15473" data-name="Path 15473" d="M149.808,337.093h50.014l-25.007-26.734Z" fill="#dbdbdb"/>
        <rect id="Rectangle_7662" data-name="Rectangle 7662" width="108.944" height="16.44" transform="translate(125.182 337.059)" fill="#dbdbdb"/>
        <rect id="Rectangle_7663" data-name="Rectangle 7663" width="72.846" height="51.012" transform="translate(341.533 425.975) rotate(180)" fill="#ebebeb"/>
        <path id="Path_15474" data-name="Path 15474" d="M277.2,389.473a6.033,6.033,0,1,0,1.771-4.27,6.044,6.044,0,0,0-1.771,4.27Z" fill="#dbdbdb"/>
        <path id="Path_15475" data-name="Path 15475" d="M301.028,414.985h40.5l-20.252-27.452Z" fill="#c7c7c7"/>
        <path id="Path_15476" data-name="Path 15476" d="M285.161,415.019H318.6l-16.72-17.886Z" fill="#dbdbdb"/>
        <rect id="Rectangle_7664" data-name="Rectangle 7664" width="72.846" height="10.99" transform="translate(268.687 414.996)" fill="#dbdbdb"/>
        <rect id="Rectangle_7665" data-name="Rectangle 7665" width="98.022" height="18.638" transform="translate(243.523 277.21)" fill="#428ef3"/>
        <rect id="Rectangle_7666" data-name="Rectangle 7666" width="98.022" height="2.613" transform="translate(243.523 302.924)" fill="#dbdbdb"/>
        <rect id="Rectangle_7667" data-name="Rectangle 7667" width="98.022" height="2.613" transform="translate(243.523 309.058)" fill="#dbdbdb"/>
        <rect id="Rectangle_7668" data-name="Rectangle 7668" width="98.022" height="2.613" transform="translate(243.523 315.192)" fill="#dbdbdb"/>
        <rect id="Rectangle_7669" data-name="Rectangle 7669" width="98.022" height="2.613" transform="translate(243.523 321.326)" fill="#dbdbdb"/>
        <rect id="Rectangle_7670" data-name="Rectangle 7670" width="98.022" height="2.613" transform="translate(243.523 327.46)" fill="#dbdbdb"/>
        <rect id="Rectangle_7671" data-name="Rectangle 7671" width="98.022" height="2.613" transform="translate(243.523 333.594)" fill="#dbdbdb"/>
        <rect id="Rectangle_7672" data-name="Rectangle 7672" width="56.35" height="2.613" transform="translate(243.523 339.728)" fill="#dbdbdb"/>
        <rect id="Rectangle_7673" data-name="Rectangle 7673" width="98.022" height="2.613" transform="translate(160.304 411.778)" fill="#dbdbdb"/>
        <rect id="Rectangle_7674" data-name="Rectangle 7674" width="98.022" height="2.613" transform="translate(160.304 374.973)" fill="#dbdbdb"/>
        <rect id="Rectangle_7675" data-name="Rectangle 7675" width="98.022" height="2.613" transform="translate(160.304 381.108)" fill="#dbdbdb"/>
        <rect id="Rectangle_7676" data-name="Rectangle 7676" width="98.022" height="2.613" transform="translate(160.304 387.242)" fill="#dbdbdb"/>
        <rect id="Rectangle_7677" data-name="Rectangle 7677" width="66.847" height="2.613" transform="translate(160.304 393.376)" fill="#dbdbdb"/>
        <rect id="Rectangle_7678" data-name="Rectangle 7678" width="98.022" height="2.613" transform="translate(160.304 405.644)" fill="#dbdbdb"/>
        <rect id="Rectangle_7679" data-name="Rectangle 7679" width="66.847" height="2.613" transform="translate(160.304 417.912)" fill="#dbdbdb"/>
        <rect id="Rectangle_7680" data-name="Rectangle 7680" width="216.363" height="6.168" transform="translate(125.182 362.01)" fill="#455a64"/>
        <rect id="Rectangle_7681" data-name="Rectangle 7681" width="28.013" height="51.012" transform="translate(125.182 374.973)" fill="#428ef3"/>
        <rect id="Rectangle_7682" data-name="Rectangle 7682" width="2.972" height="41.548" rx="1.402" transform="translate(100.702 331.665)" fill="#37474f"/>
        <path id="Path_15477" data-name="Path 15477" d="M372.3,352.433a5.383,5.383,0,1,1-5.372-5.371,5.383,5.383,0,0,1,5.372,5.371Z" fill="#37474f"/>
      </g>
      <g id="freepik--Mobile--inject-244">
        <path id="Path_15478" data-name="Path 15478" d="M733.518,221.813H633.591A10.2,10.2,0,0,0,623.5,232.107V437.772a10.216,10.216,0,0,0,10.093,10.294H733.5a10.216,10.216,0,0,0,10.093-10.294V232.13a10.2,10.2,0,0,0-10.07-10.317Zm3.8,209.6c0,5.416-4.059,9.79-9.061,9.79H638.883c-5.013,0-9.061-4.373-9.061-9.79V239.9c0-11.023,4.048-11.562,9.061-11.562h17.942c1.043,0,1.9,1.121,1.9,2.646v.628c0,3.443,1.884,3.454,4.194,3.454h41.324c2.321,0,4.183,0,4.183-3.454v-.606c0-1.469.841-2.646,1.906-2.646H728.27c5,0,9.061,1.469,9.061,11.562Z" fill="#455a64"/>
        <path id="Path_15479" data-name="Path 15479" d="M689.212,230.773H677.919a.7.7,0,0,1-.7-.7h0a.7.7,0,0,1,.7-.7h11.292a.707.707,0,0,1,.706.7h0A.707.707,0,0,1,689.212,230.773Z" fill="#fff"/>
        <path id="Path_15480" data-name="Path 15480" d="M737.32,239.9V431.413c0,5.416-4.059,9.79-9.061,9.79H638.883c-5.013,0-9.061-4.373-9.061-9.79V239.9c0-11.023,4.048-11.562,9.061-11.562h17.942c1.043,0,1.9,1.121,1.9,2.646v.628c0,3.443,1.884,3.454,4.194,3.454h41.324c2.321,0,4.183,0,4.183-3.454v-.606c0-1.469.841-2.646,1.906-2.646H728.27C733.26,228.339,737.32,229.808,737.32,239.9Z" fill="#fff"/>
        <path id="Path_15481" data-name="Path 15481" d="M737.32,239.9v14.287H629.811V239.9c0-11.023,4.059-11.562,9.072-11.562h17.942c1.032,0,1.884,1.121,1.884,2.646v.628c0,3.443,1.884,3.454,4.183,3.454h41.346c2.321,0,4.194,0,4.194-3.454v-.606c0-1.469.841-2.646,1.9-2.646H728.27C733.26,228.339,737.32,229.808,737.32,239.9Z" fill="#428ef3"/>
        <path id="Path_15482" data-name="Path 15482" d="M640,247.212l-3.174-2.972L640,241.269l.493.516-2.613,2.456L640.5,246.7Z" fill="#fff"/>
        <path id="Path_15483" data-name="Path 15483" d="M727.62,247.482h-2.243v-.774a.112.112,0,0,0-.067-.1l-.247-.146a.157.157,0,0,0-.123,0l-.684.4-1.121-1.94.684-.392a.1.1,0,0,0,0-.123v-.269a.1.1,0,0,0,0-.123l-.684-.393,1.121-1.94.684.393a.123.123,0,0,0,.123,0l.247-.146a.112.112,0,0,0,.067-.1v-.8h2.243v.8a.112.112,0,0,0,.067.1l.247.146a.123.123,0,0,0,.123,0l.684-.393,1.121,1.94-.684.393a.1.1,0,0,0,0,.123v.269a.1.1,0,0,0,0,.123l.684.393-1.121,1.94-.684-.392a.123.123,0,0,0-.123,0l-.247.146a.112.112,0,0,0-.067.1Zm-1.682-.561h1.121v-.213a.7.7,0,0,1,.37-.606,1.121,1.121,0,0,0,.191-.112.718.718,0,0,1,.718,0l.2.123.561-.976-.2-.123a.662.662,0,0,1-.336-.617v-.224a.684.684,0,0,1,.336-.628l.2-.112-.561-.976-.2.123a.7.7,0,0,1-.706,0l-.2-.112a.7.7,0,0,1-.37-.606v-.236h-1.121v.236a.7.7,0,0,1-.37.606,1.119,1.119,0,0,0-.191.112.718.718,0,0,1-.718,0l-.2-.123-.561.976.2.112a.684.684,0,0,1,.336.628v.224a.684.684,0,0,1-.336.628l-.2.112.561.976.2-.123a.718.718,0,0,1,.718,0,1.119,1.119,0,0,0,.191.112.7.7,0,0,1,.37.606Zm.561-1.02a1.66,1.66,0,1,1,1.66-1.66,1.66,1.66,0,0,1-1.66,1.66Zm0-2.759a1.121,1.121,0,1,0,1.121,1.121,1.121,1.121,0,0,0-1.121-1.121Z" fill="#fff"/>
        <g id="freepik--u5Zjqx--inject-244">
          <path id="Path_15484" data-name="Path 15484" d="M653.7,232.634l-.168.179-.1.1a2.355,2.355,0,0,0-3.364,0l-.09-.1-.168-.168h0a1.724,1.724,0,0,1,.213-.191,2.424,2.424,0,0,1,.5-.325,2.793,2.793,0,0,1,.673-.224h.852a2.9,2.9,0,0,1,.617.146,2.839,2.839,0,0,1,.415.2,2.527,2.527,0,0,1,.4.269l.179.168Z" fill="#fff"/>
          <path id="Path_15485" data-name="Path 15485" d="M650.636,233.453l-.269-.269a1.962,1.962,0,0,1,2.781,0l-.269.28a1.592,1.592,0,0,0-2.243,0Z" fill="#fff"/>
          <path id="Path_15486" data-name="Path 15486" d="M652.654,233.722l-.269.28a.785.785,0,0,0-1.121,0l-.269-.28A1.189,1.189,0,0,1,652.654,233.722Z" fill="#fff"/>
          <path id="Path_15487" data-name="Path 15487" d="M652,234.249a.247.247,0,1,1-.247-.247.236.236,0,0,1,.247.247Z" fill="#fff"/>
        </g>
        <path id="Path_15488" data-name="Path 15488" d="M636.831,233.161a.706.706,0,0,1,.707-.706.712.712,0,1,1-.707.706Z" fill="#fff"/>
        <path id="Path_15489" data-name="Path 15489" d="M639.074,233.161a.706.706,0,0,1,.707-.706.712.712,0,1,1-.707.706Z" fill="#fff"/>
        <path id="Path_15490" data-name="Path 15490" d="M641.317,233.161a.718.718,0,1,1,.328.7.718.718,0,0,1-.328-.7Z" fill="#fff"/>
        <path id="Path_15491" data-name="Path 15491" d="M643.56,233.161a.718.718,0,1,1,.718.718.718.718,0,0,1-.718-.718Z" fill="#fff"/>
        <path id="Path_15492" data-name="Path 15492" d="M645.8,233.161a.718.718,0,0,1,.718-.706.706.706,0,0,1,.707.706.712.712,0,1,1-1.424,0Z" fill="#fff"/>
        <path id="Path_15493" data-name="Path 15493" d="M729.246,234.709h-5.786V232.04h5.786Zm-5.506-.28h5.226V232.32H723.74Z" fill="#fff"/>
        <rect id="Rectangle_7683" data-name="Rectangle 7683" width="3.734" height="1.772" transform="translate(723.93 232.488)" fill="#fff"/>
        <rect id="Rectangle_7684" data-name="Rectangle 7684" width="0.516" height="1.435" transform="translate(729.257 232.657)" fill="#fff"/>
        <path id="Path_15494" data-name="Path 15494" d="M646.15,429.5h-.819v3.757h-1.525v-1.918h-2.7v1.918h-1.525V429.5h-.819l3.7-3.813Z" fill="#ebebeb"/>
        <rect id="Rectangle_7685" data-name="Rectangle 7685" width="8.915" height="1.278" transform="translate(719.479 425.683)" fill="#ebebeb"/>
        <rect id="Rectangle_7686" data-name="Rectangle 7686" width="8.915" height="1.278" transform="translate(719.479 428.823)" fill="#ebebeb"/>
        <rect id="Rectangle_7687" data-name="Rectangle 7687" width="8.915" height="1.278" transform="translate(719.479 431.974)" fill="#ebebeb"/>
        <path id="Path_15495" data-name="Path 15495" d="M645.982,272.993a6,6,0,1,1,2.614-6.743,5.966,5.966,0,0,1-2.614,6.743Z" fill="#dbdbdb"/>
        <path id="Path_15496" data-name="Path 15496" d="M644.648,267.207a1.828,1.828,0,1,1-1.817-1.828,1.828,1.828,0,0,1,1.817,1.828Z" fill="#fff"/>
        <path id="Path_15497" data-name="Path 15497" d="M645.982,272.242v.751a5.966,5.966,0,0,1-6.313,0v-.751a3.162,3.162,0,0,1,6.313,0Z" fill="#fff"/>
        <rect id="Rectangle_7688" data-name="Rectangle 7688" width="38.128" height="3.14" transform="translate(656.344 262.239)" fill="#ebebeb"/>
        <rect id="Rectangle_7689" data-name="Rectangle 7689" width="33.283" height="2.086" transform="translate(656.344 267.476)" fill="#ebebeb"/>
        <rect id="Rectangle_7690" data-name="Rectangle 7690" width="55.027" height="2.086" transform="translate(656.344 271.491)" fill="#ebebeb"/>
        <rect id="Rectangle_7691" data-name="Rectangle 7691" width="107.497" height="75.268" transform="translate(737.32 354.127) rotate(180)" fill="#ebebeb"/>
        <path id="Path_15498" data-name="Path 15498" d="M642.382,300.255a8.9,8.9,0,1,0,8.9-8.9,8.9,8.9,0,0,0-8.9,8.9Z" fill="#dbdbdb"/>
        <path id="Path_15499" data-name="Path 15499" d="M677.549,337.911H737.32L707.435,297.4Z" fill="#c7c7c7"/>
        <path id="Path_15500" data-name="Path 15500" d="M654.112,337.945h49.353L678.783,311.57Z" fill="#dbdbdb"/>
        <rect id="Rectangle_7692" data-name="Rectangle 7692" width="107.497" height="16.215" transform="translate(629.823 337.911)" fill="#dbdbdb"/>
        <path id="Path_15501" data-name="Path 15501" d="M645.982,393.813a6,6,0,1,1,2.614-6.743A5.966,5.966,0,0,1,645.982,393.813Z" fill="#dbdbdb"/>
        <circle id="Ellipse_841" data-name="Ellipse 841" cx="1.828" cy="1.828" r="1.828" transform="translate(641.003 386.199)" fill="#fff"/>
        <path id="Path_15502" data-name="Path 15502" d="M645.982,393.062v.751a5.966,5.966,0,0,1-6.313,0v-.751a3.162,3.162,0,0,1,6.313,0Z" fill="#fff"/>
        <rect id="Rectangle_7693" data-name="Rectangle 7693" width="49.028" height="3.14" transform="translate(656.344 383.059)" fill="#ebebeb"/>
        <rect id="Rectangle_7694" data-name="Rectangle 7694" width="62.597" height="2.086" transform="translate(656.344 388.296)" fill="#ebebeb"/>
        <rect id="Rectangle_7695" data-name="Rectangle 7695" width="21.318" height="2.086" transform="translate(656.344 392.31)" fill="#ebebeb"/>
        <rect id="Rectangle_7696" data-name="Rectangle 7696" width="107.475" height="18.38" transform="translate(629.823 399.678)" fill="#ebebeb"/>
        <path id="Path_15503" data-name="Path 15503" d="M659.663,418.069H642.909a8.893,8.893,0,0,1,16.754,0Z" fill="#dbdbdb"/>
        <path id="Path_15504" data-name="Path 15504" d="M637.044,362.941a3.544,3.544,0,1,1,1.6,2.2A3.555,3.555,0,0,1,637.044,362.941Z" fill="#ebebeb"/>
        <g id="freepik--xsrjP0--inject-244">
          <path id="Path_15505" data-name="Path 15505" d="M640.016,363.513c-.1-.056-.179-.146-.3-.135s0,0,0-.056V361.9a.067.067,0,0,1,0-.078c.359-.179.516-.538.74-.852a1.425,1.425,0,0,0,.258-1.121c0-.1,0-.146.135-.168a.224.224,0,0,1,.269.079,1.793,1.793,0,0,1,.2.628,2.112,2.112,0,0,1,0,.527,2.422,2.422,0,0,1-.078.393c-.022.135.067,0,.1,0h1.2c.168,0,.258,0,.28.157a.325.325,0,0,1-.179.348s-.078,0-.078.056,0,0,.078.056a.35.35,0,0,1,0,.426c-.112.123-.112,0-.112.067s.067,0,.1.09a.269.269,0,0,1-.112.415h-.079v.056a.235.235,0,0,1,0,.426h0a.348.348,0,0,1-.213,0h-1.884a.2.2,0,0,1-.325.112Z" fill="#fff" fill-rule="evenodd"/>
          <path id="Path_15506" data-name="Path 15506" d="M638.222,362.683v-.908c0-.056,0-.09.09-.09h1.121c.067,0,.078,0,.078.09v1.817c0,.078,0,.1-.1.1h-1.065c-.09,0-.1,0-.1-.112C638.233,363.333,638.222,362.986,638.222,362.683Z" fill="#fff" fill-rule="evenodd"/>
        </g>
        <path id="Path_15507" data-name="Path 15507" d="M644.513,362.941a3.544,3.544,0,1,1,1.608,2.2A3.555,3.555,0,0,1,644.513,362.941Z" fill="#428ef3"/>
        <path id="Path_15508" data-name="Path 15508" d="M649.784,362.548a1.817,1.817,0,0,1-3.633,0,1.435,1.435,0,0,1,.549-2.1c1.009-.3,1.267,1.458,1.267,1.458s.258-1.761,1.278-1.458C649.952,360.664,650.232,361.64,649.784,362.548Z" fill="#fff"/>
        <rect id="Rectangle_7697" data-name="Rectangle 7697" width="50.497" height="2.052" transform="translate(656.938 361.64)" fill="#ebebeb"/>
        <path id="Path_15509" data-name="Path 15509" d="M629.823,373.9l13.434-.2,13.434-.112,26.869-.1,26.869.1,13.434.112,13.434.2-13.434.213-13.434.112-26.869.1-26.869-.1-13.434-.112Z" fill="#ebebeb"/>
      </g>
    </g>
  </g>
</svg>
