<svg xmlns="http://www.w3.org/2000/svg" xmlns:xlink="http://www.w3.org/1999/xlink" width="78.052" height="46.01" viewBox="0 0 78.052 46.01">
  <defs>
    <clipPath id="clip-path">
      <path id="Path_65" data-name="Path 65" d="M1203.382,695.656l-5.963,3.989a1.846,1.846,0,0,1-1.082.292c-1.44,0-2.871-.006-4.3-.006q-5.927,0-11.854.019h-1.063l5.962-3.989h1.064q5.927-.009,11.854-.019c1.431,0,2.861,0,4.3.006A1.847,1.847,0,0,0,1203.382,695.656Z" transform="translate(-1179.119 -695.656)" fill="#071b2a"/>
    </clipPath>
    <clipPath id="clip-path-2">
      <path id="Path_67" data-name="Path 67" d="M1236.1,927.349l-5.963,3.989a1.9,1.9,0,0,1-1.1.327c-.063,0-.129,0-.2-.007-.432-.032-.917-.1-1.364-.1a1.911,1.911,0,0,0-1.019.224l5.962-3.989a1.915,1.915,0,0,1,1.019-.224c.447,0,.932.069,1.364.1.067,0,.133.007.2.007A1.9,1.9,0,0,0,1236.1,927.349Z" transform="translate(-1226.457 -927.349)" fill="#071b2a"/>
    </clipPath>
    <clipPath id="clip-path-3">
      <path id="Path_69" data-name="Path 69" d="M806.391,720.79l-5.963,3.989a17.16,17.16,0,0,0,2-1.581c4.543-4.136,4.883-13.329-1.593-17.533a12.737,12.737,0,0,0-7.046-2.319q-.22,0-.444.009c-1.135.045-2.271.059-3.408.059-.866,0-1.733-.008-2.6-.016s-1.752-.016-2.628-.016h-1.058l5.963-3.989h1.058c.875,0,1.752.008,2.628.016s1.733.016,2.6.016c1.136,0,2.273-.014,3.407-.059.149-.006.3-.009.444-.009a12.736,12.736,0,0,1,7.045,2.319c6.476,4.2,6.137,13.4,1.593,17.533A17.207,17.207,0,0,1,806.391,720.79Z" transform="translate(-783.656 -699.356)" fill="#071b2a"/>
    </clipPath>
    <clipPath id="clip-path-4">
      <path id="Path_71" data-name="Path 71" d="M788.737,579.273l-5.963,3.989c-.022-3.092-.045-6.087-.067-9.185l5.963-3.989C788.692,573.186,788.714,576.181,788.737,579.273Z" transform="translate(-782.707 -570.088)" fill="#071b2a"/>
    </clipPath>
    <clipPath id="clip-path-5">
      <path id="Path_73" data-name="Path 73" d="M730.7,869.51l5.963-3.989-.016.013q-4.383,4.745-8.751,9.5a.941.941,0,0,0-.21.588c.014,3.605.043,7.21.071,10.978l-5.963,3.989c-.028-3.768-.057-7.373-.071-10.978a.939.939,0,0,1,.21-.588q4.363-4.763,8.751-9.5A.086.086,0,0,1,730.7,869.51Z" transform="translate(-721.726 -865.521)" fill="#071b2a"/>
    </clipPath>
    <clipPath id="clip-path-6">
      <path id="Path_75" data-name="Path 75" d="M755.473,1110.71l-5.963,3.989a25.477,25.477,0,0,1-9.4,3.69,4.387,4.387,0,0,1-.843.07c-.2,0-.4-.008-.606-.016s-.409-.016-.612-.016H722.727l5.963-3.989h15.321c.2,0,.407.008.612.016s.4.016.605.016a4.406,4.406,0,0,0,.843-.069A25.477,25.477,0,0,0,755.473,1110.71Z" transform="translate(-722.727 -1110.71)" fill="#071b2a"/>
    </clipPath>
  </defs>
  <g id="rain" transform="translate(-1585.4 -44.447)">
    <g id="Group_55" data-name="Group 55" transform="translate(1585.4 44.447)">
      <g id="Group_102" data-name="Group 102" transform="translate(0 0)">
        <g id="Group_101" data-name="Group 101" transform="translate(0 0)" style="isolation: isolate">
          <g id="Group_84" data-name="Group 84" transform="translate(32.371 8.887)" style="isolation: isolate">
            <g id="Group_83" data-name="Group 83" clip-path="url(#clip-path)">
              <g id="Group_82" data-name="Group 82" style="isolation: isolate">
                <path id="Path_64" data-name="Path 64" d="M1203.382,695.656l-5.963,3.989a1.846,1.846,0,0,1-1.082.292c-1.44,0-2.871-.006-4.3-.006q-5.927,0-11.854.019h-1.063l5.962-3.989h1.064q5.927-.009,11.854-.019c1.431,0,2.861,0,4.3.006a1.847,1.847,0,0,0,1.082-.292" transform="translate(-1179.119 -695.656)" fill="#071b2a"/>
              </g>
            </g>
          </g>
          <g id="Group_87" data-name="Group 87" transform="translate(35.721 25.284)" style="isolation: isolate">
            <g id="Group_86" data-name="Group 86" clip-path="url(#clip-path-2)">
              <g id="Group_85" data-name="Group 85" style="isolation: isolate">
                <path id="Path_66" data-name="Path 66" d="M1236.1,927.349l-5.963,3.989a1.9,1.9,0,0,1-1.1.327c-.063,0-.129,0-.2-.007-.432-.032-.917-.1-1.364-.1a1.911,1.911,0,0,0-1.019.224l5.962-3.989a1.915,1.915,0,0,1,1.019-.224c.447,0,.932.069,1.364.1.067,0,.133.007.2.007a1.9,1.9,0,0,0,1.1-.327" transform="translate(-1226.457 -927.349)" fill="#071b2a"/>
              </g>
            </g>
          </g>
          <g id="Group_90" data-name="Group 90" transform="translate(4.383 9.149)" style="isolation: isolate">
            <g id="Group_89" data-name="Group 89" clip-path="url(#clip-path-3)">
              <g id="Group_88" data-name="Group 88" style="isolation: isolate">
                <path id="Path_68" data-name="Path 68" d="M806.391,720.79l-5.963,3.989a17.16,17.16,0,0,0,2-1.581c4.543-4.136,4.883-13.329-1.593-17.533a12.737,12.737,0,0,0-7.046-2.319q-.22,0-.444.009c-1.135.045-2.271.059-3.408.059-.866,0-1.733-.008-2.6-.016s-1.752-.016-2.628-.016h-1.058l5.963-3.989h1.058c.875,0,1.752.008,2.628.016s1.733.016,2.6.016c1.136,0,2.273-.014,3.407-.059.149-.006.3-.009.444-.009a12.736,12.736,0,0,1,7.045,2.319c6.476,4.2,6.137,13.4,1.593,17.533a17.207,17.207,0,0,1-2,1.581" transform="translate(-783.656 -699.356)" fill="#071b2a"/>
              </g>
            </g>
          </g>
          <g id="Group_93" data-name="Group 93" transform="translate(4.316)" style="isolation: isolate">
            <g id="Group_92" data-name="Group 92" clip-path="url(#clip-path-4)">
              <g id="Group_91" data-name="Group 91" style="isolation: isolate">
                <path id="Path_70" data-name="Path 70" d="M788.737,579.273l-5.963,3.989-.067-9.185,5.963-3.989.067,9.185" transform="translate(-782.707 -570.088)" fill="#071b2a"/>
              </g>
            </g>
          </g>
          <g id="Group_96" data-name="Group 96" transform="translate(0 20.908)" style="isolation: isolate">
            <g id="Group_95" data-name="Group 95" clip-path="url(#clip-path-5)">
              <g id="Group_94" data-name="Group 94" style="isolation: isolate">
                <path id="Path_72" data-name="Path 72" d="M727.76,886.6l-5.963,3.989c-.028-3.768-.057-7.373-.071-10.978a.939.939,0,0,1,.21-.588q4.363-4.763,8.751-9.5a.086.086,0,0,1,.016-.013l5.963-3.989-.016.013q-4.383,4.745-8.751,9.5a.941.941,0,0,0-.21.588c.014,3.605.043,7.21.071,10.978" transform="translate(-721.726 -865.521)" fill="#071b2a"/>
              </g>
            </g>
          </g>
          <g id="Group_99" data-name="Group 99" transform="translate(0.071 38.261)" style="isolation: isolate">
            <g id="Group_98" data-name="Group 98" clip-path="url(#clip-path-6)">
              <g id="Group_97" data-name="Group 97" style="isolation: isolate">
                <path id="Path_74" data-name="Path 74" d="M755.473,1110.71l-5.963,3.989a25.477,25.477,0,0,1-9.4,3.69,4.387,4.387,0,0,1-.843.07c-.2,0-.4-.008-.606-.016s-.409-.016-.612-.016H722.727l5.963-3.989h15.321c.2,0,.407.008.612.016s.4.016.605.016a4.406,4.406,0,0,0,.843-.069,25.477,25.477,0,0,0,9.4-3.691" transform="translate(-722.727 -1110.71)" fill="#071b2a"/>
              </g>
            </g>
          </g>
          <g id="Group_100" data-name="Group 100" transform="translate(5.963)">
            <path id="Path_76" data-name="Path 76" d="M810.294,570.088h54.432c-1.011,1.142-1.836,2.091-2.68,3.023-1.653,1.827-3.334,3.628-4.964,5.476a1.821,1.821,0,0,1-1.514.68c-1.44,0-2.87-.006-4.3-.006q-5.927,0-11.854.019h-1.063c.157.3.259.476.34.658.813,1.833,1.671,3.647,2.4,5.511.236.6.463.837,1.1.837.972-.005,1.932-.007,2.891-.007,2.482,0,4.965.013,7.447.019h1.13c-.834.946-1.533,1.76-2.255,2.555-1.8,1.986-3.641,3.941-5.409,5.958a2.159,2.159,0,0,1-1.719.888c-.064,0-.129,0-.2-.007-.432-.032-.917-.1-1.364-.1a1.912,1.912,0,0,0-1.018.224c-.515.326-.588,1.351-.854,2.068-3.021,8.153-9.1,12.54-17.413,14.156a4.388,4.388,0,0,1-.844.069c-.2,0-.4-.008-.605-.016s-.409-.016-.612-.016H806.049c-.027-3.769-.057-7.373-.071-10.979a.939.939,0,0,1,.21-.588q4.363-4.762,8.751-9.5c.035-.038.108-.042.291-.108l.086,11.781c1.086,0,2.125-.02,3.145-.02.612,0,1.217.007,1.822.03q.222.009.441.008a12.272,12.272,0,0,0,8.413-3.613c4.543-4.136,4.883-13.329-1.594-17.533a12.737,12.737,0,0,0-7.045-2.319q-.22,0-.444.009c-1.135.045-2.271.059-3.407.059-.866,0-1.733-.008-2.6-.016s-1.752-.016-2.628-.016h-1.058Z" transform="translate(-805.978 -570.088)" fill="#56a2ef"/>
          </g>
        </g>
      </g>
    </g>
    <text id="Daftar_" data-name="Daftar " transform="translate(1646.452 77.79)" fill="#071b2a" font-size="4" font-family="SegoeUI, Segoe UI" letter-spacing="0.05em"><tspan x="-8.165" y="0">DAFTAR </tspan></text>
    <text id="Accounting_System_" data-name="Accounting System " transform="translate(1646.452 83.79)" fill="#757575" font-size="2" font-family="SegoeUI, Segoe UI" letter-spacing="0.35em"><tspan x="-16.264" y="0">ACCOUNTING SYSTEM </tspan></text>
  </g>
</svg>
