<svg xmlns="http://www.w3.org/2000/svg" width="221.821" height="217.812" viewBox="0 0 221.821 217.812">
  <g id="Group_589" data-name="Group 589" transform="translate(-5933 -1387)">
    <path id="path30" d="M706.467-495.588c-10.315-5.991-23.631-.677-32.9,6.833S656.5-471.439,645.5-466.832c-7.007,2.932-15.037,3.607-21.244,7.988-10.11,7.132-11.875,21.5-10.131,33.751s6.05,24.4,4.536,36.683c-1.109,9-5.321,18.016-3.042,26.8,3.2,12.306,17.341,18.162,24.234,28.843,4.952,7.671,6.3,18.012,13.671,23.392,8.557,6.241,20.451,2.6,31,3.546,12.989,1.168,24.105,9.507,36.455,13.7A59.831,59.831,0,0,0,779.246-304.3c7.832-7.131,13.611-16.268,21.314-23.539,6.6-6.232,14.6-11.088,20-18.378,5.232-7.059,7.576-15.786,9.81-24.282,3.268-12.412,6.554-25.323,4.168-37.932-3.812-20.121-20.973-34.777-29.909-53.2-3.484-7.184-6.044-15.4-12.5-20.093-6.846-4.974-16.12-4.557-24.138-7.263-11.509-3.884-20.2-14.142-31.963-17.167a28.758,28.758,0,0,0-29.607,10.586" transform="translate(5319.465 1893.981)" fill="#fcfdfd" opacity="0.09"/>
    <path id="path32" d="M785.72-350.735a87.629,87.629,0,0,1-123.025,14.9,87.629,87.629,0,0,1-14.9-123.027,87.629,87.629,0,0,1,123.025-14.9,87.628,87.628,0,0,1,14.9,123.027" transform="translate(5326.049 1900.126)" fill="#eee" opacity="0.09"/>
    <path id="path34" d="M680.154-413.764a14.292,14.292,0,0,1-20.064,2.431A14.288,14.288,0,0,1,657.66-431.4a14.288,14.288,0,0,1,20.064-2.431,14.291,14.291,0,0,1,2.429,20.064" transform="translate(5336.813 1923.589)" fill="#f8f8f9" opacity="0.09"/>
  </g>
</svg>
