<svg xmlns="http://www.w3.org/2000/svg" width="214.538" height="168.628" viewBox="0 0 214.538 168.628">
  <g id="zohal" transform="translate(-4841.482 -1379.17)" opacity="0.57">
    <path id="path22" d="M164.8-256.614a64.183,64.183,0,0,1-64.182,64.184,64.184,64.184,0,0,1-64.184-64.184A64.184,64.184,0,0,1,100.617-320.8,64.183,64.183,0,0,1,164.8-256.614" transform="translate(4846.175 1720.961)" fill="#eee" opacity="0.11"/>
    <path id="path24" d="M88.291-245a10.47,10.47,0,0,1-10.468,10.469A10.47,10.47,0,0,1,67.354-245a10.468,10.468,0,0,1,10.469-10.468A10.468,10.468,0,0,1,88.291-245" transform="translate(4850.158 1729.377)" fill="#f8f8f9" opacity="0.11"/>
    <path id="path28" d="M43.044-238.609c.287,1.114-54.933,54.1-40.7,65.384s74.111-17.668,125.154-58.9,97.67-91.289,84.909-104.542-76.551,25.985-76.551,25.985l7.624,4.86s38.567-24.745,50.767-15.138-22.578,47.117-71.658,82.945-96.5,60.978-103.865,51.164S46.1-229.405,46.1-229.405l-3.057-9.2" transform="translate(4841.482 1718.565)" fill="#f8f8f9" opacity="0.11"/>
  </g>
</svg>
