<svg xmlns="http://www.w3.org/2000/svg" xmlns:xlink="http://www.w3.org/1999/xlink" width="1920" height="1440" viewBox="0 0 1920 1440">
  <defs>
    <clipPath id="clip-path">
      <rect id="Rectangle_7606" data-name="Rectangle 7606" width="1920" height="1440" transform="translate(0 11408)" fill="#fff" stroke="#707070" stroke-width="1"/>
    </clipPath>
    <linearGradient id="linear-gradient" x1="0.5" x2="0.5" y2="1" gradientUnits="objectBoundingBox">
      <stop offset="0" stop-color="#6da8f9"/>
      <stop offset="1" stop-color="#1d77e9"/>
    </linearGradient>
    <filter id="Ellipse_752" x="1794" y="297" width="37" height="37" filterUnits="userSpaceOnUse">
      <feOffset input="SourceAlpha"/>
      <feGaussianBlur stdDeviation="3" result="blur"/>
      <feFlood flood-color="#fff" flood-opacity="0.62"/>
      <feComposite operator="in" in2="blur"/>
      <feComposite in="SourceGraphic"/>
    </filter>
  </defs>
  <g id="footer" transform="translate(0 -11408)" clip-path="url(#clip-path)">
    <g id="footer-2" data-name="footer" transform="translate(0 -54)">
      <path id="wave_2_" data-name="wave(2)" d="M2143.03-1026.433l-59.529-35.5c-59.529-35.88-178.586-106.309-297.643-142.189-119.057-35.5-238.115-35.5-357.172-10.088-119.057,25.03-238.115,76.424-357.172,111.638s-238.114,25.7-357.172,0-238.114-65.67-357.172-86.322c-119.057-20.272-238.114,10.183-297.643,25.411L0-1148.255V297.413H2143.03Z" transform="translate(-90.121 12693.71)" fill="rgba(225,225,225,0.6)" opacity="0.38"/>
      <path id="Union_5" data-name="Union 5" d="M15370,4544.024c-106.669-25.237-213.335-77.053-320-112.556s-213.335-56.614-320-30.706-213.335,96.914-320,117.735c-106.67,20.439-213.335-10.266-266.67-25.619l-53.33-15.353V4324h1920V4354.7l-53.334,35.792c-53.335,36.174-160,107.18-266.666,143.354a540.9,540.9,0,0,1-173.347,28.275C15467.768,4562.125,15418.887,4555.765,15370,4544.024ZM14090,4324V2817.421l53.33-35.792c53.335-36.174,160-107.18,266.67-143.354,106.665-35.792,213.33-35.792,320-10.173,106.665,25.237,213.331,77.053,320,112.556s213.331,56.613,320,30.705,213.331-96.914,320-117.735c106.666-20.439,213.331,10.266,266.666,25.619L16010,2694.6V4324Z" transform="translate(-14090 8990)" fill="url(#linear-gradient)"/>
      <g id="Group_13392" data-name="Group 13392" transform="translate(-4822.805 10330)" opacity="0.57">
        <path id="path22" d="M164.8-256.614a64.183,64.183,0,0,1-64.182,64.184,64.184,64.184,0,0,1-64.184-64.184A64.184,64.184,0,0,1,100.617-320.8,64.183,64.183,0,0,1,164.8-256.614" transform="translate(4846.175 1720.961)" fill="#eee" opacity="0.11"/>
        <path id="path24" d="M88.291-245a10.47,10.47,0,0,1-10.468,10.469A10.47,10.47,0,0,1,67.354-245a10.468,10.468,0,0,1,10.469-10.468A10.468,10.468,0,0,1,88.291-245" transform="translate(4850.158 1729.377)" fill="#f8f8f9" opacity="0.11"/>
        <path id="path28" d="M43.044-238.609c.287,1.114-54.933,54.1-40.7,65.384s74.111-17.668,125.154-58.9,97.67-91.289,84.909-104.542-76.551,25.985-76.551,25.985l7.624,4.86s38.567-24.745,50.767-15.138-22.578,47.117-71.658,82.945-96.5,60.978-103.865,51.164S46.1-229.405,46.1-229.405l-3.057-9.2" transform="translate(4841.482 1718.565)" fill="#f8f8f9" opacity="0.11"/>
      </g>
      <g id="Group_13391" data-name="Group 13391" transform="translate(-4148 10781)" opacity="0.7">
        <path id="path30" d="M706.467-495.588c-10.315-5.991-23.631-.677-32.9,6.833S656.5-471.439,645.5-466.832c-7.007,2.932-15.037,3.607-21.244,7.988-10.11,7.132-11.875,21.5-10.131,33.751s6.05,24.4,4.536,36.683c-1.109,9-5.321,18.016-3.042,26.8,3.2,12.306,17.341,18.162,24.234,28.843,4.952,7.671,6.3,18.012,13.671,23.392,8.557,6.241,20.451,2.6,31,3.546,12.989,1.168,24.105,9.507,36.455,13.7A59.831,59.831,0,0,0,779.246-304.3c7.832-7.131,13.611-16.268,21.314-23.539,6.6-6.232,14.6-11.088,20-18.378,5.232-7.059,7.576-15.786,9.81-24.282,3.268-12.412,6.554-25.323,4.168-37.932-3.812-20.121-20.973-34.777-29.909-53.2-3.484-7.184-6.044-15.4-12.5-20.093-6.846-4.974-16.12-4.557-24.138-7.263-11.509-3.884-20.2-14.142-31.963-17.167a28.758,28.758,0,0,0-29.607,10.586" transform="translate(5319.465 1893.981)" fill="#fcfdfd" opacity="0.09"/>
        <path id="path32" d="M785.72-350.735a87.629,87.629,0,0,1-123.025,14.9,87.629,87.629,0,0,1-14.9-123.027,87.629,87.629,0,0,1,123.025-14.9,87.628,87.628,0,0,1,14.9,123.027" transform="translate(5326.049 1900.126)" fill="#eee" opacity="0.09"/>
        <path id="path34" d="M680.154-413.764a14.292,14.292,0,0,1-20.064,2.431A14.288,14.288,0,0,1,657.66-431.4a14.288,14.288,0,0,1,20.064-2.431,14.291,14.291,0,0,1,2.429,20.064" transform="translate(5336.813 1923.589)" fill="#f8f8f9" opacity="0.09"/>
      </g>
      <g id="Component_9_10" data-name="Component 9 – 10" transform="translate(1311 11599)">
        <path id="Polygon_2" data-name="Polygon 2" d="M9.766,3.015a2,2,0,0,1,3.468,0L21.277,17a2,2,0,0,1-1.734,3H3.457a2,2,0,0,1-1.734-3Z" fill="#00153f"/>
      </g>
      <g id="Component_6_13" data-name="Component 6 – 13" transform="translate(103 11587)">
        <g id="Ellipse_748" data-name="Ellipse 748" fill="none" stroke="#57faef" stroke-width="5">
          <circle cx="10" cy="10" r="10" stroke="none"/>
          <circle cx="10" cy="10" r="7.5" fill="none"/>
        </g>
      </g>
      <g id="Component_11_2" data-name="Component 11 – 2" transform="translate(1803 11768)">
        <g transform="matrix(1, 0, 0, 1, -1803, -306)" filter="url(#Ellipse_752)">
          <circle id="Ellipse_752-2" data-name="Ellipse 752" cx="9.5" cy="9.5" r="9.5" transform="translate(1803 306)" fill="#fff" opacity="0.91"/>
        </g>
      </g>
    </g>
  </g>
</svg>
