<svg xmlns="http://www.w3.org/2000/svg" xmlns:xlink="http://www.w3.org/1999/xlink" width="835" height="621" viewBox="0 0 835 621">
  <defs>
    <clipPath id="clip-path">
      <rect id="Rectangle_6128" data-name="Rectangle 6128" width="835" height="621" transform="translate(0 -0.243)" fill="#fff" stroke="#707070" stroke-width="1"/>
    </clipPath>
    <clipPath id="clip-path-2">
      <rect id="Rectangle_6" data-name="Rectangle 6" width="321.075" height="170.675" fill="none"/>
    </clipPath>
    <clipPath id="clip-path-3">
      <rect id="Rectangle_13" data-name="Rectangle 13" width="216.161" height="127.139" rx="3.844" fill="none"/>
    </clipPath>
    <linearGradient id="linear-gradient" x1="-4.634" y1="7.636" x2="-3.189" y2="7.636" gradientUnits="objectBoundingBox">
      <stop offset="0.008" stop-color="#d5d5dc"/>
      <stop offset="0.131" stop-color="#dbdbe1"/>
      <stop offset="0.674" stop-color="#f5f5f7"/>
      <stop offset="1" stop-color="#fff"/>
    </linearGradient>
    <linearGradient id="linear-gradient-2" x1="-11.69" y1="-0.032" x2="-10.69" y2="-0.032" xlink:href="#linear-gradient"/>
    <linearGradient id="linear-gradient-3" x1="-10.085" y1="0.205" x2="-9.085" y2="0.205" xlink:href="#linear-gradient"/>
    <linearGradient id="linear-gradient-4" x1="-8.389" y1="0.436" x2="-7.389" y2="0.436" xlink:href="#linear-gradient"/>
  </defs>
  <g id="Group_10659" data-name="Group 10659" transform="translate(-960 -1936.757)">
    <g id="Mask_Group_77" data-name="Mask Group 77" transform="translate(960 1937)" clip-path="url(#clip-path)">
      <g id="OBJECTS" transform="translate(17.958 57.757)">
        <g id="Group_3" data-name="Group 3" transform="translate(0 0)">
          <g id="Group_1" data-name="Group 1" transform="translate(31.028 34.304)">
            <path id="Path_1" data-name="Path 1" d="M615.622,343.023a1.647,1.647,0,1,0-2.516,2.127l3.078,3.629c1.459,1.72,2.922,3.442,4.372,5.17a1.648,1.648,0,0,0,2.523-2.121q-2.183-2.6-4.383-5.182Z" transform="translate(-13.591 -1.406)" fill="#2b79e3"/>
            <path id="Path_2" data-name="Path 2" d="M608.436,164.495a1.647,1.647,0,1,0,2.555-2.079,79.029,79.029,0,0,0-8.1-8.535,1.647,1.647,0,1,0-2.217,2.436A76.089,76.089,0,0,1,608.436,164.495Z" transform="translate(-16.514 -45.314)" fill="#2b79e3"/>
            <path id="Path_3" data-name="Path 3" d="M595.326,270.742a1.626,1.626,0,0,0,.536.09,1.646,1.646,0,0,0,1.558-1.112c1.15-3.343,2.467-6.849,4.026-10.718a1.648,1.648,0,0,0-3.056-1.232c-1.58,3.923-2.917,7.48-4.085,10.878A1.647,1.647,0,0,0,595.326,270.742Z" transform="translate(-17.889 -21.316)" fill="#2b79e3"/>
            <path id="Path_4" data-name="Path 4" d="M616.14,218.679a1.68,1.68,0,0,0,.457.065,1.649,1.649,0,0,0,1.582-1.192,112.519,112.519,0,0,0,2.684-11.386,1.648,1.648,0,0,0-1.332-1.911,1.629,1.629,0,0,0-1.911,1.332,109.783,109.783,0,0,1-2.607,11.052A1.648,1.648,0,0,0,616.14,218.679Z" transform="translate(-13.072 -33.517)" fill="#2b79e3"/>
            <path id="Path_5" data-name="Path 5" d="M617.7,187.473a65.121,65.121,0,0,1,.564,8.607q0,1.309-.049,2.615A1.647,1.647,0,0,0,619.8,200.4h.064a1.648,1.648,0,0,0,1.644-1.586q.054-1.37.053-2.739a68.6,68.6,0,0,0-.593-9.044,1.648,1.648,0,0,0-3.267.437Z" transform="translate(-12.435 -37.843)" fill="#2b79e3"/>
            <path id="Path_6" data-name="Path 6" d="M616.564,180.65a1.648,1.648,0,1,0,3.128-1.039,62.724,62.724,0,0,0-4.775-10.812,1.648,1.648,0,0,0-2.877,1.607A59.364,59.364,0,0,1,616.564,180.65Z" transform="translate(-13.797 -41.944)" fill="#2b79e3"/>
            <path id="Path_7" data-name="Path 7" d="M585.725,145.779a103.981,103.981,0,0,1,9.644,5.983,1.647,1.647,0,0,0,1.892-2.7,107.807,107.807,0,0,0-9.95-6.175,1.648,1.648,0,0,0-1.586,2.89Z" transform="translate(-20.06 -47.815)" fill="#2b79e3"/>
            <path id="Path_8" data-name="Path 8" d="M477.1,120.784c3.744,1.28,7.481,2.436,11.108,3.436a1.6,1.6,0,0,0,.439.06,1.648,1.648,0,0,0,.436-3.236c-3.561-.982-7.235-2.118-10.919-3.378a1.647,1.647,0,1,0-1.065,3.118Z" transform="translate(-45.357 -53.648)" fill="#2b79e3"/>
            <path id="Path_9" data-name="Path 9" d="M495.325,125.8c3.581.757,7.313,1.453,11.408,2.128a1.707,1.707,0,0,0,.27.022,1.648,1.648,0,0,0,.267-3.273c-4.047-.668-7.73-1.354-11.262-2.1a1.648,1.648,0,0,0-.683,3.224Z" transform="translate(-41.168 -52.495)" fill="#2b79e3"/>
            <path id="Path_10" data-name="Path 10" d="M459.58,113.8c3.654,1.64,7.244,3.168,10.673,4.541a1.648,1.648,0,1,0,1.226-3.059c-3.388-1.357-6.937-2.866-10.551-4.488a1.647,1.647,0,0,0-1.348,3.006Z" transform="translate(-49.395 -55.257)" fill="#2b79e3"/>
            <path id="Path_11" data-name="Path 11" d="M550.895,134.057c3.98.743,7.642,1.523,11.193,2.383a1.689,1.689,0,0,0,.389.046,1.647,1.647,0,0,0,.386-3.248c-3.608-.875-7.325-1.665-11.363-2.419a1.647,1.647,0,1,0-.605,3.239Z" transform="translate(-28.266 -50.579)" fill="#2b79e3"/>
            <path id="Path_12" data-name="Path 12" d="M568.836,138.5c3.629,1.192,7.214,2.546,10.655,4.022a1.648,1.648,0,0,0,1.3-3.028c-3.529-1.515-7.2-2.9-10.926-4.126a1.648,1.648,0,1,0-1.029,3.131Z" transform="translate(-24.049 -49.534)" fill="#2b79e3"/>
            <path id="Path_13" data-name="Path 13" d="M513.9,128.915c3.813.519,7.634,1,11.458,1.473a1.647,1.647,0,0,0,.405-3.269c-3.812-.472-7.62-.95-11.42-1.468a1.647,1.647,0,1,0-.444,3.264Z" transform="translate(-36.88 -51.776)" fill="#2b79e3"/>
            <path id="Path_14" data-name="Path 14" d="M532.483,131.267c4.423.566,8.042,1.062,11.391,1.561a1.645,1.645,0,0,0,1.873-1.386,1.648,1.648,0,0,0-1.386-1.873c-3.372-.5-7.012-1-11.459-1.57a1.647,1.647,0,1,0-.418,3.268Z" transform="translate(-32.566 -51.23)" fill="#2b79e3"/>
            <path id="Path_15" data-name="Path 15" d="M644.746,402.883a1.649,1.649,0,0,0,1.619,1.348,1.561,1.561,0,0,0,.3-.027,1.649,1.649,0,0,0,1.321-1.92,116.889,116.889,0,0,0-2.7-11.378,1.647,1.647,0,0,0-3.163.921A112.959,112.959,0,0,1,644.746,402.883Z" transform="translate(-6.774 9.578)" fill="#2b79e3"/>
            <path id="Path_16" data-name="Path 16" d="M589.018,294.613a69.214,69.214,0,0,0,1.077,11.753,1.648,1.648,0,0,0,1.62,1.356,1.721,1.721,0,0,0,.295-.026,1.649,1.649,0,0,0,1.328-1.915,65.68,65.68,0,0,1-1.024-11.191,1.649,1.649,0,0,0-1.649-1.635h-.011A1.647,1.647,0,0,0,589.018,294.613Z" transform="translate(-19.096 -12.903)" fill="#2b79e3"/>
            <path id="Path_17" data-name="Path 17" d="M593.988,274.506a1.649,1.649,0,0,0-2.006,1.186,104.584,104.584,0,0,0-2.306,11.488,1.647,1.647,0,1,0,3.262.457,101.153,101.153,0,0,1,2.235-11.124A1.647,1.647,0,0,0,593.988,274.506Z" transform="translate(-18.947 -17.201)" fill="#2b79e3"/>
            <path id="Path_18" data-name="Path 18" d="M593.415,311.376a1.649,1.649,0,0,0-.975,2.117,81.275,81.275,0,0,0,4.9,10.688,1.647,1.647,0,0,0,2.893-1.576,77.922,77.922,0,0,1-4.7-10.254A1.651,1.651,0,0,0,593.415,311.376Z" transform="translate(-18.325 -8.646)" fill="#2b79e3"/>
            <path id="Path_19" data-name="Path 19" d="M128.464,307.692a1.647,1.647,0,0,0-1.571,1.719c.174,3.83.405,7.719.688,11.559a1.646,1.646,0,0,0,1.641,1.527c.039,0,.08,0,.122,0a1.646,1.646,0,0,0,1.522-1.763c-.28-3.809-.509-7.668-.681-11.466A1.638,1.638,0,0,0,128.464,307.692Z" transform="translate(-126.463 -9.479)" fill="#2b79e3"/>
            <path id="Path_20" data-name="Path 20" d="M135.88,357.63c-.7-3.754-1.352-7.563-1.943-11.321a1.648,1.648,0,1,0-3.256.511c.6,3.789,1.257,7.628,1.959,11.411a1.648,1.648,0,0,0,1.618,1.347,1.585,1.585,0,0,0,.3-.028A1.646,1.646,0,0,0,135.88,357.63Z" transform="translate(-125.588 -0.83)" fill="#2b79e3"/>
            <path id="Path_21" data-name="Path 21" d="M631.754,368.722a1.649,1.649,0,1,0,2.736-1.841c-2-2.974-4.248-6.051-6.869-9.408a1.647,1.647,0,0,0-2.6,2.027C627.595,362.8,629.8,365.812,631.754,368.722Z" transform="translate(-10.812 1.94)" fill="#2b79e3"/>
            <path id="Path_22" data-name="Path 22" d="M129.741,326.362a1.648,1.648,0,0,0-1.474,1.805c.387,3.815.834,7.685,1.328,11.5a1.646,1.646,0,0,0,1.63,1.437,1.793,1.793,0,0,0,.214-.014,1.647,1.647,0,0,0,1.422-1.845c-.489-3.789-.932-7.628-1.316-11.413A1.65,1.65,0,0,0,129.741,326.362Z" transform="translate(-126.146 -5.142)" fill="#2b79e3"/>
            <path id="Path_23" data-name="Path 23" d="M442.657,105.6c3.722,1.91,7.106,3.6,10.344,5.181a1.648,1.648,0,0,0,1.442-2.964c-3.218-1.565-6.581-3.25-10.281-5.149a1.648,1.648,0,0,0-1.5,2.932Z" transform="translate(-53.309 -57.154)" fill="#2b79e3"/>
            <path id="Path_24" data-name="Path 24" d="M645.461,409.875c.253,3.057.38,6.158.38,9.215q0,1.068-.021,2.141a1.65,1.65,0,0,0,1.616,1.681h.032a1.648,1.648,0,0,0,1.648-1.616q.022-1.1.021-2.206c0-3.147-.132-6.338-.389-9.485a1.648,1.648,0,1,0-3.285.27Z" transform="translate(-5.984 13.848)" fill="#2b79e3"/>
            <path id="Path_25" data-name="Path 25" d="M640.027,385.119a1.648,1.648,0,0,0,3.054-1.238,113.017,113.017,0,0,0-4.956-10.6,1.648,1.648,0,0,0-2.91,1.55A109.294,109.294,0,0,1,640.027,385.119Z" transform="translate(-8.408 5.557)" fill="#2b79e3"/>
            <path id="Path_26" data-name="Path 26" d="M601.876,328.011a1.648,1.648,0,0,0-.417,2.293c2.017,2.916,4.295,5.966,6.964,9.328A1.648,1.648,0,0,0,611,337.582c-2.622-3.3-4.859-6.3-6.834-9.153A1.648,1.648,0,0,0,601.876,328.011Z" transform="translate(-16.274 -4.826)" fill="#2b79e3"/>
            <path id="Path_27" data-name="Path 27" d="M610.238,236.242a1.646,1.646,0,0,0,1.521-1.015c1.653-3.968,3.043-7.5,4.249-10.793a1.647,1.647,0,1,0-3.092-1.134c-1.193,3.25-2.566,6.737-4.2,10.661a1.649,1.649,0,0,0,1.521,2.281Z" transform="translate(-14.549 -29.337)" fill="#2b79e3"/>
            <path id="Path_28" data-name="Path 28" d="M608.079,239.662a1.644,1.644,0,0,0-2.17.848l-1.535,3.495q-1.556,3.54-3.1,7.082a1.648,1.648,0,0,0,.855,2.166,1.624,1.624,0,0,0,.654.137,1.645,1.645,0,0,0,1.512-.991q1.536-3.536,3.094-7.069l1.537-3.5A1.648,1.648,0,0,0,608.079,239.662Z" transform="translate(-16.281 -25.317)" fill="#2b79e3"/>
            <path id="Path_29" data-name="Path 29" d="M646.938,438.876c.744-3.367,1.336-6.816,1.758-10.253a1.647,1.647,0,1,0-3.269-.4c-.412,3.333-.986,6.678-1.707,9.942a1.627,1.627,0,0,0,.923,1.819h1.4A1.623,1.623,0,0,0,646.938,438.876Z" transform="translate(-6.396 18.188)" fill="#2b79e3"/>
            <path id="Path_30" data-name="Path 30" d="M139.721,381.558a1.646,1.646,0,0,0-1.155,2.023c1.017,3.723,2.1,7.467,3.2,11.127a1.648,1.648,0,0,0,3.154-.956c-1.1-3.63-2.169-7.343-3.177-11.039A1.648,1.648,0,0,0,139.721,381.558Z" transform="translate(-123.765 7.669)" fill="#2b79e3"/>
            <path id="Path_31" data-name="Path 31" d="M151.379,417.112a1.648,1.648,0,0,0-.924,2.138c1.422,3.586,2.907,7.187,4.415,10.705a1.648,1.648,0,1,0,3.028-1.3c-1.5-3.489-2.97-7.061-4.38-10.618A1.647,1.647,0,0,0,151.379,417.112Z" transform="translate(-121.016 15.916)" fill="#2b79e3"/>
            <path id="Path_32" data-name="Path 32" d="M147.829,412.515a1.648,1.648,0,0,0,3.1-1.13c-1.3-3.564-2.572-7.213-3.783-10.846a1.648,1.648,0,0,0-3.126,1.043C145.236,405.243,146.52,408.922,147.829,412.515Z" transform="translate(-122.505 11.831)" fill="#2b79e3"/>
            <path id="Path_33" data-name="Path 33" d="M147.619,213.309a1.646,1.646,0,0,0,1.347-.7,89.99,89.99,0,0,1,5.91-7.48q.592-.671,1.2-1.327a1.648,1.648,0,1,0-2.426-2.231c-.417.455-.832.914-1.241,1.379a93.126,93.126,0,0,0-6.128,7.755,1.647,1.647,0,0,0,1.343,2.6Z" transform="translate(-122.03 -34.256)" fill="#2b79e3"/>
            <path id="Path_34" data-name="Path 34" d="M175.3,187.922a1.64,1.64,0,0,0,.887-.261c2.792-1.788,5.9-3.7,9.774-6.027a1.648,1.648,0,1,0-1.693-2.827c-3.905,2.341-7.038,4.274-9.859,6.08a1.648,1.648,0,0,0,.891,3.035Z" transform="translate(-115.601 -39.477)" fill="#2b79e3"/>
            <path id="Path_35" data-name="Path 35" d="M160.214,199.181a1.649,1.649,0,0,0,1.078-.4c2.738-2.375,5.66-4.683,8.934-7.058a1.648,1.648,0,0,0-1.936-2.668c-3.352,2.433-6.347,4.8-9.157,7.234a1.648,1.648,0,0,0,1.081,2.894Z" transform="translate(-119.105 -37.115)" fill="#2b79e3"/>
            <path id="Path_36" data-name="Path 36" d="M135.382,363.351a1.648,1.648,0,0,0-1.264,1.957c.808,3.765,1.677,7.563,2.583,11.286a1.649,1.649,0,0,0,1.6,1.258,1.63,1.63,0,0,0,.391-.047,1.649,1.649,0,0,0,1.213-1.99c-.9-3.695-1.762-7.462-2.564-11.2A1.643,1.643,0,0,0,135.382,363.351Z" transform="translate(-124.793 3.444)" fill="#2b79e3"/>
            <path id="Path_37" data-name="Path 37" d="M128.378,285.086a.566.566,0,0,0,.064,0,1.647,1.647,0,0,0,1.645-1.584q.083-2.117.187-4.232.177-3.6.436-7.228a1.647,1.647,0,0,0-1.524-1.762,1.615,1.615,0,0,0-1.762,1.524q-.264,3.658-.442,7.3-.1,2.133-.186,4.265A1.645,1.645,0,0,0,128.378,285.086Z" transform="translate(-126.486 -18.172)" fill="#2b79e3"/>
            <path id="Path_38" data-name="Path 38" d="M129.628,266.4a1.673,1.673,0,0,0,.191.011,1.648,1.648,0,0,0,1.634-1.458c.451-3.9.991-7.713,1.6-11.335a1.647,1.647,0,1,0-3.248-.551c-.622,3.68-1.169,7.552-1.627,11.506A1.648,1.648,0,0,0,129.628,266.4Z" transform="translate(-126.166 -22.489)" fill="#2b79e3"/>
            <path id="Path_39" data-name="Path 39" d="M426.069,96.886l3.284,1.741q3.453,1.832,6.91,3.658a1.648,1.648,0,0,0,1.539-2.914q-3.457-1.821-6.906-3.654l-3.285-1.743a1.647,1.647,0,1,0-1.542,2.912Z" transform="translate(-57.158 -59.177)" fill="#2b79e3"/>
            <path id="Path_40" data-name="Path 40" d="M191.306,178.216a1.631,1.631,0,0,0,.84-.233c2.926-1.74,6.388-3.815,9.889-6.01a1.648,1.648,0,0,0-1.751-2.792c-3.471,2.178-6.915,4.24-9.823,5.972a1.648,1.648,0,0,0,.844,3.064Z" transform="translate(-111.881 -41.718)" fill="#2b79e3"/>
            <path id="Path_41" data-name="Path 41" d="M138.013,229.829a1.645,1.645,0,0,0,2.155-.885,110.615,110.615,0,0,1,4.9-10.246,1.648,1.648,0,0,0-2.894-1.577,113.5,113.5,0,0,0-5.045,10.554A1.646,1.646,0,0,0,138.013,229.829Z" transform="translate(-124.115 -30.721)" fill="#2b79e3"/>
            <path id="Path_42" data-name="Path 42" d="M132.593,247.865a1.667,1.667,0,0,0,.378.044,1.649,1.649,0,0,0,1.6-1.272c.89-3.786,1.9-7.488,3.014-11a1.648,1.648,0,0,0-3.142-.992c-1.135,3.592-2.171,7.374-3.08,11.241A1.648,1.648,0,0,0,132.593,247.865Z" transform="translate(-125.434 -26.718)" fill="#2b79e3"/>
            <path id="Path_43" data-name="Path 43" d="M128.254,303.807h.03a1.648,1.648,0,0,0,1.618-1.677q-.063-3.584-.063-7.171,0-2.157.023-4.316a1.648,1.648,0,0,0-1.63-1.665h-.017a1.647,1.647,0,0,0-1.648,1.629q-.024,2.176-.023,4.351,0,3.616.063,7.229A1.649,1.649,0,0,0,128.254,303.807Z" transform="translate(-126.544 -13.826)" fill="#2b79e3"/>
            <path id="Path_44" data-name="Path 44" d="M338.752,69.054c3.736-.12,7.514-.052,11.363.2.037,0,.073,0,.108,0a1.648,1.648,0,0,0,.107-3.293c-3.957-.258-7.841-.329-11.686-.2a1.647,1.647,0,1,0,.107,3.293Z" transform="translate(-77.637 -65.701)" fill="#2b79e3"/>
            <path id="Path_45" data-name="Path 45" d="M320.209,72.126a1.664,1.664,0,0,0,.421-.055,97.179,97.179,0,0,1,11.109-2.24,1.648,1.648,0,0,0-.463-3.263,100.546,100.546,0,0,0-11.488,2.318,1.648,1.648,0,0,0,.42,3.241Z" transform="translate(-81.932 -65.504)" fill="#2b79e3"/>
            <path id="Path_46" data-name="Path 46" d="M302.822,79.362a1.647,1.647,0,0,0,.759-.185A106.455,106.455,0,0,1,313.9,74.483a1.648,1.648,0,1,0-1.2-3.07,109.58,109.58,0,0,0-10.645,4.839,1.648,1.648,0,0,0,.762,3.109Z" transform="translate(-85.972 -64.4)" fill="#2b79e3"/>
            <path id="Path_47" data-name="Path 47" d="M207.118,168.379a1.648,1.648,0,0,0,.943-.3q1.675-1.17,3.319-2.378c1.98-1.457,3.994-3.008,5.983-4.613a1.648,1.648,0,1,0-2.069-2.564c-1.951,1.572-3.924,3.094-5.866,4.523q-1.612,1.185-3.255,2.332a1.648,1.648,0,0,0,.945,3Z" transform="translate(-108.207 -44.219)" fill="#2b79e3"/>
            <path id="Path_48" data-name="Path 48" d="M375.111,74.315c3.55,1.059,7.205,2.261,10.868,3.576a1.648,1.648,0,0,0,1.114-3.1c-3.719-1.335-7.432-2.556-11.04-3.633a1.648,1.648,0,0,0-.942,3.158Z" transform="translate(-69.067 -64.45)" fill="#2b79e3"/>
            <path id="Path_49" data-name="Path 49" d="M409.481,88.307q5.146,2.556,10.251,5.22a1.648,1.648,0,0,0,1.519-2.924q-5.133-2.667-10.3-5.247a1.648,1.648,0,0,0-1.468,2.951Z" transform="translate(-61.021 -61.175)" fill="#2b79e3"/>
            <path id="Path_50" data-name="Path 50" d="M392.571,80.556c3.43,1.415,6.965,2.96,10.512,4.592a1.647,1.647,0,1,0,1.377-2.993c-3.585-1.65-7.161-3.213-10.63-4.643a1.647,1.647,0,1,0-1.258,3.045Z" transform="translate(-64.974 -62.986)" fill="#2b79e3"/>
            <path id="Path_51" data-name="Path 51" d="M357.1,70.21c3.645.555,7.415,1.278,11.2,2.147a1.647,1.647,0,1,0,.737-3.211c-3.867-.887-7.717-1.625-11.442-2.194a1.648,1.648,0,1,0-.5,3.258Z" transform="translate(-73.304 -65.415)" fill="#2b79e3"/>
            <path id="Path_52" data-name="Path 52" d="M235.01,143.817a1.649,1.649,0,0,0,1.2-.516c2.435-2.578,5-5.359,7.847-8.5a1.647,1.647,0,0,0-2.442-2.211c-2.831,3.125-5.383,5.889-7.8,8.451a1.648,1.648,0,0,0,1.2,2.779Z" transform="translate(-101.727 -50.287)" fill="#2b79e3"/>
            <path id="Path_53" data-name="Path 53" d="M287.117,89.837a1.643,1.643,0,0,0,1-.34c3.1-2.38,6.223-4.6,9.3-6.587a1.648,1.648,0,1,0-1.792-2.765c-3.146,2.038-6.347,4.306-9.511,6.738a1.647,1.647,0,0,0,1,2.954Z" transform="translate(-89.621 -62.407)" fill="#2b79e3"/>
            <path id="Path_54" data-name="Path 54" d="M247.6,129.99a1.649,1.649,0,0,0,1.234-.553l7.652-8.631a1.648,1.648,0,1,0-2.462-2.19l-7.654,8.634a1.648,1.648,0,0,0,1.231,2.741Z" transform="translate(-98.802 -53.536)" fill="#2b79e3"/>
            <path id="Path_55" data-name="Path 55" d="M221.7,156.866a1.64,1.64,0,0,0,1.105-.426c2.727-2.471,5.558-5.161,8.414-8a1.647,1.647,0,0,0-2.321-2.339c-2.822,2.8-5.617,5.456-8.306,7.892a1.648,1.648,0,0,0,1.107,2.869Z" transform="translate(-104.82 -47.131)" fill="#2b79e3"/>
            <path id="Path_56" data-name="Path 56" d="M260.066,115.987a1.641,1.641,0,0,0,1.219-.539c2.82-3.094,5.383-5.846,7.836-8.412a1.648,1.648,0,0,0-2.382-2.277c-2.472,2.585-5.053,5.356-7.891,8.47a1.648,1.648,0,0,0,1.218,2.758Z" transform="translate(-95.905 -56.745)" fill="#2b79e3"/>
            <path id="Path_57" data-name="Path 57" d="M273.032,102.371a1.648,1.648,0,0,0,1.149-.466c2.857-2.776,5.681-5.394,8.4-7.78a1.648,1.648,0,1,0-2.175-2.476c-2.758,2.423-5.624,5.077-8.52,7.892a1.648,1.648,0,0,0,1.148,2.829Z" transform="translate(-92.893 -59.768)" fill="#2b79e3"/>
          </g>
          <g id="Group_2" data-name="Group 2">
            <path id="Path_58" data-name="Path 58" d="M644.484,144.328A12.631,12.631,0,1,1,631.852,131.7,12.631,12.631,0,0,1,644.484,144.328Z" transform="translate(18.949 -16.064)" fill="none" stroke="#8ee4fd" stroke-miterlimit="10" stroke-width="1.337"/>
            <circle id="Ellipse_1" data-name="Ellipse 1" cx="15.927" cy="15.927" r="15.927" transform="translate(8.787 146.388)" fill="none" stroke="#8ee4fd" stroke-miterlimit="10" stroke-width="1.337"/>
            <path id="Path_59" data-name="Path 59" d="M457.164,61.364a9.886,9.886,0,1,1-9.886-9.885A9.886,9.886,0,0,1,457.164,61.364Z" transform="translate(-23.296 -34.702)" fill="none" stroke="#8ee4fd" stroke-miterlimit="10" stroke-width="1.337"/>
            <circle id="Ellipse_2" data-name="Ellipse 2" cx="11.808" cy="11.808" r="11.808" transform="translate(650.801 128.264)" fill="#8ee4fd"/>
            <circle id="Ellipse_3" data-name="Ellipse 3" cx="11.533" cy="11.533" r="11.533" transform="translate(0 163.962)" fill="#8ee4fd"/>
            <circle id="Ellipse_4" data-name="Ellipse 4" cx="9.886" cy="9.886" r="9.886" transform="translate(388.532 19.537) rotate(-81.178)" fill="#8ee4fd"/>
            <path id="Path_60" data-name="Path 60" d="M632.4,271.985a6.59,6.59,0,1,1-6.591-6.591A6.59,6.59,0,0,1,632.4,271.985Z" transform="translate(30.165 39.674)" fill="#ffd70e" opacity="0.45"/>
          </g>
        </g>
        <g id="Group_19" data-name="Group 19" transform="translate(412.354 66.044)">
          <g id="Group_4" data-name="Group 4">
            <rect id="Rectangle_2" data-name="Rectangle 2" width="159.268" height="159.268" rx="6.685" fill="#1f5b99"/>
            <rect id="Rectangle_3" data-name="Rectangle 3" width="139.496" height="129.062" rx="5.632" transform="translate(9.886 9.886)" fill="#00a2dd"/>
            <path id="Path_61" data-name="Path 61" d="M506.8,212.991a5.217,5.217,0,1,1-5.216-5.216A5.217,5.217,0,0,1,506.8,212.991Z" transform="translate(-421.949 -64.433)" fill="#0d2742"/>
          </g>
          <g id="Group_18" data-name="Group 18" transform="translate(22.49 16.726)">
            <g id="Group_7" data-name="Group 7" transform="translate(0 47.804)">
              <g id="Group_5" data-name="Group 5" transform="translate(12.222)">
                <path id="Path_62" data-name="Path 62" d="M554.247,196.743a14.632,14.632,0,0,0-13.616-13.089l-10.516-.673h-1.041a7.005,7.005,0,0,1-7-7.006V143.822H496.8v32.154a7,7,0,0,1-7,7.006H489l-10.516.673a14.633,14.633,0,0,0-13.617,13.089c-.4,3.817-.723,7.351-.723,8.592,0,.868,1.354,5.81,3.305,12.484h84.215c1.951-6.673,3.3-11.616,3.3-12.484C554.97,204.094,554.643,200.56,554.247,196.743Z" transform="translate(-464.146 -143.822)" fill="#ed8d5d"/>
                <path id="Path_63" data-name="Path 63" d="M515.924,157.9v4.972a42.179,42.179,0,0,1-6.54,3.887,13.666,13.666,0,0,1-11.867.021,39.376,39.376,0,0,1-6.875-4.138v-4.972a41,41,0,0,0,6.875,4.158,13.733,13.733,0,0,0,11.867-.021A40.8,40.8,0,0,0,515.924,157.9Z" transform="translate(-457.99 -140.604)" fill="#0b334c"/>
              </g>
              <g id="Group_6" data-name="Group 6" transform="translate(0 37.182)">
                <path id="Path_64" data-name="Path 64" d="M454.228,211.2h114s-6.518-17.539-12.443-27.255-18.6-8.651-22.4-8.533a13.545,13.545,0,0,1-6.517-1.422l-31.522.949a46.692,46.692,0,0,1-8.531.948c-3.319-.118-13.51-.118-20.027,8.058S454.228,211.2,454.228,211.2Z" transform="translate(-454.228 -173.994)" fill="#fff"/>
              </g>
            </g>
            <g id="Group_17" data-name="Group 17" transform="translate(19.676)">
              <g id="Group_13" data-name="Group 13" transform="translate(3.7 3.097)">
                <path id="Path_65" data-name="Path 65" d="M541.2,144.042c-1.422,3.47-6.884,7.565-10.429,6.295a37.384,37.384,0,0,1-2.332,9.291,24.81,24.81,0,0,1-7.7,9.367,41.118,41.118,0,0,1-7.3,4.455,13.71,13.71,0,0,1-11.869.02,42.711,42.711,0,0,1-5.65-3.242,26.253,26.253,0,0,1-9.405-10.541,38.758,38.758,0,0,1-2.35-9.348c-3.547,1.289-9.026-2.806-10.448-6.295a6.919,6.919,0,0,1,9.064-9.024c-.038-.569-.058-1.157-.076-1.725-.018-.361-.018-.7-.018-1.044a24.77,24.77,0,1,1,49.524.986c-.02.608-.057,1.2-.076,1.783a6.924,6.924,0,0,1,9.064,9.024Z" transform="translate(-473.197 -107.544)" fill="#ed8d5d"/>
                <g id="Group_12" data-name="Group 12" transform="translate(14.67 26.478)">
                  <g id="Group_8" data-name="Group 8" transform="translate(0 13.966)">
                    <path id="Path_66" data-name="Path 66" d="M496.854,146.239a5.876,5.876,0,1,1-5.876-5.876A5.876,5.876,0,0,1,496.854,146.239Z" transform="translate(-485.101 -140.363)" fill="#e6794e"/>
                    <path id="Path_67" data-name="Path 67" d="M519.109,146.239a5.877,5.877,0,1,1-5.877-5.876A5.877,5.877,0,0,1,519.109,146.239Z" transform="translate(-479.931 -140.363)" fill="#e6794e"/>
                  </g>
                  <path id="Path_68" data-name="Path 68" d="M501.4,134.32c.191,2.608-.768,5.135-1.192,7.711a4.588,4.588,0,0,0,.049,2.24,4.8,4.8,0,0,0,2.073,2.2" transform="translate(-481.619 -127.801)" fill="none" stroke="#0b334c" stroke-linecap="round" stroke-miterlimit="10" stroke-width="1.749"/>
                  <g id="Group_9" data-name="Group 9" transform="translate(5.905)">
                    <path id="Path_69" data-name="Path 69" d="M497.41,129.395s-5.1-1.725-7.517,2.327" transform="translate(-489.893 -129.03)" fill="none" stroke="#0b334c" stroke-linecap="round" stroke-linejoin="round" stroke-width="1.696"/>
                    <path id="Path_70" data-name="Path 70" d="M506,129.395s5.1-1.725,7.517,2.327" transform="translate(-486.151 -129.03)" fill="none" stroke="#0b334c" stroke-linecap="round" stroke-linejoin="round" stroke-width="1.696"/>
                  </g>
                  <g id="Group_10" data-name="Group 10" transform="translate(8.445 6.173)">
                    <path id="Path_71" data-name="Path 71" d="M510.877,137.609c0,1.972-.995,3.57-2.221,3.57s-2.219-1.6-2.219-3.57.993-3.57,2.219-3.57S510.877,135.637,510.877,137.609Z" transform="translate(-488.589 -134.039)" fill="#0b334c"/>
                    <path id="Path_72" data-name="Path 72" d="M496.394,137.609c0,1.972-.995,3.57-2.221,3.57s-2.219-1.6-2.219-3.57.993-3.57,2.219-3.57S496.394,135.637,496.394,137.609Z" transform="translate(-491.954 -134.039)" fill="#0b334c"/>
                  </g>
                  <g id="Group_11" data-name="Group 11" transform="translate(19.056 17.143)">
                    <path id="Path_73" data-name="Path 73" d="M504.885,148.149a7.441,7.441,0,0,0,3.2-1.474" transform="translate(-499.56 -142.073)" fill="none" stroke="#0b334c" stroke-linecap="round" stroke-linejoin="round" stroke-width="0.424"/>
                    <path id="Path_74" data-name="Path 74" d="M500.564,147.055s7.226,2.786,9.033-4.114" transform="translate(-500.564 -142.941)" fill="none" stroke="#0b334c" stroke-miterlimit="10" stroke-width="0.848"/>
                  </g>
                </g>
              </g>
              <g id="Group_16" data-name="Group 16">
                <path id="Path_75" data-name="Path 75" d="M533.633,117.35c-14.068-16.911-39.665-13.594-51.041-2.047a30.355,30.355,0,0,0-5.7,8.6,9.8,9.8,0,0,0,1.893,11.006l.047.046a7.111,7.111,0,0,1,3.308.5c0-.069-.006-.138-.01-.207a7.068,7.068,0,0,1,3.427,5.8c0,.059.012.1.017.153l.794.7c2.3-1.89,8.668-18.751,8.668-18.751s15.547,18.619,31.258,18.385c3.194-3.292,5.691-7.293,8.407-11.033l.037-.051a9.913,9.913,0,0,0,.122-11.5Q534.266,118.115,533.633,117.35Z" transform="translate(-468.851 -104.887)" fill="#0b334c"/>
                <g id="Group_15" data-name="Group 15">
                  <path id="Path_76" data-name="Path 76" d="M532.223,204.612c5.359-2.53,9.443-6.212,11.055-11.508,4.869-16,2.295-37.734.126-50.1l.08-.014s2.053-23.414-16.02-33.683-50.526-1.848-55.25,23.209c-4.02,21.324,6.68,42.787,9.96,48.712-1.214.4-13.565,4.692-11.808,12.7,1.849,8.421,9.448,14.376,9.448,14.376a162.287,162.287,0,0,0,19.418,1.442c3.248,4.857,6.189,8.7,7.9,9.649,5.545,3.081,42.926-3.285,42.926-3.285C545.965,213.641,539.5,209.683,532.223,204.612ZM509.8,122.451c15.816,1.027,20.333,22.8,20.333,22.8s6.367,20.333-20.333,30.192h0a20.656,20.656,0,0,1-18.046-10.3,40.516,40.516,0,0,1-5.368-18.044C485.665,135,493.985,121.424,509.8,122.451Z" transform="translate(-470.194 -105.031)" fill="#fcb13a"/>
                  <g id="Group_14" data-name="Group 14" transform="translate(11.979 15.277)">
                    <path id="Path_77" data-name="Path 77" d="M479.915,167.874s15.919.171,26.806-5.374" transform="translate(-479.915 -106.955)" fill="none" stroke="#0b334c" stroke-linecap="round" stroke-linejoin="round" stroke-width="0.668"/>
                    <path id="Path_78" data-name="Path 78" d="M493.757,190.971s20.5,1.651,32.992-5.133" transform="translate(-476.699 -101.533)" fill="none" stroke="#0b334c" stroke-linecap="round" stroke-linejoin="round" stroke-width="0.668"/>
                    <path id="Path_79" data-name="Path 79" d="M505.333,190.667s2.67,5.34,5.957,6.572" transform="translate(-474.01 -100.411)" fill="none" stroke="#0b334c" stroke-linecap="round" stroke-linejoin="round" stroke-width="0.668"/>
                    <path id="Path_80" data-name="Path 80" d="M507.667,190.5s1.848,2.875,3.285,3.7" transform="translate(-473.467 -100.45)" fill="none" stroke="#0b334c" stroke-linecap="round" stroke-linejoin="round" stroke-width="0.668"/>
                    <path id="Path_81" data-name="Path 81" d="M480.5,185.089s37.792,1.644,50.115-23.209-8.832-46.007-22.182-44.364" transform="translate(-479.779 -117.427)" fill="none" stroke="#0b334c" stroke-linecap="round" stroke-linejoin="round" stroke-width="0.668"/>
                  </g>
                </g>
              </g>
            </g>
          </g>
        </g>
        <g id="Group_43" data-name="Group 43" transform="translate(79.079 232.062)">
          <g id="Group_22" data-name="Group 22">
            <g id="Group_20" data-name="Group 20">
              <path id="Path_82" data-name="Path 82" d="M349.689,444.358h-90.66l11.333-55.718h68Z" transform="translate(-143.814 -188.43)" fill="#0b334c"/>
              <rect id="Rectangle_4" data-name="Rectangle 4" width="321.089" height="221.929" rx="4.215" transform="translate(0 0.001)" fill="#0b334c"/>
              <path id="Path_83" data-name="Path 83" d="M486.624,415.524V231.37a5.2,5.2,0,0,0-5.193-5.194H170.73a5.2,5.2,0,0,0-5.194,5.194V415.524Z" transform="translate(-165.536 -226.176)" fill="#135985"/>
              <rect id="Rectangle_5" data-name="Rectangle 5" width="321.075" height="170.675" transform="translate(0.007 9.029)" fill="#fcb13a"/>
            </g>
            <g id="Group_21" data-name="Group 21" transform="translate(123.181 196.064)">
              <line id="Line_1" data-name="Line 1" x2="74.348" transform="translate(0 25.744)" fill="none" stroke="#fff" stroke-linecap="round" stroke-linejoin="round" stroke-width="1.003"/>
              <path id="Path_84" data-name="Path 84" d="M304.961,393.1a7.827,7.827,0,1,1-7.827-7.827A7.827,7.827,0,0,1,304.961,393.1Z" transform="translate(-259.961 -385.276)" fill="none" stroke="#fff" stroke-linecap="round" stroke-linejoin="round" stroke-width="1.003"/>
            </g>
          </g>
          <g id="Group_42" data-name="Group 42" transform="translate(0.007 9.337)">
            <g id="Group_41" data-name="Group 41" clip-path="url(#clip-path-2)">
              <g id="Group_25" data-name="Group 25" transform="translate(223.352 26.938)">
                <path id="Path_85" data-name="Path 85" d="M346.818,304.875l5.289-19.742V257.139a1.528,1.528,0,0,1,1.528-1.527h69.47a1.527,1.527,0,0,1,1.527,1.527v41.546a1.528,1.528,0,0,1-1.527,1.528H369.838l-21.832,5.85A.97.97,0,0,1,346.818,304.875Z" transform="translate(-346.784 -255.612)" fill="#fff"/>
                <g id="Group_24" data-name="Group 24" transform="translate(18.639 16.655)">
                  <g id="Group_23" data-name="Group 23">
                    <path id="Path_86" data-name="Path 86" d="M369.734,273.04a3.913,3.913,0,1,1-3.913-3.913A3.912,3.912,0,0,1,369.734,273.04Z" transform="translate(-361.909 -269.127)" fill="#00a2dd"/>
                    <path id="Path_87" data-name="Path 87" d="M385.278,273.04a3.913,3.913,0,1,1-3.914-3.913A3.913,3.913,0,0,1,385.278,273.04Z" transform="translate(-358.298 -269.127)" fill="#00a2dd"/>
                    <path id="Path_88" data-name="Path 88" d="M400.82,273.04a3.913,3.913,0,1,1-3.913-3.913A3.913,3.913,0,0,1,400.82,273.04Z" transform="translate(-354.687 -269.127)" fill="#00a2dd"/>
                  </g>
                </g>
              </g>
              <g id="Group_27" data-name="Group 27" transform="translate(-8.232 -9.879)">
                <path id="Path_89" data-name="Path 89" d="M195.544,227.071s58.543-6.943,58.246,10.842-58.417,8.586-58.417,8.586,63.113,9.645,58.225,43.066S186.831,264.5,186.831,264.5s40.66,45.644,33.8,58.56-33.89-11.048-47.419-47.607c0,0,19.115,44.809,2.488,59.709s-16.768-57.38-16.768-57.38l-.067-44.2Z" transform="translate(-158.861 -225.736)" fill="#2cd0d1"/>
                <g id="Group_26" data-name="Group 26" transform="translate(14.136 19.902)">
                  <line id="Line_2" data-name="Line 2" x2="70.847" y2="41.19" transform="translate(2.059)" fill="none" stroke="#0b334c" stroke-linecap="round" stroke-linejoin="round" stroke-width="1.003"/>
                  <line id="Line_3" data-name="Line 3" x1="37.483" y1="64.668" transform="translate(0 6.591)" fill="none" stroke="#0b334c" stroke-linecap="round" stroke-linejoin="round" stroke-width="1.003"/>
                </g>
              </g>
              <g id="Group_40" data-name="Group 40" transform="translate(94.598 13.166)">
                <g id="Group_31" data-name="Group 31" transform="translate(0 68.495)">
                  <g id="Group_28" data-name="Group 28" transform="translate(0.134)">
                    <path id="Path_90" data-name="Path 90" d="M372.867,376.749l-3.761-8.451c-1.317-2.849-2.609-5.507-4.16-8.618a21.214,21.214,0,0,0-7.088-8.106,17.517,17.517,0,0,0-9.718-3.718l-12.629-.808h-1.25a8.414,8.414,0,0,1-8.412-8.414V300.018H295.5v38.615a8.415,8.415,0,0,1-8.413,8.414h-.949l-12.629.808a17.585,17.585,0,0,0-3.343.548,21.281,21.281,0,0,0-14.352,11.276c-1.552,3.11-2.844,5.769-4.162,8.618l-3.76,8.451q-2.808,6.562-5.477,13.161h135.93Q375.684,383.3,372.867,376.749Z" transform="translate(-242.414 -300.018)" fill="#cc6f49"/>
                    <path id="Path_91" data-name="Path 91" d="M315.852,316.928V322.9A50.511,50.511,0,0,1,308,327.568a16.412,16.412,0,0,1-14.253.026,47.47,47.47,0,0,1-8.257-4.969v-5.973a49.141,49.141,0,0,0,8.257,4.993A16.5,16.5,0,0,0,308,321.621,48.919,48.919,0,0,0,315.852,316.928Z" transform="translate(-232.406 -296.153)" fill="#0b334c"/>
                  </g>
                  <g id="Group_30" data-name="Group 30" transform="translate(0 48.905)">
                    <path id="Path_92" data-name="Path 92" d="M242.439,380.69s9.615-32.331,20.46-39.059,67.826,7,91.991-1.648c0,0,16.065,7.414,24.3,40.5L242.3,380.212" transform="translate(-242.305 -339.703)" fill="#00a2dd"/>
                    <g id="Group_29" data-name="Group 29" transform="translate(18.605 2.41)">
                      <path id="Path_93" data-name="Path 93" d="M257.4,344.129s82.38,9.68,96.179-2.471" transform="translate(-257.402 -341.658)" fill="none" stroke="#0b334c" stroke-linecap="round" stroke-linejoin="round" stroke-width="0.668"/>
                      <line id="Line_4" data-name="Line 4" y1="19.153" x2="3.501" transform="translate(4.943 17.711)" fill="none" stroke="#0b334c" stroke-linecap="round" stroke-linejoin="round" stroke-width="0.668"/>
                      <line id="Line_5" data-name="Line 5" x1="4.531" y1="17.918" transform="translate(90 18.329)" fill="none" stroke="#0b334c" stroke-linecap="round" stroke-linejoin="round" stroke-width="0.668"/>
                    </g>
                  </g>
                </g>
                <g id="Group_39" data-name="Group 39" transform="translate(9.324)">
                  <g id="Group_38" data-name="Group 38" transform="translate(18.382 15.73)">
                    <g id="Group_37" data-name="Group 37">
                      <path id="Path_94" data-name="Path 94" d="M341.91,290.182a8.276,8.276,0,0,0-6.338.021q.05-1.072.094-2.142A29.723,29.723,0,0,0,305.9,257.2h0a29.725,29.725,0,0,0-29.7,30.918c.03.694.062,1.39.1,2.085a8.312,8.312,0,0,0-10.891,10.817c1.717,4.2,8.3,9.125,12.555,7.566a45.883,45.883,0,0,0,2.828,11.22c3.783,8.395,12.046,13.673,18.082,16.563a16.469,16.469,0,0,0,14.254-.018c6.02-2.9,14.243-8.184,18.013-16.6a45.717,45.717,0,0,0,2.795-11.158c4.256,1.523,10.81-3.388,12.523-7.576A8.312,8.312,0,0,0,341.91,290.182Z" transform="translate(-264.788 -257.201)" fill="#cc6f49"/>
                      <g id="Group_36" data-name="Group 36" transform="translate(17.312 30.873)">
                        <g id="Group_32" data-name="Group 32" transform="translate(0 16.771)">
                          <path id="Path_95" data-name="Path 95" d="M292.951,302.921a7.058,7.058,0,1,1-7.058-7.058A7.057,7.057,0,0,1,292.951,302.921Z" transform="translate(-278.836 -295.863)" fill="#c4533a"/>
                          <path id="Path_96" data-name="Path 96" d="M319.678,302.921a7.058,7.058,0,1,1-7.059-7.058A7.059,7.059,0,0,1,319.678,302.921Z" transform="translate(-272.627 -295.863)" fill="#c4533a"/>
                        </g>
                        <path id="Path_97" data-name="Path 97" d="M298.4,288.607c.23,3.13-.922,6.167-1.431,9.26a5.533,5.533,0,0,0,.059,2.691,5.772,5.772,0,0,0,2.491,2.637" transform="translate(-274.654 -280.777)" fill="none" stroke="#0b334c" stroke-linecap="round" stroke-miterlimit="10" stroke-width="2.1"/>
                        <g id="Group_33" data-name="Group 33" transform="translate(7.091)">
                          <path id="Path_98" data-name="Path 98" d="M293.619,282.692s-6.126-2.072-9.029,2.794" transform="translate(-284.59 -282.253)" fill="none" stroke="#0b334c" stroke-linecap="round" stroke-linejoin="round" stroke-width="2.036"/>
                          <path id="Path_99" data-name="Path 99" d="M303.936,282.692s6.126-2.072,9.028,2.794" transform="translate(-280.095 -282.253)" fill="none" stroke="#0b334c" stroke-linecap="round" stroke-linejoin="round" stroke-width="2.036"/>
                        </g>
                        <g id="Group_34" data-name="Group 34" transform="translate(10.142 7.414)">
                          <ellipse id="Ellipse_5" data-name="Ellipse 5" cx="2.666" cy="4.287" rx="2.666" ry="4.287" transform="translate(21.435)" fill="#0b334c"/>
                          <ellipse id="Ellipse_6" data-name="Ellipse 6" cx="2.666" cy="4.287" rx="2.666" ry="4.287" fill="#0b334c"/>
                        </g>
                        <g id="Group_35" data-name="Group 35" transform="translate(22.884 20.588)">
                          <path id="Path_100" data-name="Path 100" d="M302.6,305.214s2.684-.545,3.847-1.77" transform="translate(-296.2 -297.918)" fill="none" stroke="#0b334c" stroke-linecap="round" stroke-linejoin="round" stroke-width="0.509"/>
                          <path id="Path_101" data-name="Path 101" d="M297.406,303.9s8.679,3.346,10.848-4.94" transform="translate(-297.406 -298.96)" fill="none" stroke="#0b334c" stroke-miterlimit="10" stroke-width="1.018"/>
                        </g>
                      </g>
                    </g>
                  </g>
                  <path id="Path_102" data-name="Path 102" d="M362.48,306.131s3.7-4.005,2.465-8.626a12.9,12.9,0,0,0-5.546-7.086s5.546-11.4-.308-18.485-16.328-5.854-16.328-5.854,5.237-14.172-14.48-20.333-28.344,11.4-28.344,11.4c-2.465-6.162-18.177-14.48-28.96-5.237-10.586,9.07-3.648,22.6-3.4,23.094-4.313-2.452-12.619.628-13.851,7.1s4.313,12.939,4.313,12.939-10.475,7.086-7.7,19.409a20.436,20.436,0,0,0,14.172,15.1c-5.854,10.783,5.237,16.02,5.237,16.02,10.29,6.408,18.99,4.005,24.018,1.343V334.167a30.226,30.226,0,0,1-9.514-11.4,45.914,45.914,0,0,1-2.822-11.214c-4.252,1.553-10.845-3.364-12.557-7.566a8.305,8.305,0,0,1,10.238-11.056c2.581,9.925,5.345,13.147,6.657,12.585,1.438-.616,6.162-9.653,3.7-17.767,0,0,9.551,4.005,12.837-5.546,0,0,1.849,10.064,11.4,11.6s12.836-4.724,12.836-4.724-2.259,17.355,4.725,17.663c3.813.169,6.369-7.043,7.905-13.626a8.3,8.3,0,0,1,10.756,10.865c-1.713,4.19-8.269,9.095-12.52,7.579a45.905,45.905,0,0,1-2.8,11.153,31.021,31.021,0,0,1-10.487,12.175v12.52c17.82,2.674,26.347-13.864,26.347-13.864s13.248-4.005,15.4-13.248S362.48,306.131,362.48,306.131Z" transform="translate(-249.871 -244.436)" fill="#fff"/>
                </g>
              </g>
            </g>
          </g>
        </g>
        <g id="Group_60" data-name="Group 60" transform="translate(412.354 232.063)">
          <g id="Group_44" data-name="Group 44">
            <rect id="Rectangle_7" data-name="Rectangle 7" width="161.464" height="222.975" rx="6.239" fill="#00a2dd"/>
            <rect id="Rectangle_8" data-name="Rectangle 8" width="150.48" height="190.779" transform="translate(5.492 7.584)" fill="#8ee4fd"/>
            <rect id="Rectangle_9" data-name="Rectangle 9" width="44.76" height="6.316" transform="translate(58.352 204.302)" fill="#006c94"/>
          </g>
          <g id="Group_59" data-name="Group 59" transform="translate(7.592 24.945)">
            <g id="Group_51" data-name="Group 51" transform="translate(0 44.441)">
              <g id="Group_45" data-name="Group 45" transform="translate(50.999 0.444)">
                <path id="Path_103" data-name="Path 103" d="M510.4,309.616V282.841H489.357v26.775a5.834,5.834,0,0,1-5.834,5.835h0c18.545,27.5,32.923,0,32.923,0h-.21A5.835,5.835,0,0,1,510.4,309.616Z" transform="translate(-483.523 -282.841)" fill="#fa9778"/>
                <path id="Path_104" data-name="Path 104" d="M509.311,294.566v4.142a35.11,35.11,0,0,1-5.446,3.236,11.384,11.384,0,0,1-9.883.017,32.864,32.864,0,0,1-5.725-3.446v-4.141a34.146,34.146,0,0,0,5.725,3.463,11.443,11.443,0,0,0,9.883-.017A33.994,33.994,0,0,0,509.311,294.566Z" transform="translate(-482.423 -280.161)" fill="#0b334c"/>
              </g>
              <g id="Group_46" data-name="Group 46" transform="translate(7.293 29.41)">
                <path id="Path_105" data-name="Path 105" d="M468.915,406.017h82.863l-2.12-25.812,10.984-31.167S548.286,320.48,542.8,314.164s-18.674-4.806-18.674-4.806a18.858,18.858,0,0,1-15.1,11.533c-11.808,1.784-17.849-14.279-17.849-14.279-20.384-3.076-26.5,21.556-26.5,21.556-16.2,34.187-16.614,46.27-16.614,46.27l20.871,7.139Z" transform="translate(-448.057 -306.346)" fill="#fff"/>
                <path id="Path_106" data-name="Path 106" d="M484.574,312.188s13.593,22.244,27.6,4.325" transform="translate(-439.573 -304.989)" fill="none" stroke="#0b334c" stroke-linecap="round" stroke-linejoin="round" stroke-width="0.668"/>
              </g>
              <g id="Group_50" data-name="Group 50">
                <g id="Group_47" data-name="Group 47" transform="translate(119.275)">
                  <path id="Path_107" data-name="Path 107" d="M544.765,306.98s-6.933-10.748-5.689-12.2,6.258,2.322,6.258,2.322-.413-14.04,1.218-14.6,2.721,10.759,2.721,10.759.976-9.384,2.823-9.933.922,11.491.922,11.491,3.151-9.077,5.152-8.527-2.371,11.3-2.371,11.3,3.6-5.82,4.945-5.162-4.218,15.225-4.218,15.225Z" transform="translate(-538.927 -282.481)" fill="#fa8764"/>
                </g>
                <g id="Group_49" data-name="Group 49" transform="translate(0 21.218)">
                  <path id="Path_108" data-name="Path 108" d="M553.977,407.562l-1.57-17.094c7.723,8.34,14.211,4.12,14.211,4.12,20.491-10.607,20.9-90.824,18.123-91.545s-18.947-.412-20.595.412-1.544,48.3-1.544,48.3c-1.544-15.446-16.888-39.027-16.888-39.027-1.442-7-9.782-9.783-9.782-9.783-4.531-4.737-15.755-2.884-15.755-2.884l-.206,5.149c.206,4.737,2.369,5.15,2.369,5.15,3.432,13.866-13.044,43.112-13.044,43.112s-18.025-36.838-15.5-41.931c0,0,4.672-.328,5.177-5.835V300.33s-10.135-2.059-15.214,2.472c0,0-9.611,1.99-9.886,9.954a44.961,44.961,0,0,1-4.8,8.994c-3,4.265-23.589,44.883-26.928,85.812Z" transform="translate(-442.139 -299.698)" fill="#f64652"/>
                  <g id="Group_48" data-name="Group 48" transform="translate(28.06 8.184)">
                    <path id="Path_109" data-name="Path 109" d="M516.16,324.767c1.235-12.358,11.326-14.417,11.326-14.417" transform="translate(-453.002 -305.407)" fill="none" stroke="#0b334c" stroke-linecap="round" stroke-linejoin="round" stroke-width="0.668"/>
                    <path id="Path_110" data-name="Path 110" d="M481.231,329.93l19.977,29.657L519.332,328.9" transform="translate(-461.117 -301.097)" fill="none" stroke="#0b334c" stroke-linecap="round" stroke-linejoin="round" stroke-width="0.668"/>
                    <path id="Path_111" data-name="Path 111" d="M468.029,311.353s9.885,2.265,10.915,14" transform="translate(-464.184 -305.174)" fill="none" stroke="#0b334c" stroke-linecap="round" stroke-linejoin="round" stroke-width="0.668"/>
                    <path id="Path_112" data-name="Path 112" d="M518.611,346.95l15.927,32.677-7-3.638" transform="translate(-452.432 -296.904)" fill="none" stroke="#0b334c" stroke-linecap="round" stroke-linejoin="round" stroke-width="0.668"/>
                    <path id="Path_113" data-name="Path 113" d="M540.141,340.933c-.274,1.374-1.921,16.751-1.921,16.751Z" transform="translate(-447.876 -298.302)" fill="none" stroke="#0b334c" stroke-linecap="round" stroke-linejoin="round" stroke-width="0.668"/>
                    <line id="Line_6" data-name="Line 6" y1="6.865" x2="5.217" transform="translate(87.048 42.632)" fill="none" stroke="#0b334c" stroke-linecap="round" stroke-linejoin="round" stroke-width="0.668"/>
                    <path id="Path_114" data-name="Path 114" d="M464.909,396.983l10.435-53.822.412,6.316" transform="translate(-464.909 -297.784)" fill="none" stroke="#0b334c" stroke-linecap="round" stroke-linejoin="round" stroke-width="0.668"/>
                    <line id="Line_7" data-name="Line 7" x2="19.565" y2="0.206" transform="translate(94.668)" fill="none" stroke="#0b334c" stroke-linecap="round" stroke-linejoin="round" stroke-width="0.668"/>
                  </g>
                </g>
              </g>
            </g>
            <g id="Group_58" data-name="Group 58" transform="translate(38.929)">
              <g id="Group_56" data-name="Group 56" transform="translate(0 7.656)">
                <path id="Path_115" data-name="Path 115" d="M527.206,275.5a5.743,5.743,0,0,0-4.395.015q.035-.743.064-1.485a20.631,20.631,0,1,0-41.231.041c.021.481.043.964.067,1.445a5.763,5.763,0,0,0-7.552,7.5c1.19,2.911,5.755,6.327,8.706,5.247a31.773,31.773,0,0,0,1.961,7.78c2.622,5.82,8.353,9.48,12.538,11.484a11.422,11.422,0,0,0,9.883-.012c4.175-2.009,9.877-5.675,12.492-11.509a31.787,31.787,0,0,0,1.937-7.737c2.951,1.056,7.5-2.349,8.683-5.253A5.764,5.764,0,0,0,527.206,275.5Z" transform="translate(-473.729 -252.631)" fill="#fa9778"/>
                <g id="Group_55" data-name="Group 55" transform="translate(17.135 22.048)">
                  <path id="Path_116" data-name="Path 116" d="M497.212,274.928c.159,2.171-.64,4.276-.992,6.42a3.838,3.838,0,0,0,.041,1.867,4.009,4.009,0,0,0,1.727,1.829" transform="translate(-485.661 -269.499)" fill="none" stroke="#0b334c" stroke-linecap="round" stroke-miterlimit="10" stroke-width="1.456"/>
                  <g id="Group_52" data-name="Group 52">
                    <path id="Path_117" data-name="Path 117" d="M493.894,270.826s-4.248-1.437-6.26,1.937" transform="translate(-487.634 -270.522)" fill="none" stroke="#0b334c" stroke-linecap="round" stroke-linejoin="round" stroke-width="1.412"/>
                    <path id="Path_118" data-name="Path 118" d="M501.048,270.826s4.248-1.437,6.26,1.937" transform="translate(-484.517 -270.522)" fill="none" stroke="#0b334c" stroke-linecap="round" stroke-linejoin="round" stroke-width="1.412"/>
                  </g>
                  <g id="Group_53" data-name="Group 53" transform="translate(2.115 5.141)">
                    <path id="Path_119" data-name="Path 119" d="M505.108,277.666c0,1.641-.827,2.972-1.849,2.972s-1.849-1.331-1.849-2.972.828-2.972,1.849-2.972S505.108,276.025,505.108,277.666Z" transform="translate(-486.548 -274.694)" fill="#0b334c"/>
                    <path id="Path_120" data-name="Path 120" d="M493.048,277.666c0,1.641-.828,2.972-1.85,2.972s-1.848-1.331-1.848-2.972.828-2.972,1.848-2.972S493.048,276.025,493.048,277.666Z" transform="translate(-489.35 -274.694)" fill="#0b334c"/>
                  </g>
                  <g id="Group_54" data-name="Group 54" transform="translate(10.95 14.276)">
                    <path id="Path_121" data-name="Path 121" d="M500.119,286.443a6.183,6.183,0,0,0,2.667-1.227" transform="translate(-495.684 -281.385)" fill="none" stroke="#0b334c" stroke-linecap="round" stroke-linejoin="round" stroke-width="0.353"/>
                    <path id="Path_122" data-name="Path 122" d="M496.52,285.533s6.019,2.32,7.522-3.426" transform="translate(-496.52 -282.107)" fill="none" stroke="#0b334c" stroke-miterlimit="10" stroke-width="0.706"/>
                  </g>
                </g>
              </g>
              <g id="Group_57" data-name="Group 57" transform="translate(2.222)">
                <path id="Path_123" data-name="Path 123" d="M483.545,288.85a20.022,20.022,0,0,1-5.272-7.579,4.849,4.849,0,0,0,3.543.346A34.314,34.314,0,0,0,483.545,288.85Z" transform="translate(-474.896 -238.321)" fill="#0b334c"/>
                <path id="Path_124" data-name="Path 124" d="M517.2,281.084a27.093,27.093,0,0,1-6.706,10.116,1.843,1.843,0,0,0-.2.016,14.59,14.59,0,0,0,.955-1.813,32.079,32.079,0,0,0,1.927-7.743A5.2,5.2,0,0,0,517.2,281.084Z" transform="translate(-467.456 -238.364)" fill="#0b334c"/>
                <path id="Path_125" data-name="Path 125" d="M524.369,263.322c-.11-.389-.224-.763-.345-1.107,1.066-4.549,3.738-9.88-2.03-12.081a8.277,8.277,0,0,0-8.08,1.2,12.911,12.911,0,0,0-1.385.987c1.611-2.733,2.355-5.728-1.964-5.894a13.626,13.626,0,0,0-6.264,1.322c-.7.212-1.386.441-2.068.682a11.406,11.406,0,0,0-3.5,1.814c.24-1.359-.382-2.562-3.613-2.274-6.013.539-11.318,8.266-12.583,10.247-2.854,2.922-7.531,8.976-6.954,16.864.067.824.149,1.648.248,2.455a4.554,4.554,0,0,1,1.071-.593,5.67,5.67,0,0,1,4.014-.1q.542,1.009,1.081,2.019c.5.943,1.121,1.978,2.159,2.234a2.422,2.422,0,0,0,2.025-.511,4.73,4.73,0,0,0,1.279-1.718c1.211-2.523,1.2-5.437,1.162-8.236a.3.3,0,0,0-.026-.1,5.563,5.563,0,0,0,6.644-.916c.505,1.084,1.7,1.481,2.844,1.82a18.837,18.837,0,0,0,6.1.944,9,9,0,0,0,5.688-2.136c.843.926,2.062.969,3.312.919a19.663,19.663,0,0,0,3.964-.566,18.373,18.373,0,0,0-1.082,4.754,5.993,5.993,0,0,0,.391,3.211,2.566,2.566,0,0,0,2.647,1.506,3.431,3.431,0,0,0,1.314-.69,12.154,12.154,0,0,0,2.88-2.694,5.673,5.673,0,0,1,3.494.264,3.646,3.646,0,0,1,.56.28A39.742,39.742,0,0,0,524.369,263.322Z" transform="translate(-475.532 -246.418)" fill="#0b334c"/>
              </g>
            </g>
          </g>
        </g>
        <g id="Group_80" data-name="Group 80" transform="translate(156.323 75.93)">
          <g id="Group_61" data-name="Group 61">
            <path id="Rectangle_10" data-name="Rectangle 10" d="M5.794,0H238.051a5.793,5.793,0,0,1,5.793,5.793V133.7a5.794,5.794,0,0,1-5.794,5.794H5.793A5.793,5.793,0,0,1,0,133.7V5.794A5.794,5.794,0,0,1,5.794,0Z" fill="#00a2dd"/>
            <rect id="Rectangle_11" data-name="Rectangle 11" width="216.161" height="127.139" rx="3.844" transform="translate(10.8 6.179)" fill="#8ee4fd"/>
            <rect id="Rectangle_12" data-name="Rectangle 12" width="6.59" height="38.719" transform="translate(230.668 50.389)" fill="#00698f"/>
          </g>
          <g id="Group_79" data-name="Group 79" transform="translate(10.8 6.179)">
            <g id="Group_78" data-name="Group 78" clip-path="url(#clip-path-3)">
              <g id="Group_64" data-name="Group 64" transform="translate(139.973 35.862)">
                <g id="Group_62" data-name="Group 62">
                  <path id="Path_126" data-name="Path 126" d="M425.092,232.328s-7.823-93.694-35.363-98.572S417.8,235.422,417.8,235.422Z" transform="translate(-343.245 -133.594)" fill="#2cd0d1"/>
                  <path id="Path_127" data-name="Path 127" d="M424.79,228.5s-34.157-86.348-57.3-75.52,53.53,80.639,53.53,80.639Z" transform="translate(-347.643 -129.307)" fill="#2cd0d1"/>
                  <path id="Path_128" data-name="Path 128" d="M422.772,224.988s-50.224-56.755-69.326-43.477,63.023,46.947,63.023,46.947Z" transform="translate(-350.565 -122.929)" fill="#2cd0d1"/>
                </g>
                <g id="Group_63" data-name="Group 63" transform="translate(6.989 6.472)">
                  <line id="Line_8" data-name="Line 8" x2="42.426" y2="55.606" transform="translate(15.652 23.89)" fill="none" stroke="#0b334c" stroke-linecap="round" stroke-linejoin="round" stroke-width="1.003"/>
                  <line id="Line_9" data-name="Line 9" x2="37.071" y2="24.714" transform="translate(0 56.842)" fill="none" stroke="#0b334c" stroke-linecap="round" stroke-linejoin="round" stroke-width="1.003"/>
                  <line id="Line_10" data-name="Line 10" x2="25.126" y2="61.373" transform="translate(39.542)" fill="none" stroke="#0b334c" stroke-linecap="round" stroke-linejoin="round" stroke-width="1.003"/>
                </g>
              </g>
              <g id="Group_77" data-name="Group 77" transform="translate(29.625 4.501)">
                <g id="Group_68" data-name="Group 68" transform="translate(0 43.196)">
                  <g id="Group_65" data-name="Group 65" transform="translate(40.46)">
                    <path id="Path_129" data-name="Path 129" d="M322.645,171.879V143.2H300.1v28.681a6.249,6.249,0,0,1-6.249,6.249h0c19.865,29.461,35.266,0,35.266,0h-.224A6.249,6.249,0,0,1,322.645,171.879Z" transform="translate(-293.853 -143.198)" fill="#ffcba1"/>
                    <path id="Path_130" data-name="Path 130" d="M321.477,155.758v4.436a37.571,37.571,0,0,1-5.834,3.467,12.19,12.19,0,0,1-10.587.018,35.244,35.244,0,0,1-6.132-3.69v-4.436a36.548,36.548,0,0,0,6.132,3.709,12.257,12.257,0,0,0,10.587-.02A36.275,36.275,0,0,0,321.477,155.758Z" transform="translate(-292.675 -140.328)" fill="#0b334c"/>
                  </g>
                  <g id="Group_67" data-name="Group 67" transform="translate(0 24.796)">
                    <path id="Path_131" data-name="Path 131" d="M307.01,167.392l12.783,3.012,11.314-3.453s2.791,5.878,6.759,5.143,17.778.441,21.746,8.376,17.043,41.14,17.043,41.14H261.021s14.84-39.818,21.158-45.4,21.894-2.351,23.068-4.849S307.01,167.392,307.01,167.392Z" transform="translate(-261.021 -162.475)" fill="#00a2dd"/>
                    <path id="Path_132" data-name="Path 132" d="M309.24,181.607l3.6-12.269-11.2-5.744a2.477,2.477,0,0,0-3.547,1.653L296.33,172.8l3.359-.886Z" transform="translate(-252.818 -163.319)" fill="#40b9e5"/>
                    <path id="Path_133" data-name="Path 133" d="M311.434,181.607l-3.6-12.269,11.194-5.744a2.478,2.478,0,0,1,3.548,1.653l1.64,7.177-3.232-.514Z" transform="translate(-250.145 -163.319)" fill="#40b9e5"/>
                    <g id="Group_66" data-name="Group 66" transform="translate(26.063 11.488)">
                      <path id="Path_134" data-name="Path 134" d="M282.17,173.754s9.053,1.372,9.053,10.424" transform="translate(-282.17 -172.382)" fill="none" stroke="#0b334c" stroke-linecap="round" stroke-linejoin="round" stroke-width="0.668"/>
                      <path id="Path_135" data-name="Path 135" d="M330.049,172.641s-5.761,4.115-4.664,10.151" transform="translate(-272.162 -172.641)" fill="none" stroke="#0b334c" stroke-linecap="round" stroke-linejoin="round" stroke-width="0.668"/>
                      <line id="Line_11" data-name="Line 11" x1="5.761" y2="17.284" transform="translate(2.195 25.788)" fill="none" stroke="#0b334c" stroke-linecap="round" stroke-linejoin="round" stroke-width="0.668"/>
                      <line id="Line_12" data-name="Line 12" x2="8.779" y2="19.478" transform="translate(55.966 23.593)" fill="none" stroke="#0b334c" stroke-linecap="round" stroke-linejoin="round" stroke-width="0.668"/>
                      <line id="Line_13" data-name="Line 13" y2="35.596" transform="translate(32.921 4.732)" fill="none" stroke="#0b334c" stroke-linecap="round" stroke-linejoin="round" stroke-width="0.668"/>
                    </g>
                  </g>
                </g>
                <g id="Group_76" data-name="Group 76" transform="translate(27.528)">
                  <g id="Group_74" data-name="Group 74" transform="translate(0 3.308)">
                    <path id="Path_136" data-name="Path 136" d="M344.028,143.4c-1.282,3.105-6.174,6.766-9.316,5.607a32.09,32.09,0,0,1-2.07,8.294c-2.8,6.248-8.91,10.179-13.371,12.336a12.258,12.258,0,0,1-10.586,0c-4.486-2.132-10.623-6.051-13.432-12.3a33.846,33.846,0,0,1-2.107-8.331c-3.155,1.158-8.047-2.5-9.316-5.607a6.175,6.175,0,0,1,3.377-8.072,6.635,6.635,0,0,1,1.1-.333,5.781,5.781,0,0,1,.789-.111,6.13,6.13,0,0,1,2.822.481c-.012-.518-.049-1.048-.074-1.553a22.1,22.1,0,1,1,44.167-.049c-.025.53-.062,1.072-.074,1.6a5.792,5.792,0,0,1,1.885-.456,6.075,6.075,0,0,1,2.822.419.663.663,0,0,1,.16.086A6.166,6.166,0,0,1,344.028,143.4Z" transform="translate(-283.359 -110.83)" fill="#ffcba1"/>
                    <g id="Group_73" data-name="Group 73" transform="translate(16.992 22.684)">
                      <g id="Group_72" data-name="Group 72">
                        <path id="Path_137" data-name="Path 137" d="M308.517,134.722c.17,2.325-.685,4.581-1.064,6.878a4.118,4.118,0,0,0,.044,2,4.29,4.29,0,0,0,1.85,1.959" transform="translate(-294.777 -127.963)" fill="none" stroke="#0b334c" stroke-linecap="round" stroke-miterlimit="10" stroke-width="1.56"/>
                        <g id="Group_69" data-name="Group 69" transform="translate(0.989)">
                          <path id="Path_138" data-name="Path 138" d="M304.8,131.211c-.527-.022-1.128-.079-1.672-.078a10.336,10.336,0,0,0-1.621.085,4.89,4.89,0,0,0-1.494.523,6.118,6.118,0,0,0-1.335,1.047l-.042.039a.407.407,0,0,1-.652-.453,4.531,4.531,0,0,1,1.181-1.762,4.747,4.747,0,0,1,1.908-1.092,5.623,5.623,0,0,1,2.142-.269,5.409,5.409,0,0,1,2.06.551.748.748,0,0,1-.37,1.413Z" transform="translate(-297.95 -129.237)" fill="#f67846"/>
                          <path id="Path_139" data-name="Path 139" d="M312.509,129.8a5.409,5.409,0,0,1,2.06-.551,5.626,5.626,0,0,1,2.142.269,4.747,4.747,0,0,1,1.908,1.092,4.515,4.515,0,0,1,1.179,1.762.406.406,0,0,1-.651.453l-.042-.039a6.118,6.118,0,0,0-1.335-1.047,4.913,4.913,0,0,0-1.494-.523,10.336,10.336,0,0,0-1.621-.085c-.545,0-1.145.055-1.672.078l-.1,0a.747.747,0,0,1-.371-1.412Z" transform="translate(-294.663 -129.237)" fill="#f67846"/>
                        </g>
                        <g id="Group_70" data-name="Group 70" transform="translate(3.632 6.451)">
                          <path id="Path_140" data-name="Path 140" d="M316.975,137.655c0,1.759-.887,3.184-1.98,3.184s-1.98-1.426-1.98-3.184.886-3.183,1.98-3.183S316.975,135.9,316.975,137.655Z" transform="translate(-297.094 -134.472)" fill="#0b334c"/>
                          <path id="Path_141" data-name="Path 141" d="M304.056,137.655c0,1.759-.887,3.184-1.98,3.184s-1.98-1.426-1.98-3.184.886-3.183,1.98-3.183S304.056,135.9,304.056,137.655Z" transform="translate(-300.095 -134.472)" fill="#0b334c"/>
                        </g>
                        <g id="Group_71" data-name="Group 71" transform="translate(0 17.911)">
                          <path id="Path_142" data-name="Path 142" d="M311.6,145.455a1.326,1.326,0,0,0-1.208-1.674,12.189,12.189,0,0,0-6.958,2.12,12.883,12.883,0,0,1-5.979,2.132.329.329,0,0,0-.118.627C300.787,150.308,309.358,153.463,311.6,145.455Z" transform="translate(-297.148 -143.772)" fill="#f67846"/>
                          <path id="Path_143" data-name="Path 143" d="M307.863,145.455a1.325,1.325,0,0,1,1.208-1.674,12.186,12.186,0,0,1,6.957,2.12,12.888,12.888,0,0,0,5.979,2.132.329.329,0,0,1,.118.627C318.676,150.308,310.1,153.463,307.863,145.455Z" transform="translate(-294.669 -143.772)" fill="#f67846"/>
                        </g>
                      </g>
                    </g>
                  </g>
                  <g id="Group_75" data-name="Group 75" transform="translate(5.003)">
                    <path id="Path_144" data-name="Path 144" d="M335.888,115.052c-10.173-10.931-38.658-7.394-45.14.308-4.264,5.09-3.561,14.406-2.6,20.149a6.13,6.13,0,0,1,2.822.481v-.023c1.343,1.044,3.218,2.725,3.791,4.349.924,2.619,1.54-10.475,5.391-12.785,0,0,7.7,5.083,13.094,4.467s14.018-4.621,14.018-4.621,3.7,7.548,3.7,12.323a47.193,47.193,0,0,1,4.139-3.746,5.857,5.857,0,0,1,1.776-.419C339.215,130.6,341.7,121.3,335.888,115.052Z" transform="translate(-287.419 -108.146)" fill="#f67846"/>
                    <path id="Path_145" data-name="Path 145" d="M291.631,141.81s-3.451,9.631-.678,15.022,14.788,14.788,25.571,12.785,17.715-9.551,17.715-13.556S333.2,141.81,333.2,141.81l-2.933,5.421a17.68,17.68,0,0,1-9.215,8.091l-.357.141a21.208,21.208,0,0,1-15.346.069h0a17.675,17.675,0,0,1-10.082-7.758Z" transform="translate(-286.849 -100.324)" fill="#f67846"/>
                  </g>
                </g>
              </g>
            </g>
          </g>
        </g>
        <g id="Group_92" data-name="Group 92" transform="translate(97.757 93.665)">
          <g id="Group_84" data-name="Group 84">
            <path id="Path_147" data-name="Path 147" d="M268.7,147.082l-3.566-13.309V114.9a1.029,1.029,0,0,0-1.03-1.029H181.723a1.03,1.03,0,0,0-1.03,1.029v28.01a1.03,1.03,0,0,0,1.03,1.029h71.456l14.719,3.945A.654.654,0,0,0,268.7,147.082Z" transform="translate(-180.693 -113.871)" fill="#76d7fa"/>
            <g id="Group_83" data-name="Group 83" transform="translate(7.62 7.002)">
              <rect id="Rectangle_14" data-name="Rectangle 14" width="67.14" height="3.501" fill="#f3f8fa"/>
              <rect id="Rectangle_15" data-name="Rectangle 15" width="20.595" height="3.501" transform="translate(0 8.444)" fill="#f3f8fa"/>
            </g>
          </g>
        </g>
        <g id="Group_113" data-name="Group 113" transform="translate(2.489 351.387)">
          <g id="Group_93" data-name="Group 93" transform="translate(405.195 81.718)">
            <path id="Path_152" data-name="Path 152" d="M470.067,458.526H435.641l-2.069-61.139h38.564Z" transform="translate(-431.868 -387.441)" fill="#0b334c"/>
            <path id="Path_153" data-name="Path 153" d="M471.49,437.741h-37.06l-1.317-22.95h39.693Z" transform="translate(-431.975 -383.397)" fill="#fcb13a"/>
            <rect id="Rectangle_16" data-name="Rectangle 16" width="41.972" height="6.187" transform="translate(0 5.216)" fill="#fcb13a"/>
            <path id="Path_154" data-name="Path 154" d="M471.278,395.5h-37.12a6.187,6.187,0,0,1,6.186-6.186h30.934Z" transform="translate(-431.732 -389.316)" fill="#fcb13a"/>
          </g>
          <g id="Group_107" data-name="Group 107">
            <g id="Group_94" data-name="Group 94" transform="translate(32.654 85.252)">
              <path id="Path_155" data-name="Path 155" d="M199.906,392.184v32.54a35.011,35.011,0,1,1-70.022,0v-32.54Z" transform="translate(-129.884 -392.184)" fill="#f64652"/>
              <line id="Line_14" data-name="Line 14" x2="62.403" transform="translate(2.271 6.516)" fill="none" stroke="#0b334c" stroke-linecap="round" stroke-linejoin="round" stroke-width="1.003"/>
            </g>
            <g id="Group_106" data-name="Group 106">
              <g id="Group_97" data-name="Group 97" transform="translate(65.029 45.43)">
                <path id="Path_156" data-name="Path 156" d="M186.125,374.9l-1.384.89c-.1-.149-9.342-14.7-17.3-13.429-6.212.988-8.9,24.516-9.655,37.154h-1.632c.593-10.38,2.916-37.5,11.023-38.784C176.222,359.264,185.73,374.274,186.125,374.9Z" transform="translate(-156.155 -359.693)" fill="#24aaab"/>
                <g id="Group_96" data-name="Group 96" transform="translate(6.935)">
                  <path id="Path_157" data-name="Path 157" d="M182.639,373.8a15.493,15.493,0,0,0-14.449-2,10.168,10.168,0,0,0-5.384,4.282c-1.674,2.991-1.109,6.79.365,9.883,4.194,8.8,14.132,12.9,22.56,17.792,5.488,3.187,10.986,7.1,16.986,8.666a7.39,7.39,0,0,0,8.519-3.807c3.448-6.9,3.545-15.455,2.132-23.2a48.028,48.028,0,0,0-4.708-13.932c-2.12-3.988-5.018-7.719-8.984-9.88s-9.134-2.477-12.884.039S180.029,370.119,182.639,373.8Z" transform="translate(-161.783 -359.87)" fill="#2cd0d1"/>
                  <g id="Group_95" data-name="Group 95" transform="translate(3.121 16.681)">
                    <path id="Path_158" data-name="Path 158" d="M180.86,373.406s19.154,17.918,20.389,30.686" transform="translate(-160.471 -373.406)" fill="none" stroke="#0b334c" stroke-linecap="round" stroke-linejoin="round" stroke-width="1.003"/>
                    <line id="Line_15" data-name="Line 15" y1="0.206" x2="25.126" transform="translate(0 5.561)" fill="none" stroke="#0b334c" stroke-linecap="round" stroke-linejoin="round" stroke-width="1.003"/>
                    <line id="Line_16" data-name="Line 16" x1="16.682" y1="0.824" transform="translate(29.245 9.268)" fill="none" stroke="#0b334c" stroke-linecap="round" stroke-linejoin="round" stroke-width="1.003"/>
                    <line id="Line_17" data-name="Line 17" x1="25.332" y2="2.06" transform="translate(2.266 8.032)" fill="none" stroke="#0b334c" stroke-linecap="round" stroke-linejoin="round" stroke-width="1.003"/>
                  </g>
                </g>
              </g>
              <g id="Group_98" data-name="Group 98" transform="translate(4.895 43.846)">
                <path id="Path_159" data-name="Path 159" d="M141.888,362.163a9.231,9.231,0,0,0-7.781-3.561c-4.164.26-7.65,3.354-9.941,6.843s-3.728,7.474-5.948,11.007a43.568,43.568,0,0,1-8.963,9.8c-.995.842-2.113,1.936-1.86,3.214a3.02,3.02,0,0,0,.6,1.192c3.266,4.362,9.446,5,14.889,5.264a35.589,35.589,0,0,0,8.82-.3,31.989,31.989,0,0,0,8.059-3.152c5.245-2.682,10.663-6.008,13.033-11.4,1.317-3,1.439-6.789-.657-9.308-2.112-2.537-4.773-.811-7.027-2.213C142.991,368.224,143.431,364.191,141.888,362.163Z" transform="translate(-107.358 -358.585)" fill="#2cd0d1"/>
                <path id="Path_160" data-name="Path 160" d="M155.7,398.435h-1.746l-7.431-20.941-3.014-8.518-.051-.148a2.849,2.849,0,0,0-4.514-1.236l-.577.494c-.067-.033-.115-.065-.181-.1a2.975,2.975,0,0,1-1-1.071l.707-.577a4.47,4.47,0,0,1,7.118,1.945Z" transform="translate(-100.429 -357.029)" fill="#24aaab"/>
                <path id="Path_161" data-name="Path 161" d="M142.452,368.56A41.255,41.255,0,0,1,109.5,387.713" transform="translate(-106.861 -356.267)" fill="none" stroke="#0b334c" stroke-linecap="round" stroke-linejoin="round" stroke-width="1.003"/>
              </g>
              <g id="Group_101" data-name="Group 101" transform="translate(56.336)">
                <path id="Path_162" data-name="Path 162" d="M154.465,330.712c-7.562,6.656-2.207,50.367,2.307,76.267h-1.664c-2.85-16.789-10.923-69.4-1.746-77.519a3.844,3.844,0,0,1,2.932-.94c2.537.181,5.405,2.455,7.25,4.185a4.557,4.557,0,0,1-.89,1.45c-1.779-1.73-4.415-3.839-6.475-3.988A2.094,2.094,0,0,0,154.465,330.712Z" transform="translate(-149.101 -321.726)" fill="#24aaab"/>
                <g id="Group_100" data-name="Group 100" transform="translate(2.687)">
                  <path id="Path_163" data-name="Path 163" d="M206.171,359.57a3.464,3.464,0,0,1-.725,1.4c-3.856,5.173-11.171,5.931-17.613,6.244a42.593,42.593,0,0,1-10.446-.362,37.962,37.962,0,0,1-9.539-3.74c-6.211-3.163-12.62-7.1-15.437-13.494-1.549-3.559-1.7-8.04.774-11.022,2.5-3,5.651-.956,8.321-2.62a2.554,2.554,0,0,0,.642-.543,4.558,4.558,0,0,0,.89-1.45c.89-2.092.988-5.025,2.291-6.754a10.937,10.937,0,0,1,9.209-4.2c4.943.3,9.063,3.972,11.78,8.09,2.7,4.136,4.417,8.847,7.037,13.032a51.853,51.853,0,0,0,10.61,11.616C205.15,356.753,206.468,358.055,206.171,359.57Z" transform="translate(-151.281 -323.005)" fill="#2cd0d1"/>
                  <g id="Group_99" data-name="Group 99" transform="translate(4.117 12.478)">
                    <path id="Path_164" data-name="Path 164" d="M161.641,333.13s22.037,24.713,40.16,22.448" transform="translate(-152.991 -333.13)" fill="none" stroke="#0b334c" stroke-linecap="round" stroke-linejoin="round" stroke-width="1.003"/>
                    <line id="Line_18" data-name="Line 18" y1="10.503" x2="10.709" transform="translate(0 2.471)" fill="none" stroke="#0b334c" stroke-linecap="round" stroke-linejoin="round" stroke-width="1.003"/>
                    <line id="Line_19" data-name="Line 19" y1="12.769" x2="11.739" transform="translate(1.03 4.531)" fill="none" stroke="#0b334c" stroke-linecap="round" stroke-linejoin="round" stroke-width="1.003"/>
                    <line id="Line_20" data-name="Line 20" x1="17.54" y1="0.206" transform="translate(18.295 9.062)" fill="none" stroke="#0b334c" stroke-linecap="round" stroke-linejoin="round" stroke-width="1.003"/>
                    <line id="Line_21" data-name="Line 21" x1="14.966" y1="1.064" transform="translate(23.341 12.94)" fill="none" stroke="#0b334c" stroke-linecap="round" stroke-linejoin="round" stroke-width="1.003"/>
                  </g>
                </g>
              </g>
              <g id="Group_105" data-name="Group 105" transform="translate(0 15.495)">
                <path id="Path_165" data-name="Path 165" d="M142.542,341.422c1.681,3.2,11.912,46.248,15.9,63.169h-1.7c-5.569-23.676-14.252-59.709-15.652-62.411-1.648-3.146-6.163-1.1-6.212-1.07l-.691-1.5C136.248,338.654,140.664,337.8,142.542,341.422Z" transform="translate(-96.229 -334.835)" fill="#24aaab"/>
                <g id="Group_104" data-name="Group 104">
                  <g id="Group_102" data-name="Group 102">
                    <path id="Path_166" data-name="Path 166" d="M130.973,335.579c-5.2-.06-9.816,3.282-13.489,6.963-5.034,5.043-12.4,11.334-14.1,18.253a124.487,124.487,0,0,0,19.99-1.6c4.516-.827,9.081-2.06,12.806-4.743,3.156-2.272,7.363-7.406,5.914-11.626C140.678,338.7,135.079,335.627,130.973,335.579Z" transform="translate(-103.386 -335.578)" fill="#2cd0d1"/>
                    <path id="Path_167" data-name="Path 167" d="M136.122,339.859c-4.078,1.678-7.014,5.231-10.269,8.207a44.274,44.274,0,0,1-21.324,10.724,1.566,1.566,0,0,0-.628.217c-.664.481-.18,1.538.407,2.112,3.847,3.766,9.93,3.979,15.237,3.069A48.734,48.734,0,0,0,140.681,355c3.056-2.323,8.372-7.108,6.927-11.544C146.194,339.118,139.686,338.393,136.122,339.859Z" transform="translate(-103.341 -334.744)" fill="#64e4e6"/>
                  </g>
                  <g id="Group_103" data-name="Group 103" transform="translate(1.869 4.168)">
                    <path id="Path_168" data-name="Path 168" d="M138.576,338.983s-3.193-.617-8.857,4.634-9.885,11.637-24.817,15.447" transform="translate(-104.903 -338.961)" fill="none" stroke="#0b334c" stroke-linecap="round" stroke-linejoin="round" stroke-width="1.003"/>
                    <line id="Line_22" data-name="Line 22" x2="7.517" y2="5.149" transform="translate(16.27 0.126)" fill="none" stroke="#0b334c" stroke-linecap="round" stroke-linejoin="round" stroke-width="1.003"/>
                    <line id="Line_23" data-name="Line 23" x2="7.62" y2="4.222" transform="translate(14.623 2.906)" fill="none" stroke="#0b334c" stroke-linecap="round" stroke-linejoin="round" stroke-width="1.003"/>
                  </g>
                </g>
              </g>
            </g>
          </g>
          <g id="Group_112" data-name="Group 112" transform="translate(555.828 2.947)">
            <g id="Group_109" data-name="Group 109">
              <path id="Path_169" data-name="Path 169" d="M651.589,342.655c-5.725-.951-10.995,6.836-14.672,14.331-2.56-13.42-12.385-40.9-41.859-28.419-18.914,8.01-20.793,37.35-18.343,63.3-3.627-6.762-9.012-13.556-15.663-12.309-12.207,2.287-8.213,44.044,17.51,27.019a285.179,285.179,0,0,0,6.025,29.108l37.861-1.783s11.822-32.917,14.636-60.291c5.679,3.246,14.4,6.372,18.961-1.4C663.154,360.079,662.346,344.443,651.589,342.655Z" transform="translate(-554.423 -325.396)" fill="#2cd0d1"/>
              <g id="Group_108" data-name="Group 108" transform="translate(0.493 1.848)">
                <path id="Path_170" data-name="Path 170" d="M584.525,430.98s-16.75-66.728,0-99.4" transform="translate(-549.652 -325.808)" fill="none" stroke="#0b334c" stroke-linecap="round" stroke-linejoin="round" stroke-width="1.003"/>
                <path id="Path_171" data-name="Path 171" d="M608.748,430.9s22.791-74.142,0-101.327" transform="translate(-542.294 -326.274)" fill="none" stroke="#0b334c" stroke-linecap="round" stroke-linejoin="round" stroke-width="1.003"/>
                <line id="Line_24" data-name="Line 24" y2="105.721" transform="translate(51.075)" fill="none" stroke="#0b334c" stroke-linecap="round" stroke-linejoin="round" stroke-width="1.003"/>
                <path id="Path_172" data-name="Path 172" d="M554.823,377.477s9.611,20.046,23.34,13.456" transform="translate(-554.823 -315.143)" fill="none" stroke="#0b334c" stroke-linecap="round" stroke-linejoin="round" stroke-width="1.003"/>
                <path id="Path_173" data-name="Path 173" d="M643.21,349.178s-1.648,18.124-20.87,14.829" transform="translate(-539.137 -321.718)" fill="none" stroke="#0b334c" stroke-linecap="round" stroke-linejoin="round" stroke-width="1.003"/>
              </g>
            </g>
            <g id="Group_111" data-name="Group 111" transform="translate(11.888 107.568)">
              <g id="Group_110" data-name="Group 110">
                <path id="Path_174" data-name="Path 174" d="M600.157,454.973h0A31.854,31.854,0,0,1,568.3,423.119V412.684h63.708v10.435A31.854,31.854,0,0,1,600.157,454.973Z" transform="translate(-563.087 -412.684)" fill="#fcb13a"/>
                <rect id="Rectangle_17" data-name="Rectangle 17" width="74.142" height="8.787" transform="translate(0 0)" fill="#fcb13a"/>
              </g>
              <path id="Path_175" data-name="Path 175" d="M568.416,419.843h63.638l-63.638,3.81Z" transform="translate(-563.061 -411.021)" fill="#0b334c"/>
            </g>
          </g>
        </g>
      </g>
    </g>
    <g id="Group_10658" data-name="Group 10658" transform="translate(1572.926 2201.428)">
      <g id="Group_10642" data-name="Group 10642" transform="translate(0)">
        <path id="Rectangle_6140" data-name="Rectangle 6140" d="M2.859,0H120.082a2.86,2.86,0,0,1,2.86,2.86V74.522a2.859,2.859,0,0,1-2.859,2.859H2.859A2.859,2.859,0,0,1,0,74.522V2.859A2.859,2.859,0,0,1,2.859,0Z" transform="translate(122.941 77.381) rotate(180)" fill="#263e5f"/>
        <rect id="Rectangle_6141" data-name="Rectangle 6141" width="45.134" height="65.347" transform="translate(72.583 6.017)" fill="#f64652"/>
        <rect id="Rectangle_6142" data-name="Rectangle 6142" width="62.953" height="65.347" transform="translate(4.849 6.017)" fill="#eff7f7"/>
      </g>
      <g id="Group_10645" data-name="Group 10645" transform="translate(75.463 11.809)">
        <g id="Group_10644" data-name="Group 10644" transform="translate(0 0.509)">
          <path id="Path_13086" data-name="Path 13086" d="M491.916,147.54l21.561-.183c4.239-9.325-5.8-18.528-1.56-27.853l-19.549.166C487.457,129,496.825,138.208,491.916,147.54Z" transform="translate(-490.895 -119.503)" fill="#f5e5a1"/>
          <g id="Group_10643" data-name="Group 10643" transform="translate(2.327 2.536)" style="mix-blend-mode: multiply;isolation: isolate">
            <path id="Path_13087" data-name="Path 13087" d="M493.464,128.283q-.033-.29-.057-.583l14.857-.126c.026.194.056.388.087.583Z" transform="translate(-493.408 -122.635)" fill="#cdcdcd"/>
            <path id="Path_13088" data-name="Path 13088" d="M508.8,130.385l-15,.127q-.054-.29-.1-.582l14.968-.127C508.707,130,508.753,130.191,508.8,130.385Z" transform="translate(-493.429 -122.8)" fill="#cdcdcd"/>
            <path id="Path_13089" data-name="Path 13089" d="M509.389,132.611l-15.109.128c-.045-.194-.091-.387-.134-.582l15.078-.128C509.277,132.223,509.332,132.417,509.389,132.611Z" transform="translate(-493.462 -122.964)" fill="#cdcdcd"/>
            <path id="Path_13090" data-name="Path 13090" d="M510.044,134.836l-15.22.13-.144-.582,15.188-.129Q509.956,134.545,510.044,134.836Z" transform="translate(-493.502 -123.129)" fill="#cdcdcd"/>
            <path id="Path_13091" data-name="Path 13091" d="M510.69,137.062l-15.33.13q-.065-.29-.135-.582l15.3-.13C510.58,136.674,510.635,136.868,510.69,137.062Z" transform="translate(-493.542 -123.293)" fill="#cdcdcd"/>
            <path id="Path_13092" data-name="Path 13092" d="M511.252,139.288l-15.44.132c-.033-.194-.069-.388-.106-.583l15.409-.131C511.163,138.9,511.208,139.094,511.252,139.288Z" transform="translate(-493.578 -123.458)" fill="#cdcdcd"/>
            <path id="Path_13093" data-name="Path 13093" d="M511.567,140.933c.031.195.06.388.087.583l-15.551.131q-.024-.29-.056-.583Z" transform="translate(-493.603 -123.622)" fill="#cdcdcd"/>
            <path id="Path_13094" data-name="Path 13094" d="M493.679,122.908c.046-.212.1-.425.158-.637l3.456-.03q-.083.32-.15.637Z" transform="translate(-493.428 -122.241)" fill="#cdcdcd"/>
            <path id="Path_13095" data-name="Path 13095" d="M496.986,123.789c-.031.212-.055.424-.075.636l-3.482.03c.022-.212.049-.424.082-.637Z" transform="translate(-493.409 -122.355)" fill="#cdcdcd"/>
          </g>
        </g>
        <path id="Path_13096" data-name="Path 13096" d="M500.317,120.184a1.231,1.231,0,1,0,1.231-1.231A1.231,1.231,0,0,0,500.317,120.184Z" transform="translate(-491.592 -118.953)" fill="#1b1464"/>
      </g>
      <g id="Group_10646" data-name="Group 10646" transform="translate(98.411 11.028)">
        <rect id="Rectangle_6143" data-name="Rectangle 6143" width="10.588" height="10.588" transform="translate(10.588 11.22) rotate(180)" fill="#f5e5a1"/>
        <path id="Path_13097" data-name="Path 13097" d="M520.889,118.77a.661.661,0,1,0,.661-.661A.662.662,0,0,0,520.889,118.77Z" transform="translate(-516.06 -118.109)" fill="#1b1464"/>
      </g>
      <g id="Group_10647" data-name="Group 10647" transform="translate(105.61 17.589)">
        <rect id="Rectangle_6144" data-name="Rectangle 6144" width="10.588" height="10.588" transform="translate(10.588 11.22) rotate(180)" fill="#eec8c7"/>
        <path id="Path_13098" data-name="Path 13098" d="M528.662,125.855a.661.661,0,1,0,.661-.661A.662.662,0,0,0,528.662,125.855Z" transform="translate(-523.833 -125.194)" fill="#1b1464"/>
      </g>
      <g id="Group_10650" data-name="Group 10650" transform="translate(82.473 29.51)">
        <g id="Group_10649" data-name="Group 10649" transform="translate(0 0.645)">
          <path id="Path_13099" data-name="Path 13099" d="M499.758,174.3l27.329-.232c5.372-11.82-7.35-23.487-1.978-35.307l-24.78.21C494.106,150.8,505.98,162.475,499.758,174.3Z" transform="translate(-498.464 -138.763)" fill="url(#linear-gradient)"/>
          <g id="Group_10648" data-name="Group 10648" transform="translate(2.95 3.215)">
            <path id="Path_13100" data-name="Path 13100" d="M501.72,149.893q-.042-.368-.071-.738L520.482,149c.033.245.07.492.11.737Z" transform="translate(-501.649 -142.735)" fill="#cdcdcd"/>
            <path id="Path_13101" data-name="Path 13101" d="M521.159,152.556l-19.013.162c-.046-.246-.091-.492-.132-.738l18.972-.161Q521.069,152.189,521.159,152.556Z" transform="translate(-501.676 -142.943)" fill="#cdcdcd"/>
            <path id="Path_13102" data-name="Path 13102" d="M521.905,155.378l-19.152.163c-.058-.246-.115-.492-.17-.738l19.113-.162C521.764,154.887,521.835,155.133,521.905,155.378Z" transform="translate(-501.718 -143.152)" fill="#cdcdcd"/>
            <path id="Path_13103" data-name="Path 13103" d="M522.736,158.2l-19.292.164-.183-.737,19.253-.164Z" transform="translate(-501.768 -143.36)" fill="#cdcdcd"/>
            <path id="Path_13104" data-name="Path 13104" d="M523.555,161.02l-19.431.165c-.056-.245-.113-.492-.17-.737l19.392-.165Q523.451,160.652,523.555,161.02Z" transform="translate(-501.819 -143.569)" fill="#cdcdcd"/>
            <path id="Path_13105" data-name="Path 13105" d="M524.266,163.842l-19.571.166c-.043-.245-.086-.492-.133-.737l19.532-.166C524.155,163.35,524.212,163.6,524.266,163.842Z" transform="translate(-501.864 -143.777)" fill="#cdcdcd"/>
            <path id="Path_13106" data-name="Path 13106" d="M524.666,165.928c.04.246.077.492.11.738l-19.711.167q-.031-.368-.071-.738Z" transform="translate(-501.896 -143.986)" fill="#cdcdcd"/>
            <path id="Path_13107" data-name="Path 13107" d="M501.992,143.08c.059-.27.127-.539.2-.808l4.381-.037c-.071.269-.134.538-.191.807Z" transform="translate(-501.674 -142.235)" fill="#cdcdcd"/>
            <path id="Path_13108" data-name="Path 13108" d="M506.184,144.2q-.057.4-.094.807l-4.415.037c.029-.269.063-.538.1-.807Z" transform="translate(-501.651 -142.38)" fill="#cdcdcd"/>
          </g>
        </g>
        <path id="Path_13109" data-name="Path 13109" d="M510.406,139.626a1.56,1.56,0,1,0,1.56-1.56A1.561,1.561,0,0,0,510.406,139.626Z" transform="translate(-499.347 -138.066)" fill="#1b1464"/>
      </g>
      <g id="Group_10657" data-name="Group 10657" transform="translate(1.43 14.27)">
        <g id="Group_10656" data-name="Group 10656" transform="translate(0 21.794)">
          <g id="Group_10651" data-name="Group 10651" transform="translate(10.817 2.688)">
            <rect id="Rectangle_6145" data-name="Rectangle 6145" width="12.881" height="38.151" transform="translate(12.088 40.252) rotate(-159.784)" fill="url(#linear-gradient-2)"/>
            <rect id="Rectangle_6146" data-name="Rectangle 6146" width="10.703" height="5.678" transform="translate(21.829 10.646) rotate(-159.784)" fill="#d78785"/>
            <rect id="Rectangle_6147" data-name="Rectangle 6147" width="10.703" height="5.678" transform="matrix(-0.938, -0.346, 0.346, -0.938, 19.945, 15.764)" fill="#ca605d"/>
            <rect id="Rectangle_6148" data-name="Rectangle 6148" width="10.703" height="5.678" transform="translate(18.06 20.882) rotate(-159.784)" fill="#c5514e"/>
            <rect id="Rectangle_6149" data-name="Rectangle 6149" width="10.703" height="5.678" transform="matrix(-0.938, -0.346, 0.346, -0.938, 16.176, 26)" fill="#be3c39"/>
            <rect id="Rectangle_6150" data-name="Rectangle 6150" width="10.703" height="5.678" transform="translate(14.291 31.118) rotate(-159.784)" fill="#b5211e"/>
            <rect id="Rectangle_6151" data-name="Rectangle 6151" width="9.079" height="0.534" transform="matrix(-0.938, -0.346, 0.346, -0.938, 13.511, 33.235)" fill="#1b1464"/>
            <rect id="Rectangle_6152" data-name="Rectangle 6152" width="9.079" height="0.534" transform="translate(12.694 35.454) rotate(-159.783)" fill="#1b1464"/>
          </g>
          <g id="Group_10653" data-name="Group 10653" transform="translate(4.976 0.449)">
            <rect id="Rectangle_6153" data-name="Rectangle 6153" width="12.881" height="38.151" transform="translate(12.576 40.035) rotate(-167.495)" fill="url(#linear-gradient-3)"/>
            <g id="Group_10652" data-name="Group 10652" transform="translate(3.084 1.529)">
              <rect id="Rectangle_6154" data-name="Rectangle 6154" width="10.703" height="5.678" transform="matrix(-0.976, -0.217, 0.217, -0.976, 15.173, 7.861)" fill="#d793c9"/>
              <rect id="Rectangle_6155" data-name="Rectangle 6155" width="10.703" height="5.678" transform="translate(13.992 13.185) rotate(-167.495)" fill="#ca6ab6"/>
              <rect id="Rectangle_6156" data-name="Rectangle 6156" width="10.703" height="5.678" transform="translate(12.811 18.51) rotate(-167.495)" fill="#c55baf"/>
              <rect id="Rectangle_6157" data-name="Rectangle 6157" width="10.703" height="5.678" transform="translate(11.63 23.834) rotate(-167.494)" fill="#be45a6"/>
              <rect id="Rectangle_6158" data-name="Rectangle 6158" width="10.703" height="5.678" transform="translate(10.449 29.159) rotate(-167.495)" fill="#b5279a"/>
            </g>
            <rect id="Rectangle_6159" data-name="Rectangle 6159" width="9.079" height="0.534" transform="matrix(-0.976, -0.217, 0.217, -0.976, 13.045, 32.891)" fill="#1b1464"/>
            <rect id="Rectangle_6160" data-name="Rectangle 6160" width="9.079" height="0.534" transform="translate(12.533 35.199) rotate(-167.495)" fill="#1b1464"/>
          </g>
          <g id="Group_10655" data-name="Group 10655" transform="translate(0 0)">
            <rect id="Rectangle_6161" data-name="Rectangle 6161" width="12.881" height="38.151" transform="translate(12.864 38.765) rotate(-177.039)" fill="url(#linear-gradient-4)"/>
            <g id="Group_10654" data-name="Group 10654" transform="translate(1.57 1.379)">
              <rect id="Rectangle_6162" data-name="Rectangle 6162" width="10.703" height="5.678" transform="translate(11.816 6.223) rotate(-177.039)" fill="#9bc7d7"/>
              <rect id="Rectangle_6163" data-name="Rectangle 6163" width="10.703" height="5.678" transform="matrix(-0.999, -0.052, 0.052, -0.999, 11.534, 11.67)" fill="#72b1ca"/>
              <rect id="Rectangle_6164" data-name="Rectangle 6164" width="10.703" height="5.678" transform="translate(11.252 17.116) rotate(-177.039)" fill="#63aac5"/>
              <rect id="Rectangle_6165" data-name="Rectangle 6165" width="10.703" height="5.678" transform="matrix(-0.999, -0.052, 0.052, -0.999, 10.971, 22.563)" fill="#4ca0be"/>
              <rect id="Rectangle_6166" data-name="Rectangle 6166" width="10.703" height="5.678" transform="matrix(-0.999, -0.052, 0.052, -0.999, 10.689, 28.01)" fill="#2e92b5"/>
            </g>
            <rect id="Rectangle_6167" data-name="Rectangle 6167" width="9.079" height="0.534" transform="translate(12.142 31.642) rotate(-177.04)" fill="#1b1464"/>
            <rect id="Rectangle_6168" data-name="Rectangle 6168" width="9.079" height="0.534" transform="matrix(-0.999, -0.052, 0.052, -0.999, 12.02, 34.004)" fill="#1b1464"/>
          </g>
        </g>
        <path id="Path_13110" data-name="Path 13110" d="M423.613,124.294h46.876a1.342,1.342,0,0,0,1.342-1.342h0a1.342,1.342,0,0,0-1.342-1.342H423.613a1.342,1.342,0,0,0-1.342,1.342h0A1.342,1.342,0,0,0,423.613,124.294Z" transform="translate(-411.791 -121.61)" fill="#263e5f"/>
        <path id="Path_13111" data-name="Path 13111" d="M423.613,132.486h46.876a1.342,1.342,0,0,0,1.342-1.342h0a1.342,1.342,0,0,0-1.342-1.341H423.613a1.341,1.341,0,0,0-1.342,1.341h0A1.342,1.342,0,0,0,423.613,132.486Z" transform="translate(-411.791 -122.215)" fill="#263e5f"/>
        <path id="Path_13112" data-name="Path 13112" d="M423.613,140.719h46.876a1.341,1.341,0,0,0,1.342-1.341h0a1.342,1.342,0,0,0-1.342-1.342H423.613a1.342,1.342,0,0,0-1.342,1.342h0A1.341,1.341,0,0,0,423.613,140.719Z" transform="translate(-411.791 -122.824)" fill="#263e5f"/>
      </g>
    </g>
    <g id="Group_10641" data-name="Group 10641" transform="translate(1038.683 2159.059)">
      <g id="Group_10640" data-name="Group 10640">
        <g id="Group_10633" data-name="Group 10633" transform="translate(35.235)">
          <g id="Group_10628" data-name="Group 10628">
            <rect id="Rectangle_6129" data-name="Rectangle 6129" width="12.197" height="46.711" fill="#f0c759"/>
          </g>
          <g id="Group_10630" data-name="Group 10630" transform="translate(24.395)">
            <rect id="Rectangle_6130" data-name="Rectangle 6130" width="12.198" height="46.711" fill="#dc4c13"/>
            <rect id="Rectangle_6131" data-name="Rectangle 6131" width="7.883" height="41.057" transform="translate(2.157 2.827)" fill="#fff"/>
            <circle id="Ellipse_725" data-name="Ellipse 725" cx="2.153" cy="2.153" r="2.153" transform="translate(3.946 4.71)" fill="#2e2842"/>
            <g id="Group_10629" data-name="Group 10629" transform="translate(3.035 11.763)">
              <path id="Path_13072" data-name="Path 13072" d="M319.752,117.388h-5.107a.511.511,0,0,1-.509-.51h0a.512.512,0,0,1,.509-.51h5.107a.512.512,0,0,1,.51.51h0A.511.511,0,0,1,319.752,117.388Z" transform="translate(-314.135 -116.367)" fill="#2e2842"/>
              <path id="Path_13073" data-name="Path 13073" d="M319.752,118.972h-5.107a.512.512,0,0,1-.509-.51h0a.511.511,0,0,1,.509-.51h5.107a.511.511,0,0,1,.51.51h0A.512.512,0,0,1,319.752,118.972Z" transform="translate(-314.135 -116.118)" fill="#2e2842"/>
              <path id="Path_13074" data-name="Path 13074" d="M319.752,120.556h-5.107a.512.512,0,0,1-.509-.51h0a.511.511,0,0,1,.509-.51h5.107a.511.511,0,0,1,.51.51h0A.512.512,0,0,1,319.752,120.556Z" transform="translate(-314.135 -115.869)" fill="#2e2842"/>
            </g>
          </g>
          <g id="Group_10632" data-name="Group 10632" transform="translate(12.197)">
            <rect id="Rectangle_6132" data-name="Rectangle 6132" width="12.198" height="46.711" fill="#eacda3"/>
            <rect id="Rectangle_6133" data-name="Rectangle 6133" width="7.883" height="41.057" transform="translate(2.157 2.827)" fill="#fff"/>
            <circle id="Ellipse_726" data-name="Ellipse 726" cx="2.153" cy="2.153" r="2.153" transform="translate(3.946 4.71)" fill="#2e2842"/>
            <g id="Group_10631" data-name="Group 10631" transform="translate(3.035 11.763)">
              <path id="Path_13075" data-name="Path 13075" d="M309.211,117.388H304.1a.511.511,0,0,1-.51-.51h0a.512.512,0,0,1,.51-.51h5.107a.513.513,0,0,1,.51.51h0A.512.512,0,0,1,309.211,117.388Z" transform="translate(-303.593 -116.367)" fill="#2e2842"/>
              <path id="Path_13076" data-name="Path 13076" d="M309.211,118.972H304.1a.512.512,0,0,1-.51-.51h0a.511.511,0,0,1,.51-.51h5.107a.512.512,0,0,1,.51.51h0A.513.513,0,0,1,309.211,118.972Z" transform="translate(-303.593 -116.118)" fill="#2e2842"/>
              <path id="Path_13077" data-name="Path 13077" d="M309.211,120.556H304.1a.512.512,0,0,1-.51-.51h0a.511.511,0,0,1,.51-.51h5.107a.512.512,0,0,1,.51.51h0A.513.513,0,0,1,309.211,120.556Z" transform="translate(-303.593 -115.869)" fill="#2e2842"/>
            </g>
          </g>
        </g>
        <g id="Group_10639" data-name="Group 10639" transform="translate(6.406)">
          <g id="Group_10634" data-name="Group 10634">
            <rect id="Rectangle_6134" data-name="Rectangle 6134" width="12.198" height="46.711" fill="#f0c759"/>
          </g>
          <g id="Group_10636" data-name="Group 10636" transform="translate(24.395)">
            <rect id="Rectangle_6135" data-name="Rectangle 6135" width="12.198" height="46.711" fill="#dc4c13"/>
            <rect id="Rectangle_6136" data-name="Rectangle 6136" width="7.883" height="41.057" transform="translate(2.157 2.827)" fill="#fff"/>
            <circle id="Ellipse_727" data-name="Ellipse 727" cx="2.153" cy="2.153" r="2.153" transform="translate(3.946 4.71)" fill="#2e2842"/>
            <g id="Group_10635" data-name="Group 10635" transform="translate(3.035 11.763)">
              <path id="Path_13078" data-name="Path 13078" d="M294.838,117.388H289.73a.511.511,0,0,1-.51-.51h0a.512.512,0,0,1,.51-.51h5.107a.513.513,0,0,1,.51.51h0A.512.512,0,0,1,294.838,117.388Z" transform="translate(-289.22 -116.367)" fill="#2e2842"/>
              <path id="Path_13079" data-name="Path 13079" d="M294.838,118.972H289.73a.512.512,0,0,1-.51-.51h0a.511.511,0,0,1,.51-.51h5.107a.512.512,0,0,1,.51.51h0A.513.513,0,0,1,294.838,118.972Z" transform="translate(-289.22 -116.118)" fill="#2e2842"/>
              <path id="Path_13080" data-name="Path 13080" d="M294.838,120.556H289.73a.512.512,0,0,1-.51-.51h0a.511.511,0,0,1,.51-.51h5.107a.512.512,0,0,1,.51.51h0A.513.513,0,0,1,294.838,120.556Z" transform="translate(-289.22 -115.869)" fill="#2e2842"/>
            </g>
          </g>
          <g id="Group_10638" data-name="Group 10638" transform="translate(12.198)">
            <rect id="Rectangle_6137" data-name="Rectangle 6137" width="12.198" height="46.711" fill="#eacda3"/>
            <rect id="Rectangle_6138" data-name="Rectangle 6138" width="7.883" height="41.057" transform="translate(2.157 2.827)" fill="#fff"/>
            <circle id="Ellipse_728" data-name="Ellipse 728" cx="2.153" cy="2.153" r="2.153" transform="translate(3.946 4.71)" fill="#2e2842"/>
            <g id="Group_10637" data-name="Group 10637" transform="translate(3.035 11.763)">
              <path id="Path_13081" data-name="Path 13081" d="M284.3,117.388h-5.106a.511.511,0,0,1-.51-.51h0a.512.512,0,0,1,.51-.51H284.3a.512.512,0,0,1,.51.51h0A.511.511,0,0,1,284.3,117.388Z" transform="translate(-278.679 -116.367)" fill="#2e2842"/>
              <path id="Path_13082" data-name="Path 13082" d="M284.3,118.972h-5.106a.512.512,0,0,1-.51-.51h0a.511.511,0,0,1,.51-.51H284.3a.511.511,0,0,1,.51.51h0A.512.512,0,0,1,284.3,118.972Z" transform="translate(-278.679 -116.118)" fill="#2e2842"/>
              <path id="Path_13083" data-name="Path 13083" d="M284.3,120.556h-5.106a.512.512,0,0,1-.51-.51h0a.511.511,0,0,1,.51-.51H284.3a.511.511,0,0,1,.51.51h0A.512.512,0,0,1,284.3,120.556Z" transform="translate(-278.679 -115.869)" fill="#2e2842"/>
            </g>
          </g>
        </g>
        <path id="Path_13084" data-name="Path 13084" d="M338.793,146.57h-76.04a2.776,2.776,0,0,0-2.775,2.776h0a2.775,2.775,0,0,0,2.775,2.775h76.04a2.775,2.775,0,0,0,2.775-2.775h0A2.775,2.775,0,0,0,338.793,146.57Z" transform="translate(-259.978 -99.859)" fill="#135985"/>
        <rect id="Rectangle_6139" data-name="Rectangle 6139" width="69.276" height="5.55" rx="2.21" transform="translate(12.315 46.711)" fill="#135985"/>
      </g>
    </g>
  </g>
</svg>
